<?xml version="1.0" encoding="UTF-8" standalone="no"?>
<!-- Created with Inkscape (http://www.inkscape.org/) -->

<svg
   version="1.1"
   id="svg26401"
   xml:space="preserve"
   width="530.66669"
   height="530.66669"
   viewBox="0 0 530.66669 530.66669"
   sodipodi:docname="wooden-abacus-publicdomainvectors.org.svg"
   inkscape:version="1.1.2 (b8e25be833, 2022-02-05)"
   xmlns:inkscape="http://www.inkscape.org/namespaces/inkscape"
   xmlns:sodipodi="http://sodipodi.sourceforge.net/DTD/sodipodi-0.dtd"
   xmlns="http://www.w3.org/2000/svg"
   xmlns:svg="http://www.w3.org/2000/svg"><defs
     id="defs26405"><clipPath
       clipPathUnits="userSpaceOnUse"
       id="clipPath26415"><path
         d="M 0,398 H 398 V 0 H 0 Z"
         id="path26413" /></clipPath></defs><sodipodi:namedview
     id="namedview26403"
     pagecolor="#ffffff"
     bordercolor="#666666"
     borderopacity="1.0"
     inkscape:pageshadow="2"
     inkscape:pageopacity="0.0"
     inkscape:pagecheckerboard="0"
     showgrid="false"
     inkscape:zoom="1.5659547"
     inkscape:cx="265.33334"
     inkscape:cy="265.33334"
     inkscape:window-width="1920"
     inkscape:window-height="1018"
     inkscape:window-x="-8"
     inkscape:window-y="-8"
     inkscape:window-maximized="1"
     inkscape:current-layer="g26407" /><g
     id="g26407"
     inkscape:groupmode="layer"
     inkscape:label="wooden-abacus-publicdomainvectors.org"
     transform="matrix(1.3333333,0,0,-1.3333333,0,530.66667)"><g
       id="g26409"><g
         id="g26411"
         clip-path="url(#clipPath26415)"><path
           d="m 200.542,55.826 c 77.66,0 141,22.371 141,49.801 0,27.429 -63.34,49.8 -141,49.8 -77.66,0 -141,-22.371 -141,-49.8 0,-27.43 63.34,-49.801 141,-49.801"
           style="fill:#e6e6e6;fill-opacity:1;fill-rule:evenodd;stroke:none"
           id="path26417" /><path
           d="m 122.022,371.374 c -17.685,0 -32.155,-14.471 -32.155,-32.156 V 123.996 c 0,-17.685 14.47,-32.156 32.155,-32.156 h 157.04 c 17.685,0 32.155,14.471 32.155,32.156 v 215.222 c 0,17.685 -14.47,32.156 -32.155,32.156 z m 0,-27.244 h 157.04 c 2.702,0 4.913,-2.21 4.913,-4.912 V 123.996 c 0,-2.703 -2.211,-4.913 -4.913,-4.913 h -157.04 c -2.702,0 -4.912,2.21 -4.912,4.913 v 215.222 c 0,2.702 2.21,4.912 4.912,4.912"
           style="fill:#d1a477;fill-opacity:1;fill-rule:evenodd;stroke:none"
           id="path26419" /><path
           d="m 122.022,344.13 h 143.725 c 0.002,0.313 0.013,0.623 0.013,0.936 0,8.923 -0.612,17.703 -1.771,26.308 H 122.022 c -17.685,0 -32.155,-14.471 -32.155,-32.156 V 150.725 c 9.287,0.921 18.383,2.492 27.243,4.664 v 183.829 c 0,2.702 2.21,4.912 4.912,4.912"
           style="fill:#deb48a;fill-opacity:1;fill-rule:evenodd;stroke:none"
           id="path26421" /><path
           d="m 311.217,130.812 c -1.599,-6.204 -2.842,-13.689 -3.786,-21.905 -1.698,-3.167 -3.909,-6.021 -6.522,-8.449 1.694,19.483 4.897,36.597 10.308,45.784 z m 0,198.02 c -6.305,-8.465 -11.118,-17.93 -13.87,-27.815 -3.497,-12.562 -3.659,-25.812 0.694,-38.54 1.47,-4.296 3.844,-10.164 6.585,-16.942 v -0.011 c 2.062,-5.099 4.329,-10.703 6.591,-16.586 v -16.404 c -3.803,11.015 -8.156,21.781 -11.835,30.876 l -0.004,-0.001 c -2.758,6.816 -5.145,12.717 -6.695,17.252 -4.741,13.857 -4.575,28.246 -0.785,41.861 3.575,12.839 10.376,24.985 19.319,35.332 z m -221.35,4.33 V 316.45 c 2.844,-6.739 6.649,-14.114 12.571,-23.398 5.164,-8.094 5.603,-20.933 3.597,-34.526 -2.726,-18.47 -9.962,-38.08 -16.168,-49.521 v -39.813 c 4.708,12.083 4.117,20.488 3.664,26.915 v 0.011 c -0.276,3.909 -0.49,6.965 0.797,9.273 6.568,11.763 14.413,32.692 17.309,52.316 2.182,14.785 1.563,28.972 -4.438,38.379 -10.079,15.8 -13.812,25.922 -17.332,37.076 m 27.243,-94.058 c -2.494,-7.173 -5.273,-18.449 -7.555,-29.821 -2.569,-12.796 -4.497,-25.644 -4.672,-32.844 -0.179,-7.319 -0.306,-13.81 -0.423,-19.715 -0.498,-25.332 -0.789,-40.028 -3.738,-56.763 -1.815,1.611 -3.449,3.423 -4.864,5.4 2.232,14.763 2.509,28.793 2.955,51.473 0.117,5.959 0.247,12.512 0.422,19.738 0.183,7.519 2.157,20.736 4.783,33.819 2.584,12.874 5.813,25.687 8.606,32.894 1.663,4.291 3.151,8.371 4.486,12.267 z m 6.551,-120.021 h -1.639 c -1.47,0 -2.795,0.655 -3.697,1.688 -0.612,-6.83 -1.305,-17.235 -1.824,-28.452 1.795,-0.314 3.64,-0.479 5.521,-0.479 h 0.02 c 0.458,10.797 1.074,20.75 1.619,27.243 m 20.348,0 h -5.743 c -0.537,-2.919 -0.891,-5.53 -1.025,-7.708 -0.556,-9.058 -1.117,-14.953 -1.804,-19.535 h 5.727 c 0.648,4.601 1.189,10.488 1.724,19.203 0.137,2.23 0.526,4.963 1.121,8.04 m 25.619,0 h -6.236 c -4.029,-8.701 -7.465,-17.4 -9.33,-27.243 h 5.797 c 1.992,9.781 5.61,18.453 9.769,27.243 m 22.601,0 h -6.065 c -3.56,-8.482 -7.756,-18.252 -11.856,-27.243 h 5.82 c 4.357,9.278 8.608,19.01 12.101,27.243 m 28.481,0 h -7.885 c -6.72,-7.143 -12.133,-14.662 -13.662,-27.243 h 5.742 c 1.839,12.741 8.315,19.697 15.805,27.243 m 17.86,0 h -6.663 c -1.603,-3.02 -2.979,-9.443 -4.64,-17.196 -0.68,-3.174 -1.412,-6.586 -2.212,-10.047 h 5.803 c 0.699,3.058 1.341,6.055 1.945,8.873 1.656,7.728 3.01,14.045 4.185,15.887 z m 30.709,0 h -5.941 c -2.648,-8.638 -6.207,-17.659 -10.93,-27.243 h 6.289 c 4.574,9.576 8.021,18.598 10.582,27.243 m 14.696,126.205 v -23.589 c 11.647,-47.043 11.312,-54.36 9.679,-89.789 -0.313,-6.804 -0.675,-14.641 -1.013,-24.133 -0.129,-3.608 -1.181,-8.581 -2.968,-14.125 2.419,0.853 4.708,1.987 6.827,3.364 1.064,4.067 1.686,7.699 1.788,10.561 0.332,9.296 0.697,17.215 1.014,24.089 1.676,36.371 2.011,43.664 -10.091,92.418 -0.04,0.161 -0.231,0.891 -0.587,2.278 -0.937,3.654 -2.692,10.49 -4.649,18.926 m -3.748,98.702 c 2.144,-0.527 3.748,-2.471 3.748,-4.772 v -1.184 c 4.001,9.954 7.496,20.223 8.587,30.347 -1.785,0.833 -3.656,1.507 -5.596,2.002 -0.693,-8.695 -3.403,-17.627 -6.739,-26.393 m -38.791,0.14 h 5.8 c 0.407,1.582 0.971,3.093 1.719,4.521 3.94,7.519 6.141,15.327 7.07,22.723 h -5.675 c -0.903,-6.548 -2.907,-13.443 -6.4,-20.11 -1.183,-2.26 -2.003,-4.645 -2.514,-7.134 m -23.147,0 h 5.648 c 0.101,9.155 1.23,18.289 3.457,27.244 h -5.816 c -2.116,-8.965 -3.192,-18.094 -3.289,-27.244 m -7.846,0 h 5.661 c 0.059,4.439 0.375,8.935 0.677,13.256 0.348,4.954 0.679,9.695 0.604,13.988 h -5.649 c 0.068,-4.05 -0.258,-8.714 -0.602,-13.612 -0.311,-4.43 -0.633,-9.036 -0.691,-13.632 m -16.744,0 h 5.674 c -0.149,4.1 -0.228,8.577 -0.228,13.49 0,2.237 -0.195,5.155 -0.407,8.323 -0.117,1.754 -0.239,3.593 -0.337,5.431 h -5.662 c 0.097,-1.974 0.228,-3.934 0.353,-5.808 0.199,-2.995 0.384,-5.754 0.384,-7.946 0,-4.891 0.077,-9.371 0.223,-13.49 m -10.617,0 h 5.668 c -0.284,4.677 -0.887,9.141 -1.962,13.256 -1.37,5.247 -2.711,9.893 -4.027,13.988 h -5.792 c 1.342,-4.318 2.787,-9.424 4.349,-15.405 0.949,-3.63 1.495,-7.618 1.764,-11.839 m -42.169,0 c 0.507,4.716 1.52,9.313 3.146,13.768 1.037,2.841 1.556,4.28 2.069,5.703 0.96,2.661 1.9,5.266 2.83,7.773 h 6.017 c -1.143,-3.056 -2.32,-6.317 -3.532,-9.677 -0.843,-2.339 -1.703,-4.721 -2.069,-5.725 -1.391,-3.809 -2.283,-7.764 -2.76,-11.842 z m -12.249,0 h 5.731 c 0.728,3.648 1.964,6.862 3.865,9.492 3.58,4.953 5.385,11.107 6.006,17.752 h -5.67 c -0.573,-5.503 -2.071,-10.509 -4.921,-14.453 -2.6,-3.598 -4.177,-7.935 -5.011,-12.791 m -6.642,0 h 0.971 l -0.953,2.221 c -3.134,7.288 -6.36,14.792 -8.638,23.84 -1.852,-0.519 -3.637,-1.199 -5.34,-2.027 2.352,-9.112 5.608,-16.686 8.774,-24.05 0.335,-0.779 0.669,-1.556 1.001,-2.333 0.867,1.407 2.421,2.349 4.185,2.349"
           style="fill:#c4976a;fill-opacity:1;fill-rule:evenodd;stroke:none"
           id="path26423" /><path
           d="M 89.867,333.162 V 316.45 c 2.844,-6.739 6.649,-14.114 12.571,-23.398 5.164,-8.094 5.603,-20.933 3.597,-34.526 -2.726,-18.47 -9.962,-38.08 -16.168,-49.521 v -39.813 c 4.708,12.083 4.117,20.488 3.664,26.915 v 0.011 c -0.276,3.909 -0.49,6.965 0.797,9.273 6.568,11.763 14.413,32.692 17.309,52.316 2.182,14.785 1.563,28.972 -4.438,38.379 -10.079,15.8 -13.812,25.922 -17.332,37.076 m 151.569,10.968 h 5.8 c 0.407,1.582 0.971,3.093 1.719,4.521 3.94,7.519 6.141,15.327 7.07,22.723 h -5.675 c -0.903,-6.548 -2.907,-13.443 -6.4,-20.11 -1.183,-2.26 -2.003,-4.645 -2.514,-7.134 m -23.147,0 h 5.648 c 0.101,9.155 1.23,18.289 3.457,27.244 h -5.816 c -2.116,-8.965 -3.192,-18.094 -3.289,-27.244 m -7.846,0 h 5.661 c 0.059,4.439 0.375,8.935 0.677,13.256 0.348,4.954 0.679,9.695 0.604,13.988 h -5.649 c 0.068,-4.05 -0.258,-8.714 -0.602,-13.612 -0.311,-4.43 -0.633,-9.036 -0.691,-13.632 m -16.744,0 h 5.674 c -0.149,4.1 -0.228,8.577 -0.228,13.49 0,2.237 -0.195,5.155 -0.407,8.323 -0.117,1.754 -0.239,3.593 -0.337,5.431 h -5.662 c 0.097,-1.974 0.228,-3.934 0.353,-5.808 0.199,-2.995 0.384,-5.754 0.384,-7.946 0,-4.891 0.077,-9.371 0.223,-13.49 m -10.617,0 h 5.668 c -0.284,4.677 -0.887,9.141 -1.962,13.256 -1.37,5.247 -2.711,9.893 -4.027,13.988 h -5.792 c 1.342,-4.318 2.787,-9.424 4.349,-15.405 0.949,-3.63 1.495,-7.618 1.764,-11.839 m -42.169,0 c 0.507,4.716 1.52,9.313 3.146,13.768 1.037,2.841 1.556,4.28 2.069,5.703 0.96,2.661 1.9,5.266 2.83,7.773 h 6.017 c -1.143,-3.056 -2.32,-6.317 -3.532,-9.677 -0.843,-2.339 -1.703,-4.721 -2.069,-5.725 -1.391,-3.809 -2.283,-7.764 -2.76,-11.842 z m -12.249,0 h 5.731 c 0.728,3.648 1.964,6.862 3.865,9.492 3.58,4.953 5.385,11.107 6.006,17.752 h -5.67 c -0.573,-5.503 -2.071,-10.509 -4.921,-14.453 -2.6,-3.598 -4.177,-7.935 -5.011,-12.791 M 104.381,152.709 c -1.88,-0.329 -3.77,-0.625 -5.668,-0.9 l 0.1,5.025 c 0.117,5.959 0.247,12.512 0.422,19.738 0.183,7.519 2.157,20.736 4.783,33.819 2.584,12.874 5.813,25.687 8.606,32.894 1.663,4.291 3.151,8.371 4.486,12.267 v -16.448 c -2.494,-7.173 -5.273,-18.449 -7.555,-29.821 -2.569,-12.796 -4.497,-25.644 -4.672,-32.844 -0.179,-7.319 -0.306,-13.81 -0.423,-19.715 z m 17.641,191.421 h 0.971 l -0.953,2.221 c -3.134,7.288 -6.36,14.792 -8.638,23.84 -1.852,-0.519 -3.637,-1.199 -5.34,-2.027 2.352,-9.112 5.608,-16.686 8.774,-24.05 0.335,-0.779 0.669,-1.556 1.001,-2.333 0.867,1.407 2.421,2.349 4.185,2.349"
           style="fill:#d4aa7f;fill-opacity:1;fill-rule:evenodd;stroke:none"
           id="path26425" /><path
           d="m 117.11,300.066 h 166.865 v 12.3 H 117.11 Z"
           style="fill:#e6e6e6;fill-opacity:1;fill-rule:evenodd;stroke:none"
           id="path26427" /><path
           d="m 117.11,300.067 h 166.865 v 3.3 H 117.11 Z"
           style="fill:#d4d4d4;fill-opacity:1;fill-rule:evenodd;stroke:none"
           id="path26429" /><path
           d="m 117.11,308.918 h 166.865 v 2.775 H 117.11 Z"
           style="fill:#f0f0f0;fill-opacity:1;fill-rule:evenodd;stroke:none"
           id="path26431" /><path
           d="m 117.11,305.168 h 166.865 v 1.2 H 117.11 Z"
           style="fill:#cccccc;fill-opacity:1;fill-rule:evenodd;stroke:none"
           id="path26433" /><path
           d="m 272.095,326.018 v 0 c 4.373,0 7.95,-3.578 7.95,-7.951 v -24.6 c 0,-4.372 -3.577,-7.949 -7.95,-7.949 -4.372,0 -7.95,3.577 -7.95,7.949 v 24.6 c 0,4.373 3.578,7.951 7.95,7.951"
           style="fill:#7a4611;fill-opacity:1;fill-rule:evenodd;stroke:none"
           id="path26435" /><path
           d="m 266.779,287.568 c 1.136,3.187 1.972,7.315 1.155,13.519 -0.226,1.713 0.592,3.413 1.5,5.297 2.061,4.282 4.522,9.397 -1.334,18.549 -0.618,-0.362 -1.184,-0.805 -1.682,-1.314 5.077,-8.062 2.917,-12.551 1.105,-16.313 -1.05,-2.183 -1.999,-4.153 -1.69,-6.493 0.651,-4.944 0.17,-8.48 -0.648,-11.264 0.423,-0.742 0.963,-1.411 1.594,-1.981 m 9.944,36.953 c 0.622,-0.448 1.178,-0.983 1.648,-1.588 -0.51,-1.282 -1.103,-2.859 -1.65,-4.978 -0.95,-3.683 -1.408,-7.461 -1.23,-11.161 0.164,-3.401 0.868,-6.735 2.226,-9.865 0.897,-2.07 1.419,-4.324 1.663,-6.636 -0.456,-1.036 -1.126,-1.96 -1.954,-2.711 -0.058,2.979 -0.53,5.921 -1.653,8.509 -1.464,3.377 -2.223,6.96 -2.4,10.603 -0.188,3.912 0.294,7.901 1.297,11.785 0.672,2.605 1.386,4.381 1.957,5.803 z"
           style="fill:#6e3d0c;fill-opacity:1;fill-rule:evenodd;stroke:none"
           id="path26437" /><path
           d="m 272.095,326.018 c 4.373,0 7.95,-3.578 7.95,-7.951 v -24.6 c 0,-4.372 -3.577,-7.949 -7.95,-7.949 z"
           style="fill:#6e3d0c;fill-opacity:1;fill-rule:evenodd;stroke:none"
           id="path26439" /><path
           d="m 276.723,324.521 c 0.622,-0.448 1.178,-0.983 1.648,-1.588 -0.51,-1.282 -1.103,-2.859 -1.65,-4.978 -0.95,-3.683 -1.408,-7.461 -1.23,-11.161 0.164,-3.401 0.868,-6.735 2.226,-9.865 0.897,-2.07 1.419,-4.324 1.663,-6.636 -0.456,-1.036 -1.126,-1.96 -1.954,-2.711 -0.058,2.979 -0.53,5.921 -1.653,8.509 -1.464,3.377 -2.223,6.96 -2.4,10.603 -0.188,3.912 0.294,7.901 1.297,11.785 0.672,2.605 1.386,4.381 1.957,5.803 z"
           style="fill:#613408;fill-opacity:1;fill-rule:evenodd;stroke:none"
           id="path26441" /><path
           d="m 254.02,326.018 v 0 c 4.372,0 7.95,-3.578 7.95,-7.951 v -24.6 c 0,-4.372 -3.578,-7.949 -7.95,-7.949 -4.374,0 -7.951,3.577 -7.951,7.949 v 24.6 c 0,4.373 3.577,7.951 7.951,7.951"
           style="fill:#7a4611;fill-opacity:1;fill-rule:evenodd;stroke:none"
           id="path26443" /><path
           d="m 248.704,287.568 c 1.136,3.187 1.972,7.315 1.154,13.519 -0.225,1.713 0.593,3.413 1.5,5.297 2.062,4.282 4.522,9.397 -1.334,18.549 -0.618,-0.362 -1.183,-0.805 -1.681,-1.314 5.076,-8.062 2.916,-12.551 1.105,-16.313 -1.051,-2.183 -2,-4.153 -1.691,-6.493 0.652,-4.944 0.171,-8.48 -0.648,-11.264 0.424,-0.742 0.964,-1.411 1.595,-1.981 m 9.943,36.953 c 0.623,-0.448 1.178,-0.983 1.649,-1.588 -0.51,-1.282 -1.105,-2.859 -1.651,-4.978 -0.951,-3.683 -1.409,-7.461 -1.23,-11.161 0.165,-3.401 0.869,-6.735 2.226,-9.865 0.897,-2.07 1.42,-4.324 1.663,-6.636 -0.455,-1.036 -1.126,-1.96 -1.954,-2.711 -0.057,2.979 -0.531,5.921 -1.653,8.509 -1.464,3.377 -2.223,6.96 -2.399,10.603 -0.19,3.912 0.294,7.901 1.296,11.785 0.673,2.605 1.385,4.381 1.958,5.803 z"
           style="fill:#6e3d0c;fill-opacity:1;fill-rule:evenodd;stroke:none"
           id="path26445" /><path
           d="m 254.02,326.018 c 4.372,0 7.95,-3.578 7.95,-7.951 v -24.6 c 0,-4.372 -3.578,-7.949 -7.95,-7.949 z"
           style="fill:#6e3d0c;fill-opacity:1;fill-rule:evenodd;stroke:none"
           id="path26447" /><path
           d="m 258.647,324.521 c 0.623,-0.448 1.178,-0.983 1.649,-1.588 -0.51,-1.282 -1.105,-2.859 -1.651,-4.978 -0.951,-3.683 -1.409,-7.461 -1.23,-11.161 0.165,-3.401 0.869,-6.735 2.226,-9.865 0.897,-2.07 1.42,-4.324 1.663,-6.636 -0.455,-1.036 -1.126,-1.96 -1.954,-2.711 -0.057,2.979 -0.531,5.921 -1.653,8.509 -1.464,3.377 -2.223,6.96 -2.399,10.603 -0.19,3.912 0.294,7.901 1.296,11.785 0.673,2.605 1.385,4.381 1.958,5.803 z"
           style="fill:#613408;fill-opacity:1;fill-rule:evenodd;stroke:none"
           id="path26449" /><path
           d="m 235.837,326.018 v 0 c 4.373,0 7.95,-3.578 7.95,-7.951 v -24.6 c 0,-4.372 -3.577,-7.949 -7.95,-7.949 -4.372,0 -7.949,3.577 -7.949,7.949 v 24.6 c 0,4.373 3.577,7.951 7.949,7.951"
           style="fill:#302f2e;fill-opacity:1;fill-rule:evenodd;stroke:none"
           id="path26451" /><path
           d="m 230.522,287.568 c 1.135,3.187 1.972,7.315 1.154,13.519 -0.226,1.713 0.594,3.413 1.5,5.297 2.061,4.282 4.522,9.397 -1.334,18.549 -0.617,-0.362 -1.184,-0.805 -1.682,-1.314 5.077,-8.062 2.917,-12.551 1.106,-16.313 -1.051,-2.183 -1.999,-4.153 -1.691,-6.493 0.652,-4.944 0.171,-8.48 -0.648,-11.264 0.424,-0.742 0.965,-1.411 1.595,-1.981 m 9.943,36.953 c 0.623,-0.448 1.179,-0.983 1.648,-1.588 -0.509,-1.282 -1.103,-2.859 -1.65,-4.978 -0.95,-3.683 -1.408,-7.461 -1.23,-11.161 0.164,-3.401 0.869,-6.735 2.226,-9.865 0.897,-2.07 1.419,-4.324 1.663,-6.636 -0.455,-1.036 -1.126,-1.96 -1.954,-2.711 -0.058,2.979 -0.53,5.921 -1.652,8.509 -1.465,3.377 -2.224,6.96 -2.4,10.603 -0.189,3.912 0.294,7.901 1.296,11.785 0.672,2.605 1.386,4.381 1.957,5.803 z"
           style="fill:#262525;fill-opacity:1;fill-rule:evenodd;stroke:none"
           id="path26453" /><path
           d="m 235.837,326.018 c 4.373,0 7.95,-3.578 7.95,-7.951 v -24.6 c 0,-4.372 -3.577,-7.949 -7.95,-7.949 z"
           style="fill:#262525;fill-opacity:1;fill-rule:evenodd;stroke:none"
           id="path26455" /><path
           d="m 240.465,324.521 c 0.623,-0.448 1.179,-0.983 1.648,-1.588 -0.509,-1.282 -1.103,-2.859 -1.65,-4.978 -0.95,-3.683 -1.408,-7.461 -1.23,-11.161 0.164,-3.401 0.869,-6.735 2.226,-9.865 0.897,-2.07 1.419,-4.324 1.663,-6.636 -0.455,-1.036 -1.126,-1.96 -1.954,-2.711 -0.058,2.979 -0.53,5.921 -1.652,8.509 -1.465,3.377 -2.224,6.96 -2.4,10.603 -0.189,3.912 0.294,7.901 1.296,11.785 0.672,2.605 1.386,4.381 1.957,5.803 z"
           style="fill:#1c1b1b;fill-opacity:1;fill-rule:evenodd;stroke:none"
           id="path26457" /><path
           d="m 217.762,326.018 v 0 c 4.373,0 7.95,-3.578 7.95,-7.951 v -24.6 c 0,-4.372 -3.577,-7.949 -7.95,-7.949 -4.373,0 -7.95,3.577 -7.95,7.949 v 24.6 c 0,4.373 3.577,7.951 7.95,7.951"
           style="fill:#7a4611;fill-opacity:1;fill-rule:evenodd;stroke:none"
           id="path26459" /><path
           d="m 212.446,287.568 c 1.136,3.187 1.972,7.315 1.155,13.519 -0.226,1.713 0.592,3.413 1.5,5.297 2.061,4.282 4.522,9.397 -1.334,18.549 -0.619,-0.362 -1.184,-0.805 -1.682,-1.314 5.076,-8.062 2.917,-12.551 1.105,-16.313 -1.05,-2.183 -1.999,-4.153 -1.691,-6.493 0.652,-4.944 0.171,-8.48 -0.647,-11.264 0.423,-0.742 0.963,-1.411 1.594,-1.981 m 9.944,36.953 c 0.622,-0.448 1.177,-0.983 1.648,-1.588 -0.51,-1.282 -1.104,-2.859 -1.65,-4.978 -0.95,-3.683 -1.409,-7.461 -1.231,-11.161 0.165,-3.401 0.869,-6.735 2.227,-9.865 0.897,-2.07 1.419,-4.324 1.662,-6.636 -0.455,-1.036 -1.125,-1.96 -1.954,-2.711 -0.057,2.979 -0.53,5.921 -1.653,8.509 -1.463,3.377 -2.223,6.96 -2.399,10.603 -0.189,3.912 0.294,7.901 1.296,11.785 0.673,2.605 1.387,4.381 1.958,5.803 z"
           style="fill:#6e3d0c;fill-opacity:1;fill-rule:evenodd;stroke:none"
           id="path26461" /><path
           d="m 217.762,326.018 c 4.373,0 7.95,-3.578 7.95,-7.951 v -24.6 c 0,-4.372 -3.577,-7.949 -7.95,-7.949 z"
           style="fill:#6e3d0c;fill-opacity:1;fill-rule:evenodd;stroke:none"
           id="path26463" /><path
           d="m 222.39,324.521 c 0.622,-0.448 1.177,-0.983 1.648,-1.588 -0.51,-1.282 -1.104,-2.859 -1.65,-4.978 -0.95,-3.683 -1.409,-7.461 -1.231,-11.161 0.165,-3.401 0.869,-6.735 2.227,-9.865 0.897,-2.07 1.419,-4.324 1.662,-6.636 -0.455,-1.036 -1.125,-1.96 -1.954,-2.711 -0.057,2.979 -0.53,5.921 -1.653,8.509 -1.463,3.377 -2.223,6.96 -2.399,10.603 -0.189,3.912 0.294,7.901 1.296,11.785 0.673,2.605 1.387,4.381 1.958,5.803 z"
           style="fill:#613408;fill-opacity:1;fill-rule:evenodd;stroke:none"
           id="path26465" /><path
           d="m 200.055,326.018 v 0 c 4.373,0 7.95,-3.578 7.95,-7.951 v -24.6 c 0,-4.372 -3.577,-7.949 -7.95,-7.949 -4.372,0 -7.95,3.577 -7.95,7.949 v 24.6 c 0,4.373 3.578,7.951 7.95,7.951"
           style="fill:#7a4611;fill-opacity:1;fill-rule:evenodd;stroke:none"
           id="path26467" /><path
           d="m 194.74,287.568 c 1.135,3.187 1.971,7.315 1.154,13.519 -0.226,1.713 0.593,3.413 1.5,5.297 2.061,4.282 4.522,9.397 -1.334,18.549 -0.618,-0.362 -1.184,-0.805 -1.682,-1.314 5.077,-8.062 2.917,-12.551 1.105,-16.313 -1.05,-2.183 -1.999,-4.153 -1.69,-6.493 0.651,-4.944 0.171,-8.48 -0.648,-11.264 0.423,-0.742 0.963,-1.411 1.595,-1.981 m 9.943,36.953 c 0.622,-0.448 1.178,-0.983 1.648,-1.588 -0.51,-1.282 -1.103,-2.859 -1.65,-4.978 -0.951,-3.683 -1.409,-7.461 -1.23,-11.161 0.164,-3.401 0.868,-6.735 2.226,-9.865 0.897,-2.07 1.419,-4.324 1.663,-6.636 -0.456,-1.036 -1.126,-1.96 -1.954,-2.711 -0.058,2.979 -0.531,5.921 -1.653,8.509 -1.464,3.377 -2.223,6.96 -2.4,10.603 -0.188,3.912 0.294,7.901 1.297,11.785 0.672,2.605 1.386,4.381 1.957,5.803 z"
           style="fill:#6e3d0c;fill-opacity:1;fill-rule:evenodd;stroke:none"
           id="path26469" /><path
           d="m 200.055,326.018 c 4.373,0 7.95,-3.578 7.95,-7.951 v -24.6 c 0,-4.372 -3.577,-7.949 -7.95,-7.949 z"
           style="fill:#6e3d0c;fill-opacity:1;fill-rule:evenodd;stroke:none"
           id="path26471" /><path
           d="m 204.683,324.521 c 0.622,-0.448 1.178,-0.983 1.648,-1.588 -0.51,-1.282 -1.103,-2.859 -1.65,-4.978 -0.951,-3.683 -1.409,-7.461 -1.23,-11.161 0.164,-3.401 0.868,-6.735 2.226,-9.865 0.897,-2.07 1.419,-4.324 1.663,-6.636 -0.456,-1.036 -1.126,-1.96 -1.954,-2.711 -0.058,2.979 -0.531,5.921 -1.653,8.509 -1.464,3.377 -2.223,6.96 -2.4,10.603 -0.188,3.912 0.294,7.901 1.297,11.785 0.672,2.605 1.386,4.381 1.957,5.803 z"
           style="fill:#613408;fill-opacity:1;fill-rule:evenodd;stroke:none"
           id="path26473" /><path
           d="m 117.11,261.386 h 166.864 v -12.3 H 117.11 Z"
           style="fill:#e6e6e6;fill-opacity:1;fill-rule:evenodd;stroke:none"
           id="path26475" /><path
           d="m 117.11,252.386 h 166.864 v -3.3 H 117.11 Z"
           style="fill:#d4d4d4;fill-opacity:1;fill-rule:evenodd;stroke:none"
           id="path26477" /><path
           d="m 117.11,260.712 h 166.864 v -2.775 H 117.11 Z"
           style="fill:#f0f0f0;fill-opacity:1;fill-rule:evenodd;stroke:none"
           id="path26479" /><path
           d="m 117.11,255.387 h 166.864 v -1.2 H 117.11 Z"
           style="fill:#cccccc;fill-opacity:1;fill-rule:evenodd;stroke:none"
           id="path26481" /><path
           d="m 272.095,275.037 v 0 c 4.373,0 7.95,-3.578 7.95,-7.95 v -24.6 c 0,-4.373 -3.577,-7.95 -7.95,-7.95 -4.372,0 -7.95,3.577 -7.95,7.95 v 24.6 c 0,4.372 3.578,7.95 7.95,7.95"
           style="fill:#7a4611;fill-opacity:1;fill-rule:evenodd;stroke:none"
           id="path26483" /><path
           d="m 266.779,236.588 c 1.136,3.186 1.972,7.314 1.155,13.518 -0.226,1.713 0.592,3.414 1.5,5.298 2.061,4.281 4.522,9.396 -1.334,18.548 -0.618,-0.362 -1.184,-0.805 -1.682,-1.314 5.077,-8.061 2.917,-12.55 1.105,-16.312 -1.05,-2.183 -1.999,-4.153 -1.69,-6.493 0.651,-4.945 0.17,-8.48 -0.648,-11.264 0.423,-0.743 0.963,-1.411 1.594,-1.981 m 9.944,36.953 c 0.622,-0.448 1.178,-0.984 1.648,-1.589 -0.51,-1.281 -1.103,-2.859 -1.65,-4.977 -0.95,-3.683 -1.408,-7.461 -1.23,-11.162 0.164,-3.401 0.868,-6.735 2.226,-9.864 0.897,-2.07 1.419,-4.324 1.663,-6.636 -0.456,-1.037 -1.126,-1.96 -1.954,-2.711 -0.058,2.978 -0.53,5.921 -1.653,8.508 -1.464,3.377 -2.223,6.96 -2.4,10.604 -0.188,3.912 0.294,7.901 1.297,11.784 0.672,2.605 1.386,4.381 1.957,5.804 0.032,0.079 0.063,0.159 0.096,0.239"
           style="fill:#6e3d0c;fill-opacity:1;fill-rule:evenodd;stroke:none"
           id="path26485" /><path
           d="m 272.095,275.037 c 4.373,0 7.95,-3.578 7.95,-7.95 v -24.6 c 0,-4.373 -3.577,-7.95 -7.95,-7.95 z"
           style="fill:#6e3d0c;fill-opacity:1;fill-rule:evenodd;stroke:none"
           id="path26487" /><path
           d="m 276.723,273.541 c 0.622,-0.448 1.178,-0.984 1.648,-1.589 -0.51,-1.281 -1.103,-2.859 -1.65,-4.977 -0.95,-3.683 -1.408,-7.461 -1.23,-11.162 0.164,-3.401 0.868,-6.735 2.226,-9.864 0.897,-2.07 1.419,-4.324 1.663,-6.636 -0.456,-1.037 -1.126,-1.96 -1.954,-2.711 -0.058,2.978 -0.53,5.921 -1.653,8.508 -1.464,3.377 -2.223,6.96 -2.4,10.604 -0.188,3.912 0.294,7.901 1.297,11.784 0.672,2.605 1.386,4.381 1.957,5.804 0.032,0.079 0.063,0.159 0.096,0.239"
           style="fill:#613408;fill-opacity:1;fill-rule:evenodd;stroke:none"
           id="path26489" /><path
           d="m 254.02,275.037 v 0 c 4.372,0 7.95,-3.578 7.95,-7.95 v -24.6 c 0,-4.373 -3.578,-7.95 -7.95,-7.95 -4.374,0 -7.951,3.577 -7.951,7.95 v 24.6 c 0,4.372 3.577,7.95 7.951,7.95"
           style="fill:#7a4611;fill-opacity:1;fill-rule:evenodd;stroke:none"
           id="path26491" /><path
           d="m 248.704,236.588 c 1.136,3.186 1.972,7.314 1.154,13.518 -0.225,1.713 0.593,3.414 1.5,5.298 2.062,4.281 4.522,9.396 -1.334,18.548 -0.618,-0.362 -1.183,-0.805 -1.681,-1.314 5.076,-8.061 2.916,-12.55 1.105,-16.312 -1.051,-2.183 -2,-4.153 -1.691,-6.493 0.652,-4.945 0.171,-8.48 -0.648,-11.264 0.424,-0.743 0.964,-1.411 1.595,-1.981 m 9.943,36.953 c 0.623,-0.448 1.178,-0.984 1.649,-1.589 -0.51,-1.281 -1.105,-2.859 -1.651,-4.977 -0.951,-3.683 -1.409,-7.461 -1.23,-11.162 0.165,-3.401 0.869,-6.735 2.226,-9.864 0.897,-2.07 1.42,-4.324 1.663,-6.636 -0.455,-1.037 -1.126,-1.96 -1.954,-2.711 -0.057,2.978 -0.531,5.921 -1.653,8.508 -1.464,3.377 -2.223,6.96 -2.399,10.604 -0.19,3.912 0.294,7.901 1.296,11.784 0.673,2.605 1.385,4.381 1.958,5.804 0.031,0.079 0.063,0.159 0.095,0.239"
           style="fill:#6e3d0c;fill-opacity:1;fill-rule:evenodd;stroke:none"
           id="path26493" /><path
           d="m 254.02,275.037 c 4.372,0 7.95,-3.578 7.95,-7.95 v -24.6 c 0,-4.373 -3.578,-7.95 -7.95,-7.95 z"
           style="fill:#6e3d0c;fill-opacity:1;fill-rule:evenodd;stroke:none"
           id="path26495" /><path
           d="m 258.647,273.541 c 0.623,-0.448 1.178,-0.984 1.649,-1.589 -0.51,-1.281 -1.105,-2.859 -1.651,-4.977 -0.951,-3.683 -1.409,-7.461 -1.23,-11.162 0.165,-3.401 0.869,-6.735 2.226,-9.864 0.897,-2.07 1.42,-4.324 1.663,-6.636 -0.455,-1.037 -1.126,-1.96 -1.954,-2.711 -0.057,2.978 -0.531,5.921 -1.653,8.508 -1.464,3.377 -2.223,6.96 -2.399,10.604 -0.19,3.912 0.294,7.901 1.296,11.784 0.673,2.605 1.385,4.381 1.958,5.804 0.031,0.079 0.063,0.159 0.095,0.239"
           style="fill:#613408;fill-opacity:1;fill-rule:evenodd;stroke:none"
           id="path26497" /><path
           d="m 235.837,275.037 v 0 c 4.373,0 7.95,-3.578 7.95,-7.95 v -24.6 c 0,-4.373 -3.577,-7.95 -7.95,-7.95 -4.372,0 -7.949,3.577 -7.949,7.95 v 24.6 c 0,4.372 3.577,7.95 7.949,7.95"
           style="fill:#302f2e;fill-opacity:1;fill-rule:evenodd;stroke:none"
           id="path26499" /><path
           d="m 230.522,236.588 c 1.135,3.186 1.972,7.314 1.154,13.518 -0.226,1.713 0.594,3.414 1.5,5.298 2.061,4.281 4.522,9.396 -1.334,18.548 -0.617,-0.362 -1.184,-0.805 -1.682,-1.314 5.077,-8.061 2.917,-12.55 1.106,-16.312 -1.051,-2.183 -1.999,-4.153 -1.691,-6.493 0.652,-4.945 0.171,-8.48 -0.648,-11.264 0.424,-0.743 0.965,-1.411 1.595,-1.981 m 9.943,36.953 c 0.623,-0.448 1.179,-0.984 1.648,-1.589 -0.509,-1.281 -1.103,-2.859 -1.65,-4.977 -0.95,-3.683 -1.408,-7.461 -1.23,-11.162 0.164,-3.401 0.869,-6.735 2.226,-9.864 0.897,-2.07 1.419,-4.324 1.663,-6.636 -0.455,-1.037 -1.126,-1.96 -1.954,-2.711 -0.058,2.978 -0.53,5.921 -1.652,8.508 -1.465,3.377 -2.224,6.96 -2.4,10.604 -0.189,3.912 0.294,7.901 1.296,11.784 0.672,2.605 1.386,4.381 1.957,5.804 0.032,0.079 0.065,0.159 0.096,0.239"
           style="fill:#262525;fill-opacity:1;fill-rule:evenodd;stroke:none"
           id="path26501" /><path
           d="m 235.837,275.037 c 4.373,0 7.95,-3.578 7.95,-7.95 v -24.6 c 0,-4.373 -3.577,-7.95 -7.95,-7.95 z"
           style="fill:#262525;fill-opacity:1;fill-rule:evenodd;stroke:none"
           id="path26503" /><path
           d="m 240.465,273.541 c 0.623,-0.448 1.179,-0.984 1.648,-1.589 -0.509,-1.281 -1.103,-2.859 -1.65,-4.977 -0.95,-3.683 -1.408,-7.461 -1.23,-11.162 0.164,-3.401 0.869,-6.735 2.226,-9.864 0.897,-2.07 1.419,-4.324 1.663,-6.636 -0.455,-1.037 -1.126,-1.96 -1.954,-2.711 -0.058,2.978 -0.53,5.921 -1.652,8.508 -1.465,3.377 -2.224,6.96 -2.4,10.604 -0.189,3.912 0.294,7.901 1.296,11.784 0.672,2.605 1.386,4.381 1.957,5.804 0.032,0.079 0.065,0.159 0.096,0.239"
           style="fill:#1c1b1b;fill-opacity:1;fill-rule:evenodd;stroke:none"
           id="path26505" /><path
           d="m 217.762,275.037 v 0 c 4.373,0 7.95,-3.578 7.95,-7.95 v -24.6 c 0,-4.373 -3.577,-7.95 -7.95,-7.95 -4.373,0 -7.95,3.577 -7.95,7.95 v 24.6 c 0,4.372 3.577,7.95 7.95,7.95"
           style="fill:#7a4611;fill-opacity:1;fill-rule:evenodd;stroke:none"
           id="path26507" /><path
           d="m 212.446,236.588 c 1.136,3.186 1.972,7.314 1.155,13.518 -0.226,1.713 0.592,3.414 1.5,5.298 2.061,4.281 4.522,9.396 -1.334,18.548 -0.619,-0.362 -1.184,-0.805 -1.682,-1.314 5.076,-8.061 2.917,-12.55 1.105,-16.312 -1.05,-2.183 -1.999,-4.153 -1.691,-6.493 0.652,-4.945 0.171,-8.48 -0.647,-11.264 0.423,-0.743 0.963,-1.411 1.594,-1.981 m 9.944,36.953 c 0.622,-0.448 1.177,-0.984 1.648,-1.589 -0.51,-1.281 -1.104,-2.859 -1.65,-4.977 -0.95,-3.683 -1.409,-7.461 -1.231,-11.162 0.165,-3.401 0.869,-6.735 2.227,-9.864 0.897,-2.07 1.419,-4.324 1.662,-6.636 -0.455,-1.037 -1.125,-1.96 -1.954,-2.711 -0.057,2.978 -0.53,5.921 -1.653,8.508 -1.463,3.377 -2.223,6.96 -2.399,10.604 -0.189,3.912 0.294,7.901 1.296,11.784 0.673,2.605 1.387,4.381 1.958,5.804 0.031,0.079 0.063,0.159 0.096,0.239"
           style="fill:#6e3d0c;fill-opacity:1;fill-rule:evenodd;stroke:none"
           id="path26509" /><path
           d="m 217.762,275.037 c 4.373,0 7.95,-3.578 7.95,-7.95 v -24.6 c 0,-4.373 -3.577,-7.95 -7.95,-7.95 z"
           style="fill:#6e3d0c;fill-opacity:1;fill-rule:evenodd;stroke:none"
           id="path26511" /><path
           d="m 222.39,273.541 c 0.622,-0.448 1.177,-0.984 1.648,-1.589 -0.51,-1.281 -1.104,-2.859 -1.65,-4.977 -0.95,-3.683 -1.409,-7.461 -1.231,-11.162 0.165,-3.401 0.869,-6.735 2.227,-9.864 0.897,-2.07 1.419,-4.324 1.662,-6.636 -0.455,-1.037 -1.125,-1.96 -1.954,-2.711 -0.057,2.978 -0.53,5.921 -1.653,8.508 -1.463,3.377 -2.223,6.96 -2.399,10.604 -0.189,3.912 0.294,7.901 1.296,11.784 0.673,2.605 1.387,4.381 1.958,5.804 0.031,0.079 0.063,0.159 0.096,0.239"
           style="fill:#613408;fill-opacity:1;fill-rule:evenodd;stroke:none"
           id="path26513" /><path
           d="m 200.056,275.037 v 0 c 4.372,0 7.95,-3.578 7.95,-7.95 v -24.6 c 0,-4.373 -3.578,-7.95 -7.95,-7.95 -4.373,0 -7.951,3.577 -7.951,7.95 v 24.6 c 0,4.372 3.578,7.95 7.951,7.95"
           style="fill:#7a4611;fill-opacity:1;fill-rule:evenodd;stroke:none"
           id="path26515" /><path
           d="m 194.74,236.588 c 1.136,3.186 1.972,7.314 1.155,13.518 -0.227,1.713 0.592,3.414 1.499,5.298 2.061,4.281 4.522,9.396 -1.333,18.548 -0.619,-0.362 -1.185,-0.805 -1.682,-1.314 5.076,-8.061 2.916,-12.55 1.105,-16.312 -1.05,-2.183 -2,-4.153 -1.691,-6.493 0.651,-4.945 0.171,-8.48 -0.647,-11.264 0.422,-0.743 0.963,-1.411 1.594,-1.981 m 9.944,36.953 c 0.622,-0.448 1.177,-0.984 1.648,-1.589 -0.51,-1.281 -1.104,-2.859 -1.651,-4.977 -0.951,-3.683 -1.409,-7.461 -1.23,-11.162 0.164,-3.401 0.868,-6.735 2.226,-9.864 0.897,-2.07 1.419,-4.324 1.663,-6.636 -0.455,-1.037 -1.126,-1.96 -1.954,-2.711 -0.057,2.978 -0.531,5.921 -1.653,8.508 -1.464,3.377 -2.223,6.96 -2.399,10.604 -0.189,3.912 0.294,7.901 1.296,11.784 0.672,2.605 1.386,4.381 1.957,5.804 z"
           style="fill:#6e3d0c;fill-opacity:1;fill-rule:evenodd;stroke:none"
           id="path26517" /><path
           d="m 200.055,275.037 c 4.373,0 7.95,-3.578 7.95,-7.95 v -24.6 c 0,-4.373 -3.577,-7.95 -7.95,-7.95 z"
           style="fill:#6e3d0c;fill-opacity:1;fill-rule:evenodd;stroke:none"
           id="path26519" /><path
           d="m 204.683,273.541 c 0.622,-0.448 1.178,-0.984 1.648,-1.589 -0.51,-1.281 -1.103,-2.859 -1.65,-4.977 -0.951,-3.683 -1.409,-7.461 -1.23,-11.162 0.164,-3.401 0.868,-6.735 2.226,-9.864 0.897,-2.07 1.419,-4.324 1.663,-6.636 -0.456,-1.037 -1.126,-1.96 -1.954,-2.711 -0.058,2.978 -0.531,5.921 -1.653,8.508 -1.464,3.377 -2.223,6.96 -2.4,10.604 -0.188,3.912 0.294,7.901 1.297,11.784 0.672,2.605 1.386,4.381 1.957,5.804 0.032,0.079 0.063,0.159 0.096,0.239"
           style="fill:#613408;fill-opacity:1;fill-rule:evenodd;stroke:none"
           id="path26521" /><path
           d="m 117.11,210.405 h 166.864 v -12.3 H 117.11 Z"
           style="fill:#e6e6e6;fill-opacity:1;fill-rule:evenodd;stroke:none"
           id="path26523" /><path
           d="m 117.11,201.405 h 166.864 v -3.3 H 117.11 Z"
           style="fill:#d4d4d4;fill-opacity:1;fill-rule:evenodd;stroke:none"
           id="path26525" /><path
           d="m 117.11,209.731 h 166.864 v -2.774 H 117.11 Z"
           style="fill:#f0f0f0;fill-opacity:1;fill-rule:evenodd;stroke:none"
           id="path26527" /><path
           d="m 117.11,204.406 h 166.864 v -1.2 H 117.11 Z"
           style="fill:#cccccc;fill-opacity:1;fill-rule:evenodd;stroke:none"
           id="path26529" /><path
           d="m 272.095,224.056 v 0 c 4.373,0 7.95,-3.577 7.95,-7.951 v -24.599 c 0,-4.373 -3.577,-7.949 -7.95,-7.949 -4.372,0 -7.95,3.576 -7.95,7.949 v 24.599 c 0,4.374 3.578,7.951 7.95,7.951"
           style="fill:#7a4611;fill-opacity:1;fill-rule:evenodd;stroke:none"
           id="path26531" /><path
           d="m 266.779,185.607 c 1.136,3.186 1.972,7.314 1.155,13.518 -0.226,1.713 0.592,3.414 1.5,5.298 2.061,4.281 4.522,9.396 -1.334,18.549 -0.618,-0.363 -1.184,-0.805 -1.682,-1.315 5.077,-8.061 2.917,-12.55 1.105,-16.312 -1.05,-2.183 -1.999,-4.154 -1.69,-6.493 0.651,-4.945 0.17,-8.48 -0.648,-11.264 0.423,-0.742 0.963,-1.411 1.594,-1.981 m 9.944,36.953 c 0.622,-0.448 1.178,-0.984 1.648,-1.588 -0.51,-1.282 -1.103,-2.86 -1.65,-4.978 -0.95,-3.683 -1.408,-7.461 -1.23,-11.162 0.164,-3.4 0.868,-6.734 2.226,-9.864 0.897,-2.07 1.419,-4.324 1.663,-6.636 -0.456,-1.037 -1.126,-1.959 -1.954,-2.711 -0.058,2.979 -0.53,5.921 -1.653,8.508 -1.464,3.377 -2.223,6.961 -2.4,10.603 -0.188,3.913 0.294,7.902 1.297,11.786 0.672,2.605 1.386,4.38 1.957,5.803 0.032,0.079 0.063,0.159 0.096,0.239"
           style="fill:#6e3d0c;fill-opacity:1;fill-rule:evenodd;stroke:none"
           id="path26533" /><path
           d="m 272.095,224.056 c 4.373,0 7.95,-3.577 7.95,-7.951 v -24.599 c 0,-4.373 -3.577,-7.949 -7.95,-7.949 z"
           style="fill:#6e3d0c;fill-opacity:1;fill-rule:evenodd;stroke:none"
           id="path26535" /><path
           d="m 276.723,222.56 c 0.622,-0.448 1.178,-0.984 1.648,-1.588 -0.51,-1.282 -1.103,-2.86 -1.65,-4.978 -0.95,-3.683 -1.408,-7.461 -1.23,-11.162 0.164,-3.4 0.868,-6.734 2.226,-9.864 0.897,-2.07 1.419,-4.324 1.663,-6.636 -0.456,-1.037 -1.126,-1.959 -1.954,-2.711 -0.058,2.979 -0.53,5.921 -1.653,8.508 -1.464,3.377 -2.223,6.961 -2.4,10.603 -0.188,3.913 0.294,7.902 1.297,11.786 0.672,2.605 1.386,4.38 1.957,5.803 0.032,0.079 0.063,0.159 0.096,0.239"
           style="fill:#613408;fill-opacity:1;fill-rule:evenodd;stroke:none"
           id="path26537" /><path
           d="m 254.02,224.056 v 0 c 4.372,0 7.95,-3.577 7.95,-7.951 v -24.599 c 0,-4.373 -3.578,-7.949 -7.95,-7.949 -4.374,0 -7.951,3.576 -7.951,7.949 v 24.599 c 0,4.374 3.577,7.951 7.951,7.951"
           style="fill:#7a4611;fill-opacity:1;fill-rule:evenodd;stroke:none"
           id="path26539" /><path
           d="m 248.704,185.607 c 1.136,3.186 1.972,7.314 1.154,13.518 -0.225,1.713 0.593,3.414 1.5,5.298 2.062,4.281 4.522,9.396 -1.334,18.549 -0.618,-0.363 -1.183,-0.805 -1.681,-1.315 5.076,-8.061 2.916,-12.55 1.105,-16.312 -1.051,-2.183 -2,-4.154 -1.691,-6.493 0.652,-4.945 0.171,-8.48 -0.648,-11.264 0.424,-0.742 0.964,-1.411 1.595,-1.981 m 9.943,36.953 c 0.623,-0.448 1.178,-0.984 1.649,-1.588 -0.51,-1.282 -1.105,-2.86 -1.651,-4.978 -0.951,-3.683 -1.409,-7.461 -1.23,-11.162 0.165,-3.4 0.869,-6.734 2.226,-9.864 0.897,-2.07 1.42,-4.324 1.663,-6.636 -0.455,-1.037 -1.126,-1.959 -1.954,-2.711 -0.057,2.979 -0.531,5.921 -1.653,8.508 -1.464,3.377 -2.223,6.961 -2.399,10.603 -0.19,3.913 0.294,7.902 1.296,11.786 0.673,2.605 1.385,4.38 1.958,5.803 0.031,0.079 0.063,0.159 0.095,0.239"
           style="fill:#6e3d0c;fill-opacity:1;fill-rule:evenodd;stroke:none"
           id="path26541" /><path
           d="m 254.02,224.056 c 4.372,0 7.95,-3.577 7.95,-7.951 v -24.599 c 0,-4.373 -3.578,-7.949 -7.95,-7.949 z"
           style="fill:#6e3d0c;fill-opacity:1;fill-rule:evenodd;stroke:none"
           id="path26543" /><path
           d="m 258.647,222.56 c 0.623,-0.448 1.178,-0.984 1.649,-1.588 -0.51,-1.282 -1.105,-2.86 -1.651,-4.978 -0.951,-3.683 -1.409,-7.461 -1.23,-11.162 0.165,-3.4 0.869,-6.734 2.226,-9.864 0.897,-2.07 1.42,-4.324 1.663,-6.636 -0.455,-1.037 -1.126,-1.959 -1.954,-2.711 -0.057,2.979 -0.531,5.921 -1.653,8.508 -1.464,3.377 -2.223,6.961 -2.399,10.603 -0.19,3.913 0.294,7.902 1.296,11.786 0.673,2.605 1.385,4.38 1.958,5.803 0.031,0.079 0.063,0.159 0.095,0.239"
           style="fill:#613408;fill-opacity:1;fill-rule:evenodd;stroke:none"
           id="path26545" /><path
           d="m 177.478,224.056 v 0 c 4.372,0 7.949,-3.577 7.949,-7.951 v -24.599 c 0,-4.373 -3.577,-7.949 -7.949,-7.949 -4.374,0 -7.951,3.576 -7.951,7.949 v 24.599 c 0,4.374 3.577,7.951 7.951,7.951"
           style="fill:#302f2e;fill-opacity:1;fill-rule:evenodd;stroke:none"
           id="path26547" /><path
           d="m 172.162,185.607 c 1.136,3.186 1.972,7.314 1.153,13.518 -0.225,1.713 0.594,3.414 1.5,5.298 2.062,4.281 4.523,9.396 -1.333,18.549 -0.618,-0.363 -1.184,-0.805 -1.682,-1.315 5.077,-8.061 2.917,-12.55 1.105,-16.312 -1.051,-2.183 -1.999,-4.154 -1.69,-6.493 0.651,-4.945 0.171,-8.48 -0.649,-11.264 0.424,-0.742 0.965,-1.411 1.596,-1.981 m 9.942,36.953 c 0.624,-0.448 1.179,-0.984 1.649,-1.588 -0.509,-1.282 -1.104,-2.86 -1.65,-4.978 -0.951,-3.683 -1.409,-7.461 -1.23,-11.162 0.164,-3.4 0.868,-6.734 2.226,-9.864 0.897,-2.07 1.419,-4.324 1.663,-6.636 -0.455,-1.037 -1.126,-1.959 -1.954,-2.711 -0.058,2.979 -0.531,5.921 -1.653,8.508 -1.465,3.377 -2.223,6.961 -2.399,10.603 -0.19,3.913 0.294,7.902 1.296,11.786 0.672,2.605 1.386,4.38 1.957,5.803 0.032,0.079 0.064,0.159 0.095,0.239"
           style="fill:#262525;fill-opacity:1;fill-rule:evenodd;stroke:none"
           id="path26549" /><path
           d="m 177.478,224.056 c 4.372,0 7.949,-3.577 7.949,-7.951 v -24.599 c 0,-4.373 -3.577,-7.949 -7.949,-7.949 z"
           style="fill:#262525;fill-opacity:1;fill-rule:evenodd;stroke:none"
           id="path26551" /><path
           d="m 182.104,222.56 c 0.624,-0.448 1.179,-0.984 1.649,-1.588 -0.509,-1.282 -1.104,-2.86 -1.65,-4.978 -0.951,-3.683 -1.409,-7.461 -1.23,-11.162 0.164,-3.4 0.868,-6.734 2.226,-9.864 0.897,-2.07 1.419,-4.324 1.663,-6.636 -0.455,-1.037 -1.126,-1.959 -1.954,-2.711 -0.058,2.979 -0.531,5.921 -1.653,8.508 -1.465,3.377 -2.223,6.961 -2.399,10.603 -0.19,3.913 0.294,7.902 1.296,11.786 0.672,2.605 1.386,4.38 1.957,5.803 0.032,0.079 0.064,0.159 0.095,0.239"
           style="fill:#1c1b1b;fill-opacity:1;fill-rule:evenodd;stroke:none"
           id="path26553" /><path
           d="m 159.401,224.056 v 0 c 4.373,0 7.951,-3.577 7.951,-7.951 v -24.599 c 0,-4.373 -3.578,-7.949 -7.951,-7.949 -4.372,0 -7.95,3.576 -7.95,7.949 v 24.599 c 0,4.374 3.578,7.951 7.95,7.951"
           style="fill:#7a4611;fill-opacity:1;fill-rule:evenodd;stroke:none"
           id="path26555" /><path
           d="m 154.086,185.607 c 1.136,3.186 1.972,7.314 1.154,13.518 -0.225,1.713 0.593,3.414 1.5,5.298 2.062,4.281 4.523,9.396 -1.334,18.549 -0.617,-0.363 -1.183,-0.805 -1.681,-1.315 5.076,-8.061 2.917,-12.55 1.105,-16.312 -1.051,-2.183 -1.999,-4.154 -1.691,-6.493 0.652,-4.945 0.171,-8.48 -0.648,-11.264 0.424,-0.742 0.964,-1.411 1.595,-1.981 m 9.943,36.953 c 0.622,-0.448 1.178,-0.984 1.649,-1.588 -0.51,-1.282 -1.105,-2.86 -1.651,-4.978 -0.95,-3.683 -1.409,-7.461 -1.23,-11.162 0.165,-3.4 0.869,-6.734 2.226,-9.864 0.898,-2.07 1.419,-4.324 1.663,-6.636 -0.456,-1.037 -1.125,-1.959 -1.955,-2.711 -0.056,2.979 -0.53,5.921 -1.651,8.508 -1.465,3.377 -2.225,6.961 -2.4,10.603 -0.19,3.913 0.294,7.902 1.296,11.786 0.672,2.605 1.386,4.38 1.958,5.803 0.031,0.079 0.063,0.159 0.095,0.239"
           style="fill:#6e3d0c;fill-opacity:1;fill-rule:evenodd;stroke:none"
           id="path26557" /><path
           d="m 159.401,224.056 c 4.373,0 7.951,-3.577 7.951,-7.951 v -24.599 c 0,-4.373 -3.578,-7.949 -7.951,-7.949 z"
           style="fill:#6e3d0c;fill-opacity:1;fill-rule:evenodd;stroke:none"
           id="path26559" /><path
           d="m 164.029,222.56 c 0.622,-0.448 1.178,-0.984 1.649,-1.588 -0.51,-1.282 -1.105,-2.86 -1.651,-4.978 -0.95,-3.683 -1.409,-7.461 -1.23,-11.162 0.165,-3.4 0.869,-6.734 2.226,-9.864 0.898,-2.07 1.419,-4.324 1.663,-6.636 -0.456,-1.037 -1.125,-1.959 -1.955,-2.711 -0.056,2.979 -0.53,5.921 -1.651,8.508 -1.465,3.377 -2.225,6.961 -2.4,10.603 -0.19,3.913 0.294,7.902 1.296,11.786 0.672,2.605 1.386,4.38 1.958,5.803 0.031,0.079 0.063,0.159 0.095,0.239"
           style="fill:#613408;fill-opacity:1;fill-rule:evenodd;stroke:none"
           id="path26561" /><path
           d="m 141.695,224.056 v 0 c 4.373,0 7.95,-3.577 7.95,-7.951 v -24.599 c 0,-4.373 -3.577,-7.949 -7.95,-7.949 -4.373,0 -7.95,3.576 -7.95,7.949 v 24.599 c 0,4.374 3.577,7.951 7.95,7.951"
           style="fill:#7a4611;fill-opacity:1;fill-rule:evenodd;stroke:none"
           id="path26563" /><path
           d="m 136.38,185.607 c 1.136,3.186 1.972,7.314 1.154,13.518 -0.226,1.713 0.593,3.414 1.5,5.298 2.061,4.281 4.522,9.396 -1.334,18.549 -0.618,-0.363 -1.184,-0.805 -1.682,-1.315 5.077,-8.061 2.917,-12.55 1.106,-16.312 -1.051,-2.183 -1.999,-4.154 -1.691,-6.493 0.651,-4.945 0.171,-8.48 -0.648,-11.264 0.423,-0.742 0.964,-1.411 1.595,-1.981 m 9.943,36.953 c 0.622,-0.448 1.178,-0.984 1.648,-1.588 -0.51,-1.282 -1.104,-2.86 -1.65,-4.978 -0.95,-3.683 -1.409,-7.461 -1.23,-11.162 0.164,-3.4 0.868,-6.734 2.226,-9.864 0.897,-2.07 1.419,-4.324 1.662,-6.636 -0.455,-1.037 -1.125,-1.959 -1.954,-2.711 -0.057,2.979 -0.53,5.921 -1.651,8.508 -1.465,3.377 -2.225,6.961 -2.4,10.603 -0.19,3.913 0.294,7.902 1.296,11.786 0.672,2.605 1.386,4.38 1.957,5.803 0.032,0.079 0.064,0.159 0.096,0.239"
           style="fill:#6e3d0c;fill-opacity:1;fill-rule:evenodd;stroke:none"
           id="path26565" /><path
           d="m 141.695,224.056 c 4.372,0 7.95,-3.577 7.95,-7.951 v -24.599 c 0,-4.373 -3.578,-7.949 -7.95,-7.949 z"
           style="fill:#6e3d0c;fill-opacity:1;fill-rule:evenodd;stroke:none"
           id="path26567" /><path
           d="m 146.323,222.56 c 0.622,-0.448 1.178,-0.984 1.648,-1.588 -0.51,-1.282 -1.104,-2.86 -1.651,-4.978 -0.95,-3.683 -1.408,-7.461 -1.229,-11.162 0.164,-3.4 0.868,-6.734 2.225,-9.864 0.898,-2.07 1.419,-4.324 1.663,-6.636 -0.455,-1.037 -1.125,-1.959 -1.954,-2.711 -0.057,2.979 -0.53,5.921 -1.652,8.508 -1.465,3.377 -2.224,6.961 -2.4,10.603 -0.189,3.913 0.294,7.902 1.296,11.786 0.672,2.605 1.386,4.38 1.958,5.803 0.032,0.079 0.064,0.159 0.096,0.239"
           style="fill:#613408;fill-opacity:1;fill-rule:evenodd;stroke:none"
           id="path26569" /><path
           d="m 117.11,147.125 h 166.865 v 12.3 H 117.11 Z"
           style="fill:#e6e6e6;fill-opacity:1;fill-rule:evenodd;stroke:none"
           id="path26571" /><path
           d="m 117.11,147.125 h 166.865 v 3.3 H 117.11 Z"
           style="fill:#d4d4d4;fill-opacity:1;fill-rule:evenodd;stroke:none"
           id="path26573" /><path
           d="m 117.11,155.976 h 166.865 v 2.775 H 117.11 Z"
           style="fill:#f0f0f0;fill-opacity:1;fill-rule:evenodd;stroke:none"
           id="path26575" /><path
           d="m 117.11,152.226 h 166.865 v 1.2 H 117.11 Z"
           style="fill:#cccccc;fill-opacity:1;fill-rule:evenodd;stroke:none"
           id="path26577" /><path
           d="m 272.095,173.075 v 0 c 4.373,0 7.95,-3.577 7.95,-7.949 v -24.601 c 0,-4.373 -3.577,-7.95 -7.95,-7.95 -4.372,0 -7.95,3.577 -7.95,7.95 v 24.601 c 0,4.372 3.578,7.949 7.95,7.949"
           style="fill:#7a4611;fill-opacity:1;fill-rule:evenodd;stroke:none"
           id="path26579" /><path
           d="m 266.779,134.627 c 1.136,3.186 1.972,7.313 1.155,13.518 -0.226,1.712 0.592,3.414 1.5,5.297 2.061,4.282 4.522,9.397 -1.334,18.549 -0.618,-0.362 -1.184,-0.805 -1.682,-1.314 5.077,-8.062 2.917,-12.551 1.105,-16.313 -1.05,-2.183 -1.999,-4.153 -1.69,-6.493 0.651,-4.944 0.17,-8.479 -0.648,-11.264 0.423,-0.742 0.963,-1.411 1.594,-1.98 m 9.944,36.952 c 0.622,-0.448 1.178,-0.983 1.648,-1.588 -0.51,-1.282 -1.103,-2.859 -1.65,-4.977 -0.95,-3.683 -1.408,-7.461 -1.23,-11.161 0.164,-3.402 0.868,-6.736 2.226,-9.866 0.897,-2.069 1.419,-4.324 1.663,-6.635 -0.456,-1.038 -1.126,-1.96 -1.954,-2.712 -0.058,2.979 -0.53,5.922 -1.653,8.508 -1.464,3.377 -2.223,6.96 -2.4,10.604 -0.188,3.912 0.294,7.901 1.297,11.784 0.672,2.606 1.386,4.382 1.957,5.805 z"
           style="fill:#6e3d0c;fill-opacity:1;fill-rule:evenodd;stroke:none"
           id="path26581" /><path
           d="m 272.095,173.075 c 4.373,0 7.95,-3.577 7.95,-7.949 v -24.601 c 0,-4.373 -3.577,-7.95 -7.95,-7.95 z"
           style="fill:#6e3d0c;fill-opacity:1;fill-rule:evenodd;stroke:none"
           id="path26583" /><path
           d="m 276.723,171.579 c 0.622,-0.448 1.178,-0.983 1.648,-1.588 -0.51,-1.282 -1.103,-2.859 -1.65,-4.977 -0.95,-3.683 -1.408,-7.461 -1.23,-11.161 0.164,-3.402 0.868,-6.736 2.226,-9.866 0.897,-2.069 1.419,-4.324 1.663,-6.635 -0.456,-1.038 -1.126,-1.96 -1.954,-2.712 -0.058,2.979 -0.53,5.922 -1.653,8.508 -1.464,3.377 -2.223,6.96 -2.4,10.604 -0.188,3.912 0.294,7.901 1.297,11.784 0.672,2.606 1.386,4.382 1.957,5.805 z"
           style="fill:#613408;fill-opacity:1;fill-rule:evenodd;stroke:none"
           id="path26585" /><path
           d="m 254.02,173.075 v 0 c 4.372,0 7.95,-3.577 7.95,-7.949 v -24.601 c 0,-4.373 -3.578,-7.95 -7.95,-7.95 -4.374,0 -7.951,3.577 -7.951,7.95 v 24.601 c 0,4.372 3.577,7.949 7.951,7.949"
           style="fill:#7a4611;fill-opacity:1;fill-rule:evenodd;stroke:none"
           id="path26587" /><path
           d="m 248.704,134.627 c 1.136,3.186 1.972,7.313 1.154,13.518 -0.225,1.712 0.593,3.414 1.5,5.297 2.062,4.282 4.522,9.397 -1.334,18.549 -0.618,-0.362 -1.183,-0.805 -1.681,-1.314 5.076,-8.062 2.916,-12.551 1.105,-16.313 -1.051,-2.183 -2,-4.153 -1.691,-6.493 0.652,-4.944 0.171,-8.479 -0.648,-11.264 0.424,-0.742 0.964,-1.411 1.595,-1.98 m 9.943,36.952 c 0.623,-0.448 1.178,-0.983 1.649,-1.588 -0.51,-1.282 -1.105,-2.859 -1.651,-4.977 -0.951,-3.683 -1.409,-7.461 -1.23,-11.161 0.165,-3.402 0.869,-6.736 2.226,-9.866 0.897,-2.069 1.42,-4.324 1.663,-6.635 -0.455,-1.038 -1.126,-1.96 -1.954,-2.712 -0.057,2.979 -0.531,5.922 -1.653,8.508 -1.464,3.377 -2.223,6.96 -2.399,10.604 -0.19,3.912 0.294,7.901 1.296,11.784 0.673,2.606 1.385,4.382 1.958,5.805 z"
           style="fill:#6e3d0c;fill-opacity:1;fill-rule:evenodd;stroke:none"
           id="path26589" /><path
           d="m 254.02,173.075 c 4.372,0 7.95,-3.577 7.95,-7.949 v -24.601 c 0,-4.373 -3.578,-7.95 -7.95,-7.95 z"
           style="fill:#6e3d0c;fill-opacity:1;fill-rule:evenodd;stroke:none"
           id="path26591" /><path
           d="m 258.647,171.579 c 0.623,-0.448 1.178,-0.983 1.649,-1.588 -0.51,-1.282 -1.105,-2.859 -1.651,-4.977 -0.951,-3.683 -1.409,-7.461 -1.23,-11.161 0.165,-3.402 0.869,-6.736 2.226,-9.866 0.897,-2.069 1.42,-4.324 1.663,-6.635 -0.455,-1.038 -1.126,-1.96 -1.954,-2.712 -0.057,2.979 -0.531,5.922 -1.653,8.508 -1.464,3.377 -2.223,6.96 -2.399,10.604 -0.19,3.912 0.294,7.901 1.296,11.784 0.673,2.606 1.385,4.382 1.958,5.805 z"
           style="fill:#613408;fill-opacity:1;fill-rule:evenodd;stroke:none"
           id="path26593" /><path
           d="m 235.837,173.075 v 0 c 4.373,0 7.95,-3.577 7.95,-7.949 v -24.601 c 0,-4.373 -3.577,-7.95 -7.95,-7.95 -4.372,0 -7.949,3.577 -7.949,7.95 v 24.601 c 0,4.372 3.577,7.949 7.949,7.949"
           style="fill:#302f2e;fill-opacity:1;fill-rule:evenodd;stroke:none"
           id="path26595" /><path
           d="m 230.522,134.627 c 1.135,3.186 1.972,7.313 1.154,13.518 -0.226,1.712 0.594,3.414 1.5,5.297 2.061,4.282 4.522,9.397 -1.334,18.549 -0.617,-0.362 -1.184,-0.805 -1.682,-1.314 5.077,-8.062 2.917,-12.551 1.106,-16.313 -1.051,-2.183 -1.999,-4.153 -1.691,-6.493 0.652,-4.944 0.171,-8.479 -0.648,-11.264 0.424,-0.742 0.965,-1.411 1.595,-1.98 m 9.943,36.952 c 0.623,-0.448 1.179,-0.983 1.648,-1.588 -0.509,-1.282 -1.103,-2.859 -1.65,-4.977 -0.95,-3.683 -1.408,-7.461 -1.23,-11.161 0.164,-3.402 0.869,-6.736 2.226,-9.866 0.897,-2.069 1.419,-4.324 1.663,-6.635 -0.455,-1.038 -1.126,-1.96 -1.954,-2.712 -0.058,2.979 -0.53,5.922 -1.652,8.508 -1.465,3.377 -2.224,6.96 -2.4,10.604 -0.189,3.912 0.294,7.901 1.296,11.784 0.672,2.606 1.386,4.382 1.957,5.805 z"
           style="fill:#262525;fill-opacity:1;fill-rule:evenodd;stroke:none"
           id="path26597" /><path
           d="m 235.837,173.075 c 4.373,0 7.95,-3.577 7.95,-7.949 v -24.601 c 0,-4.373 -3.577,-7.95 -7.95,-7.95 z"
           style="fill:#262525;fill-opacity:1;fill-rule:evenodd;stroke:none"
           id="path26599" /><path
           d="m 240.465,171.579 c 0.623,-0.448 1.179,-0.983 1.648,-1.588 -0.509,-1.282 -1.103,-2.859 -1.65,-4.977 -0.95,-3.683 -1.408,-7.461 -1.23,-11.161 0.164,-3.402 0.869,-6.736 2.226,-9.866 0.897,-2.069 1.419,-4.324 1.663,-6.635 -0.455,-1.038 -1.126,-1.96 -1.954,-2.712 -0.058,2.979 -0.53,5.922 -1.652,8.508 -1.465,3.377 -2.224,6.96 -2.4,10.604 -0.189,3.912 0.294,7.901 1.296,11.784 0.672,2.606 1.386,4.382 1.957,5.805 z"
           style="fill:#1c1b1b;fill-opacity:1;fill-rule:evenodd;stroke:none"
           id="path26601" /><path
           d="m 217.762,173.075 v 0 c 4.373,0 7.95,-3.577 7.95,-7.949 v -24.601 c 0,-4.373 -3.577,-7.95 -7.95,-7.95 -4.373,0 -7.95,3.577 -7.95,7.95 v 24.601 c 0,4.372 3.577,7.949 7.95,7.949"
           style="fill:#7a4611;fill-opacity:1;fill-rule:evenodd;stroke:none"
           id="path26603" /><path
           d="m 212.446,134.627 c 1.136,3.186 1.972,7.313 1.155,13.518 -0.226,1.712 0.592,3.414 1.5,5.297 2.061,4.282 4.522,9.397 -1.334,18.549 -0.619,-0.362 -1.184,-0.805 -1.682,-1.314 5.076,-8.062 2.917,-12.551 1.105,-16.313 -1.05,-2.183 -1.999,-4.153 -1.691,-6.493 0.652,-4.944 0.171,-8.479 -0.647,-11.264 0.423,-0.742 0.963,-1.411 1.594,-1.98 m 9.944,36.952 c 0.622,-0.448 1.177,-0.983 1.648,-1.588 -0.51,-1.282 -1.104,-2.859 -1.65,-4.977 -0.95,-3.683 -1.409,-7.461 -1.231,-11.161 0.165,-3.402 0.869,-6.736 2.227,-9.866 0.897,-2.069 1.419,-4.324 1.662,-6.635 -0.455,-1.038 -1.125,-1.96 -1.954,-2.712 -0.057,2.979 -0.53,5.922 -1.653,8.508 -1.463,3.377 -2.223,6.96 -2.399,10.604 -0.189,3.912 0.294,7.901 1.296,11.784 0.673,2.606 1.387,4.382 1.958,5.805 z"
           style="fill:#6e3d0c;fill-opacity:1;fill-rule:evenodd;stroke:none"
           id="path26605" /><path
           d="m 217.762,173.075 c 4.373,0 7.95,-3.577 7.95,-7.949 v -24.601 c 0,-4.373 -3.577,-7.95 -7.95,-7.95 z"
           style="fill:#6e3d0c;fill-opacity:1;fill-rule:evenodd;stroke:none"
           id="path26607" /><path
           d="m 222.39,171.579 c 0.622,-0.448 1.177,-0.983 1.648,-1.588 -0.51,-1.282 -1.104,-2.859 -1.65,-4.977 -0.95,-3.683 -1.409,-7.461 -1.231,-11.161 0.165,-3.402 0.869,-6.736 2.227,-9.866 0.897,-2.069 1.419,-4.324 1.662,-6.635 -0.455,-1.038 -1.125,-1.96 -1.954,-2.712 -0.057,2.979 -0.53,5.922 -1.653,8.508 -1.463,3.377 -2.223,6.96 -2.399,10.604 -0.189,3.912 0.294,7.901 1.296,11.784 0.673,2.606 1.387,4.382 1.958,5.805 z"
           style="fill:#613408;fill-opacity:1;fill-rule:evenodd;stroke:none"
           id="path26609" /><path
           d="m 200.055,173.075 v 0 c 4.373,0 7.95,-3.577 7.95,-7.949 v -24.601 c 0,-4.373 -3.577,-7.95 -7.95,-7.95 -4.372,0 -7.95,3.577 -7.95,7.95 v 24.601 c 0,4.372 3.578,7.949 7.95,7.949"
           style="fill:#7a4611;fill-opacity:1;fill-rule:evenodd;stroke:none"
           id="path26611" /><path
           d="m 194.74,134.627 c 1.135,3.186 1.971,7.313 1.154,13.518 -0.226,1.712 0.593,3.414 1.5,5.297 2.061,4.282 4.522,9.397 -1.334,18.549 -0.618,-0.362 -1.184,-0.805 -1.682,-1.314 5.077,-8.062 2.917,-12.551 1.105,-16.313 -1.05,-2.183 -1.999,-4.153 -1.69,-6.493 0.651,-4.944 0.171,-8.479 -0.648,-11.264 0.423,-0.742 0.963,-1.411 1.595,-1.98 m 9.943,36.952 c 0.622,-0.448 1.178,-0.983 1.648,-1.588 -0.51,-1.282 -1.103,-2.859 -1.65,-4.977 -0.951,-3.683 -1.409,-7.461 -1.23,-11.161 0.164,-3.402 0.868,-6.736 2.226,-9.866 0.897,-2.069 1.419,-4.324 1.663,-6.635 -0.456,-1.038 -1.126,-1.96 -1.954,-2.712 -0.058,2.979 -0.531,5.922 -1.653,8.508 -1.464,3.377 -2.223,6.96 -2.4,10.604 -0.188,3.912 0.294,7.901 1.297,11.784 0.672,2.606 1.386,4.382 1.957,5.805 z"
           style="fill:#6e3d0c;fill-opacity:1;fill-rule:evenodd;stroke:none"
           id="path26613" /><path
           d="m 200.055,173.075 c 4.373,0 7.95,-3.577 7.95,-7.949 v -24.601 c 0,-4.373 -3.577,-7.95 -7.95,-7.95 z"
           style="fill:#6e3d0c;fill-opacity:1;fill-rule:evenodd;stroke:none"
           id="path26615" /><path
           d="m 204.683,171.579 c 0.622,-0.448 1.178,-0.983 1.648,-1.588 -0.51,-1.282 -1.103,-2.859 -1.65,-4.977 -0.951,-3.683 -1.409,-7.461 -1.23,-11.161 0.164,-3.402 0.868,-6.736 2.226,-9.866 0.897,-2.069 1.419,-4.324 1.663,-6.635 -0.456,-1.038 -1.126,-1.96 -1.954,-2.712 -0.058,2.979 -0.531,5.922 -1.653,8.508 -1.464,3.377 -2.223,6.96 -2.4,10.604 -0.188,3.912 0.294,7.901 1.297,11.784 0.672,2.606 1.386,4.382 1.957,5.805 z"
           style="fill:#613408;fill-opacity:1;fill-rule:evenodd;stroke:none"
           id="path26617" /></g></g></g></svg>
