<?xml version="1.0"?>
<svg xmlns:rdf="http://www.w3.org/1999/02/22-rdf-syntax-ns#" xmlns="http://www.w3.org/2000/svg" xmlns:cc="http://web.resource.org/cc/" xmlns:xlink="http://www.w3.org/1999/xlink" xmlns:dc="http://purl.org/dc/elements/1.1/" xmlns:svg="http://www.w3.org/2000/svg" id="svg2134" viewBox="0 0 288.95 191.2" version="1.0">
  <defs id="defs2136">
    <radialGradient id="radialGradient11075" gradientUnits="userSpaceOnUse" cy="802.23" cx="132.24" gradientTransform="matrix(1.809 -.10859 .10241 1.706 -52.861 -907.8)" r="94.236">
      <stop id="stop11069" stop-color="#e9fffb" stop-opacity=".91775" offset="0"/>
      <stop id="stop11071" stop-color="#72dac5" stop-opacity="0" offset="1"/>
    </radialGradient>
  </defs>
  <g id="layer1" transform="translate(-238.38 -419.62)">
    <path id="path8412" stroke-linejoin="round" d="m443.64 482.73c29.86 0.06 58.93 2.26 68.18 7.08 19.25 10.03 14.04 72.17 0 79.49-2.71 1.41-9.08 2.58-17.74 3.49 0.39 6.2-0.26 15.09-5.75 21.79-12.55 15.32-37.15 13.19-37.15 13.19s22.59-7.92 28.54-19.73c2.28-4.51 2.12-9.6 1.06-14.16-39.47 2.53-102.24 1.29-113.5-4.58-16.15-8.42-17.34-70.45 0-79.49 8.76-4.57 43.05-7.15 76.36-7.08z" stroke="#000" stroke-width="5.9085" fill="#789cae"/>
    <path id="path8410" stroke-linejoin="round" d="m334.83 422.57c-34.57 0.09-68.25 2.9-78.95 9.09-22.29 12.86-16.26 92.56 0 101.94 3.13 1.81 10.52 3.31 20.54 4.48-0.45 7.95 0.3 19.36 6.65 27.95 14.54 19.65 43.03 16.91 43.03 16.91s-26.16-10.15-33.06-25.3c-2.64-5.79-2.44-12.31-1.22-18.16 45.71 3.24 118.39 1.65 131.43-5.88 18.7-10.8 20.08-90.35 0-101.94-10.15-5.86-49.85-9.18-88.42-9.09z" stroke="#000" stroke-width="5.9085" fill="#72dac5"/>
    <path id="path10185" d="m331.69 426.59c-24.45 0.92-49.73-0.03-73.06 8.19-10.88 7.18-11.36 21.94-12.82 33.75-1.24 20.06 0.07 41.07 9.35 59.12 5.92 7.25 34.01 7.49 41.15 8.08 40.04 1.84 80.86 2.96 120.32-3.8 8.41-1.63 11.24-10.38 13.19-17.62 5.84-22.33 5.37-46.64-1.25-68.72-2.06-7.29-8.44-12.64-16.1-13.19-25.75-5.6-52.57-5.36-78.9-5.82l-1 0.01h-0.88z" fill="url(#radialGradient11075)"/>
  </g>
  <metadata>
    <rdf:RDF>
      <cc:Work>
        <dc:format>image/svg+xml</dc:format>
        <dc:type rdf:resource="http://purl.org/dc/dcmitype/StillImage"/>
        <cc:license rdf:resource="http://creativecommons.org/licenses/publicdomain/"/>
        <dc:publisher>
          <cc:Agent rdf:about="http://openclipart.org/">
            <dc:title>Openclipart</dc:title>
          </cc:Agent>
        </dc:publisher>
        <dc:title>comic clouds 1</dc:title>
        <dc:date>2006-12-26T00:00:00</dc:date>
        <dc:description>bubble, clip art, clipart, comic, speech, </dc:description>
        <dc:source>http://openclipart.org/detail/3479/-by--3479</dc:source>
        <dc:creator>
          <cc:Agent>
            <dc:title>SRD</dc:title>
          </cc:Agent>
        </dc:creator>
        <dc:subject>
          <rdf:Bag>
            <rdf:li>bubble</rdf:li>
            <rdf:li>clip art</rdf:li>
            <rdf:li>clipart</rdf:li>
            <rdf:li>comic</rdf:li>
            <rdf:li>speech</rdf:li>
          </rdf:Bag>
        </dc:subject>
      </cc:Work>
      <cc:License rdf:about="http://creativecommons.org/licenses/publicdomain/">
        <cc:permits rdf:resource="http://creativecommons.org/ns#Reproduction"/>
        <cc:permits rdf:resource="http://creativecommons.org/ns#Distribution"/>
        <cc:permits rdf:resource="http://creativecommons.org/ns#DerivativeWorks"/>
      </cc:License>
    </rdf:RDF>
  </metadata>
</svg>
