<?xml version="1.0"?>
<svg xmlns:rdf="http://www.w3.org/1999/02/22-rdf-syntax-ns#" xmlns="http://www.w3.org/2000/svg" xmlns:cc="http://creativecommons.org/ns#" xmlns:dc="http://purl.org/dc/elements/1.1/" xmlns:svg="http://www.w3.org/2000/svg" id="svg2" viewBox="0 0 290.35 224.45" version="1.1">
  <g id="layer1" transform="translate(-26.234 -43.6)">
    <g id="g4918" transform="matrix(.25091 0 0 .25091 306.33 184.26)">
      <g id="g4710">
        <g id="g3940" transform="matrix(.77976 0 0 .77976 -676.11 -428.36)">
          <path id="path2987" d="m128.57 288.08c0 127.03-145.19 230-324.29 230s-324.29-102.97-324.29-230 145.19-230 324.29-230 324.29 102.97 324.29 230z" fill-rule="evenodd" transform="matrix(.70153 0 0 .84506 -67.171 -48.222)" stroke="#000" stroke-width="1px" fill="#2c2ca0"/>
          <rect id="rect2985" fill-rule="evenodd" transform="matrix(.84718 -.53130 .76373 .64554 0 0)" height="426.34" width="446.2" stroke="#fff" y="-244.86" x="-435.88" stroke-width="10.245" fill="#3737c8"/>
          <path id="path3757" d="m-162.86 92.362c0 9.4677-8.3147 17.143-18.571 17.143-10.257 0-18.571-7.6751-18.571-17.143 0-9.4677 8.3147-17.143 18.571-17.143 10.257 0 18.571 7.6751 18.571 17.143z" fill="#fff" transform="translate(-23.042 .23223)"/>
          <path id="path3759" d="m-184.99 91.222c166.04-27.477 299.88 14.508 320.05 18.288" stroke="#d7d7f4" stroke-linecap="round" stroke-width="4.9838" fill="#3737c8"/>
          <g id="g3882" stroke="#161650" transform="matrix(.28404 0 0 .87273 289.21 -87.688)" fill="none">
            <g id="g3806" transform="translate(0 -.50765)">
              <path id="path3774" stroke-width=".74823px" d="m-534.66 226.59l76.793 218.58"/>
              <path id="path3776" stroke-width=".57996px" d="m-535.33 226.51l-46.1 218.75"/>
              <path id="path3778" stroke-width=".65633px" d="m-534.71 226.55l58.064 222.44"/>
              <path id="path3780" stroke-width=".49732px" d="m-534.79 226.47l33.127 223.85"/>
              <path id="path3782" stroke-width=".40581px" d="m-534.83 226.42c21.925 225.2 21.925 225.2 21.925 225.2"/>
              <path id="path3784" stroke-width=".2388px" d="m-535.16 226.34l-7.5446 226.62"/>
              <path id="path3790" stroke-width=".2388px" d="m-535.32 226.48l-33.882 224.2"/>
              <path id="path3792" stroke-width=".61513px" d="m-533.82 226.59l51.903 218.58"/>
              <path id="path3794" stroke-width=".4768px" d="m-534.27 226.51l-31.159 218.75"/>
              <path id="path3796" stroke-width=".53958px" d="m-533.85 226.55l39.244 222.44"/>
              <path id="path3798" stroke-width=".40886px" d="m-533.9 226.47l22.39 223.85"/>
              <path id="path3800" stroke-width=".33362px" d="m-533.94 226.42l14.819 225.2"/>
              <path id="path3802" stroke-width=".19632px" d="m-534.15 226.34l-5.0992 226.62"/>
              <path id="path3804" stroke-width=".19632px" d="m-534.26 226.48l-22.9 224.2"/>
            </g>
            <g id="g3822" transform="matrix(.32449 0 0 1 -361.37 -.50765)">
              <path id="path3824" stroke-width=".74823px" d="m-534.66 226.59l76.793 218.58"/>
              <path id="path3826" stroke-width=".57996px" d="m-535.33 226.51l-46.1 218.75"/>
              <path id="path3828" stroke-width=".65633px" d="m-534.71 226.55l58.064 222.44"/>
              <path id="path3830" stroke-width=".49732px" d="m-534.79 226.47l33.127 223.85"/>
              <path id="path3832" stroke-width=".40581px" d="m-534.83 226.42c21.925 225.2 21.925 225.2 21.925 225.2"/>
              <path id="path3834" stroke-width=".2388px" d="m-535.16 226.34l-7.5446 226.62"/>
              <path id="path3836" stroke-width=".2388px" d="m-535.32 226.48l-33.882 224.2"/>
              <path id="path3838" stroke-width=".61513px" d="m-533.82 226.59l51.903 218.58"/>
              <path id="path3840" stroke-width=".4768px" d="m-534.27 226.51l-31.159 218.75"/>
              <path id="path3842" stroke-width=".53958px" d="m-533.85 226.55l39.244 222.44"/>
              <path id="path3844" stroke-width=".40886px" d="m-533.9 226.47l22.39 223.85"/>
              <path id="path3846" stroke-width=".33362px" d="m-533.94 226.42l14.819 225.2"/>
              <path id="path3848" stroke-width=".19632px" d="m-534.15 226.34l-5.0992 226.62"/>
              <path id="path3850" stroke-width=".19632px" d="m-534.26 226.48l-22.9 224.2"/>
            </g>
            <g id="g3852" transform="matrix(.83154 0 0 1 -87.897 -.50765)">
              <path id="path3854" stroke-width=".74823px" d="m-534.66 226.59l76.793 218.58"/>
              <path id="path3856" stroke-width=".57996px" d="m-535.33 226.51l-46.1 218.75"/>
              <path id="path3858" stroke-width=".65633px" d="m-534.71 226.55l58.064 222.44"/>
              <path id="path3860" stroke-width=".49732px" d="m-534.79 226.47l33.127 223.85"/>
              <path id="path3862" stroke-width=".40581px" d="m-534.83 226.42c21.925 225.2 21.925 225.2 21.925 225.2"/>
              <path id="path3864" stroke-width=".2388px" d="m-535.16 226.34l-7.5446 226.62"/>
              <path id="path3866" stroke-width=".2388px" d="m-535.32 226.48l-33.882 224.2"/>
              <path id="path3868" stroke-width=".61513px" d="m-533.82 226.59l51.903 218.58"/>
              <path id="path3870" stroke-width=".4768px" d="m-534.27 226.51l-31.159 218.75"/>
              <path id="path3872" stroke-width=".53958px" d="m-533.85 226.55l39.244 222.44"/>
              <path id="path3874" stroke-width=".40886px" d="m-533.9 226.47l22.39 223.85"/>
              <path id="path3876" stroke-width=".33362px" d="m-533.94 226.42l14.819 225.2"/>
              <path id="path3878" stroke-width=".19632px" d="m-534.15 226.34l-5.0992 226.62"/>
              <path id="path3880" stroke-width=".19632px" d="m-534.26 226.48l-22.9 224.2"/>
            </g>
          </g>
        </g>
        <g id="g4250" transform="translate(38.847 -10.181)">
          <path id="path4100" d="m128.57 288.08c0 127.03-145.19 230-324.29 230s-324.29-102.97-324.29-230 145.19-230 324.29-230 324.29 102.97 324.29 230z" fill-rule="evenodd" transform="matrix(.54702 0 0 .65894 -174.53 -455.78)" stroke="#000" stroke-width="1px" fill="#d45500"/>
          <rect id="rect4102" fill-rule="evenodd" transform="matrix(.84718 -.53130 .76373 .64554 0 0)" height="332.44" width="347.93" stroke="#fff" y="-630.94" x="-87.411" stroke-width="7.989" fill="#d45500"/>
          <path id="path4104" d="m-162.86 92.362c0 9.4677-8.3147 17.143-18.571 17.143-10.257 0-18.571-7.6751-18.571-17.143 0-9.4677 8.3147-17.143 18.571-17.143 10.257 0 18.571 7.6751 18.571 17.143z" fill="#fff" transform="matrix(.77976 0 0 .77976 -140.12 -418)"/>
          <path id="path4106" d="m-266.4-347.05c129.47-21.426 233.83 11.31 249.57 14.256" stroke="#ffe6d5" stroke-linecap="round" stroke-width="3.8862" fill="none"/>
          <g id="g4108" stroke="#d45500" transform="matrix(.22148 0 0 .68052 103.36 -486.55)" fill="none">
            <g id="g4110" transform="translate(0 -.50765)">
              <path id="path4112" stroke-width=".74823px" d="m-534.66 226.59l76.793 218.58"/>
              <path id="path4114" stroke-width=".57996px" d="m-535.33 226.51l-46.1 218.75"/>
              <path id="path4116" stroke-width=".65633px" d="m-534.71 226.55l58.064 222.44"/>
              <path id="path4118" stroke-width=".49732px" d="m-534.79 226.47l33.127 223.85"/>
              <path id="path4120" stroke-width=".40581px" d="m-534.83 226.42c21.925 225.2 21.925 225.2 21.925 225.2"/>
              <path id="path4122" stroke-width=".2388px" d="m-535.16 226.34l-7.5446 226.62"/>
              <path id="path4124" stroke-width=".2388px" d="m-535.32 226.48l-33.882 224.2"/>
              <path id="path4126" stroke-width=".61513px" d="m-533.82 226.59l51.903 218.58"/>
              <path id="path4128" stroke-width=".4768px" d="m-534.27 226.51l-31.159 218.75"/>
              <path id="path4130" stroke-width=".53958px" d="m-533.85 226.55l39.244 222.44"/>
              <path id="path4132" stroke-width=".40886px" d="m-533.9 226.47l22.39 223.85"/>
              <path id="path4134" stroke-width=".33362px" d="m-533.94 226.42l14.819 225.2"/>
              <path id="path4136" stroke-width=".19632px" d="m-534.15 226.34l-5.0992 226.62"/>
              <path id="path4138" stroke-width=".19632px" d="m-534.26 226.48l-22.9 224.2"/>
            </g>
            <g id="g4140" transform="matrix(.32449 0 0 1 -361.37 -.50765)">
              <path id="path4142" stroke-width=".74823px" d="m-534.66 226.59l76.793 218.58"/>
              <path id="path4144" stroke-width=".57996px" d="m-535.33 226.51l-46.1 218.75"/>
              <path id="path4146" stroke-width=".65633px" d="m-534.71 226.55l58.064 222.44"/>
              <path id="path4148" stroke-width=".49732px" d="m-534.79 226.47l33.127 223.85"/>
              <path id="path4150" stroke-width=".40581px" d="m-534.83 226.42c21.925 225.2 21.925 225.2 21.925 225.2"/>
              <path id="path4152" stroke-width=".2388px" d="m-535.16 226.34l-7.5446 226.62"/>
              <path id="path4154" stroke-width=".2388px" d="m-535.32 226.48l-33.882 224.2"/>
              <path id="path4156" stroke-width=".61513px" d="m-533.82 226.59l51.903 218.58"/>
              <path id="path4158" stroke-width=".4768px" d="m-534.27 226.51l-31.159 218.75"/>
              <path id="path4160" stroke-width=".53958px" d="m-533.85 226.55l39.244 222.44"/>
              <path id="path4162" stroke-width=".40886px" d="m-533.9 226.47l22.39 223.85"/>
              <path id="path4164" stroke-width=".33362px" d="m-533.94 226.42l14.819 225.2"/>
              <path id="path4166" stroke-width=".19632px" d="m-534.15 226.34l-5.0992 226.62"/>
              <path id="path4168" stroke-width=".19632px" d="m-534.26 226.48l-22.9 224.2"/>
            </g>
            <g id="g4170" transform="matrix(.83154 0 0 1 -87.897 -.50765)">
              <path id="path4172" stroke-width=".74823px" d="m-534.66 226.59l76.793 218.58"/>
              <path id="path4174" stroke-width=".57996px" d="m-535.33 226.51l-46.1 218.75"/>
              <path id="path4176" stroke-width=".65633px" d="m-534.71 226.55l58.064 222.44"/>
              <path id="path4178" stroke-width=".49732px" d="m-534.79 226.47l33.127 223.85"/>
              <path id="path4180" stroke-width=".40581px" d="m-534.83 226.42c21.925 225.2 21.925 225.2 21.925 225.2"/>
              <path id="path4182" stroke-width=".2388px" d="m-535.16 226.34l-7.5446 226.62"/>
              <path id="path4184" stroke-width=".2388px" d="m-535.32 226.48l-33.882 224.2"/>
              <path id="path4186" stroke-width=".61513px" d="m-533.82 226.59l51.903 218.58"/>
              <path id="path4188" stroke-width=".4768px" d="m-534.27 226.51l-31.159 218.75"/>
              <path id="path4190" stroke-width=".53958px" d="m-533.85 226.55l39.244 222.44"/>
              <path id="path4192" stroke-width=".40886px" d="m-533.9 226.47l22.39 223.85"/>
              <path id="path4194" stroke-width=".33362px" d="m-533.94 226.42l14.819 225.2"/>
              <path id="path4196" stroke-width=".19632px" d="m-534.15 226.34l-5.0992 226.62"/>
              <path id="path4198" stroke-width=".19632px" d="m-534.26 226.48l-22.9 224.2"/>
            </g>
          </g>
        </g>
      </g>
      <g id="g4814" transform="translate(42.43 14.258)">
        <g id="g4556" transform="translate(0 19.424)">
          <path id="path4304" d="m128.57 288.08c0 127.03-145.19 230-324.29 230s-324.29-102.97-324.29-230 145.19-230 324.29-230 324.29 102.97 324.29 230z" fill-rule="evenodd" transform="matrix(.54702 0 0 .65894 -761.55 -41.411)" stroke="#000" stroke-width="1px" fill="#050"/>
          <rect id="rect4306" fill-rule="evenodd" transform="matrix(.84718 -.53130 .76373 .64554 0 0)" height="332.44" width="347.93" stroke="#fff" y="-589.83" x="-817.38" stroke-width="7.989" fill="#050"/>
          <path id="path4308" d="m-162.86 92.362c0 9.4677-8.3147 17.143-18.571 17.143-10.257 0-18.571-7.6751-18.571-17.143 0-9.4677 8.3147-17.143 18.571-17.143 10.257 0 18.571 7.6751 18.571 17.143z" fill="#fff" transform="matrix(.77976 0 0 .77976 -727.14 -3.6289)"/>
          <path id="path4310" d="m-853.42 67.321c129.47-21.426 233.83 11.31 249.57 14.257" stroke="#ffe6d5" stroke-linecap="round" stroke-width="3.8862" fill="none"/>
          <g id="g4312" stroke="#050" transform="matrix(.22148 0 0 .68052 -483.66 -72.186)" fill="none">
            <g id="g4314" transform="translate(0 -.50765)">
              <path id="path4316" stroke-width=".74823px" d="m-534.66 226.59l76.793 218.58"/>
              <path id="path4318" stroke-width=".57996px" d="m-535.33 226.51l-46.1 218.75"/>
              <path id="path4320" stroke-width=".65633px" d="m-534.71 226.55l58.064 222.44"/>
              <path id="path4322" stroke-width=".49732px" d="m-534.79 226.47l33.127 223.85"/>
              <path id="path4324" stroke-width=".40581px" d="m-534.83 226.42c21.925 225.2 21.925 225.2 21.925 225.2"/>
              <path id="path4326" stroke-width=".2388px" d="m-535.16 226.34l-7.5446 226.62"/>
              <path id="path4328" stroke-width=".2388px" d="m-535.32 226.48l-33.882 224.2"/>
              <path id="path4330" stroke-width=".61513px" d="m-533.82 226.59l51.903 218.58"/>
              <path id="path4332" stroke-width=".4768px" d="m-534.27 226.51l-31.159 218.75"/>
              <path id="path4334" stroke-width=".53958px" d="m-533.85 226.55l39.244 222.44"/>
              <path id="path4336" stroke-width=".40886px" d="m-533.9 226.47l22.39 223.85"/>
              <path id="path4338" stroke-width=".33362px" d="m-533.94 226.42l14.819 225.2"/>
              <path id="path4340" stroke-width=".19632px" d="m-534.15 226.34l-5.0992 226.62"/>
              <path id="path4342" stroke-width=".19632px" d="m-534.26 226.48l-22.9 224.2"/>
            </g>
            <g id="g4344" transform="matrix(.32449 0 0 1 -361.37 -.50765)">
              <path id="path4346" stroke-width=".74823px" d="m-534.66 226.59l76.793 218.58"/>
              <path id="path4348" stroke-width=".57996px" d="m-535.33 226.51l-46.1 218.75"/>
              <path id="path4350" stroke-width=".65633px" d="m-534.71 226.55l58.064 222.44"/>
              <path id="path4352" stroke-width=".49732px" d="m-534.79 226.47l33.127 223.85"/>
              <path id="path4354" stroke-width=".40581px" d="m-534.83 226.42c21.925 225.2 21.925 225.2 21.925 225.2"/>
              <path id="path4356" stroke-width=".2388px" d="m-535.16 226.34l-7.5446 226.62"/>
              <path id="path4358" stroke-width=".2388px" d="m-535.32 226.48l-33.882 224.2"/>
              <path id="path4360" stroke-width=".61513px" d="m-533.82 226.59l51.903 218.58"/>
              <path id="path4362" stroke-width=".4768px" d="m-534.27 226.51l-31.159 218.75"/>
              <path id="path4364" stroke-width=".53958px" d="m-533.85 226.55l39.244 222.44"/>
              <path id="path4366" stroke-width=".40886px" d="m-533.9 226.47l22.39 223.85"/>
              <path id="path4368" stroke-width=".33362px" d="m-533.94 226.42l14.819 225.2"/>
              <path id="path4370" stroke-width=".19632px" d="m-534.15 226.34l-5.0992 226.62"/>
              <path id="path4372" stroke-width=".19632px" d="m-534.26 226.48l-22.9 224.2"/>
            </g>
            <g id="g4374" transform="matrix(.83154 0 0 1 -87.897 -.50765)">
              <path id="path4376" stroke-width=".74823px" d="m-534.66 226.59l76.793 218.58"/>
              <path id="path4378" stroke-width=".57996px" d="m-535.33 226.51l-46.1 218.75"/>
              <path id="path4380" stroke-width=".65633px" d="m-534.71 226.55l58.064 222.44"/>
              <path id="path4382" stroke-width=".49732px" d="m-534.79 226.47l33.127 223.85"/>
              <path id="path4384" stroke-width=".40581px" d="m-534.83 226.42c21.925 225.2 21.925 225.2 21.925 225.2"/>
              <path id="path4386" stroke-width=".2388px" d="m-535.16 226.34l-7.5446 226.62"/>
              <path id="path4388" stroke-width=".2388px" d="m-535.32 226.48l-33.882 224.2"/>
              <path id="path4390" stroke-width=".61513px" d="m-533.82 226.59l51.903 218.58"/>
              <path id="path4392" stroke-width=".4768px" d="m-534.27 226.51l-31.159 218.75"/>
              <path id="path4394" stroke-width=".53958px" d="m-533.85 226.55l39.244 222.44"/>
              <path id="path4396" stroke-width=".40886px" d="m-533.9 226.47l22.39 223.85"/>
              <path id="path4398" stroke-width=".33362px" d="m-533.94 226.42l14.819 225.2"/>
              <path id="path4400" stroke-width=".19632px" d="m-534.15 226.34l-5.0992 226.62"/>
              <path id="path4402" stroke-width=".19632px" d="m-534.26 226.48l-22.9 224.2"/>
            </g>
          </g>
        </g>
        <g id="g4658" transform="translate(-.000030518 -19.423)">
          <path id="path4406" d="m128.57 288.08c0 127.03-145.19 230-324.29 230s-324.29-102.97-324.29-230 145.19-230 324.29-230 324.29 102.97 324.29 230z" fill-rule="evenodd" transform="matrix(.54702 0 0 .65894 -187.48 -2.5644)" stroke="#000" stroke-width="1px" fill="#1a1a1a"/>
          <rect id="rect4408" fill-rule="evenodd" transform="matrix(.84718 -.53130 .76373 .64554 0 0)" height="332.44" width="347.93" stroke="#fff" y="-235.12" x="-459.52" stroke-width="7.989" fill="#1a1a1a"/>
          <path id="path4410" d="m-162.86 92.362c0 9.4677-8.3147 17.143-18.571 17.143-10.257 0-18.571-7.6751-18.571-17.143 0-9.4677 8.3147-17.143 18.571-17.143 10.257 0 18.571 7.6751 18.571 17.143z" fill="#fff" transform="matrix(.77976 0 0 .77976 -153.07 35.218)"/>
          <path id="path4412" d="m-279.35 106.17c129.47-21.426 233.83 11.31 249.57 14.256" stroke="#ffe6d5" stroke-linecap="round" stroke-width="3.8862" fill="none"/>
          <g id="g4414" stroke="#1a1a1a" transform="matrix(.22148 0 0 .68052 90.412 -33.339)" fill="none">
            <g id="g4416" transform="translate(0 -.50765)">
              <path id="path4418" stroke-width=".74823px" d="m-534.66 226.59l76.793 218.58"/>
              <path id="path4420" stroke-width=".57996px" d="m-535.33 226.51l-46.1 218.75"/>
              <path id="path4422" stroke-width=".65633px" d="m-534.71 226.55l58.064 222.44"/>
              <path id="path4424" stroke-width=".49732px" d="m-534.79 226.47l33.127 223.85"/>
              <path id="path4426" stroke-width=".40581px" d="m-534.83 226.42c21.925 225.2 21.925 225.2 21.925 225.2"/>
              <path id="path4428" stroke-width=".2388px" d="m-535.16 226.34l-7.5446 226.62"/>
              <path id="path4430" stroke-width=".2388px" d="m-535.32 226.48l-33.882 224.2"/>
              <path id="path4432" stroke-width=".61513px" d="m-533.82 226.59l51.903 218.58"/>
              <path id="path4434" stroke-width=".4768px" d="m-534.27 226.51l-31.159 218.75"/>
              <path id="path4436" stroke-width=".53958px" d="m-533.85 226.55l39.244 222.44"/>
              <path id="path4438" stroke-width=".40886px" d="m-533.9 226.47l22.39 223.85"/>
              <path id="path4440" stroke-width=".33362px" d="m-533.94 226.42l14.819 225.2"/>
              <path id="path4442" stroke-width=".19632px" d="m-534.15 226.34l-5.0992 226.62"/>
              <path id="path4444" stroke-width=".19632px" d="m-534.26 226.48l-22.9 224.2"/>
            </g>
            <g id="g4446" transform="matrix(.32449 0 0 1 -361.37 -.50765)">
              <path id="path4448" stroke-width=".74823px" d="m-534.66 226.59l76.793 218.58"/>
              <path id="path4450" stroke-width=".57996px" d="m-535.33 226.51l-46.1 218.75"/>
              <path id="path4452" stroke-width=".65633px" d="m-534.71 226.55l58.064 222.44"/>
              <path id="path4454" stroke-width=".49732px" d="m-534.79 226.47l33.127 223.85"/>
              <path id="path4456" stroke-width=".40581px" d="m-534.83 226.42c21.925 225.2 21.925 225.2 21.925 225.2"/>
              <path id="path4458" stroke-width=".2388px" d="m-535.16 226.34l-7.5446 226.62"/>
              <path id="path4460" stroke-width=".2388px" d="m-535.32 226.48l-33.882 224.2"/>
              <path id="path4462" stroke-width=".61513px" d="m-533.82 226.59l51.903 218.58"/>
              <path id="path4464" stroke-width=".4768px" d="m-534.27 226.51l-31.159 218.75"/>
              <path id="path4466" stroke-width=".53958px" d="m-533.85 226.55l39.244 222.44"/>
              <path id="path4468" stroke-width=".40886px" d="m-533.9 226.47l22.39 223.85"/>
              <path id="path4470" stroke-width=".33362px" d="m-533.94 226.42l14.819 225.2"/>
              <path id="path4472" stroke-width=".19632px" d="m-534.15 226.34l-5.0992 226.62"/>
              <path id="path4474" stroke-width=".19632px" d="m-534.26 226.48l-22.9 224.2"/>
            </g>
            <g id="g4476" transform="matrix(.83154 0 0 1 -87.897 -.50765)">
              <path id="path4478" stroke-width=".74823px" d="m-534.66 226.59l76.793 218.58"/>
              <path id="path4480" stroke-width=".57996px" d="m-535.33 226.51l-46.1 218.75"/>
              <path id="path4482" stroke-width=".65633px" d="m-534.71 226.55l58.064 222.44"/>
              <path id="path4484" stroke-width=".49732px" d="m-534.79 226.47l33.127 223.85"/>
              <path id="path4486" stroke-width=".40581px" d="m-534.83 226.42c21.925 225.2 21.925 225.2 21.925 225.2"/>
              <path id="path4488" stroke-width=".2388px" d="m-535.16 226.34l-7.5446 226.62"/>
              <path id="path4490" stroke-width=".2388px" d="m-535.32 226.48l-33.882 224.2"/>
              <path id="path4492" stroke-width=".61513px" d="m-533.82 226.59l51.903 218.58"/>
              <path id="path4494" stroke-width=".4768px" d="m-534.27 226.51l-31.159 218.75"/>
              <path id="path4496" stroke-width=".53958px" d="m-533.85 226.55l39.244 222.44"/>
              <path id="path4498" stroke-width=".40886px" d="m-533.9 226.47l22.39 223.85"/>
              <path id="path4500" stroke-width=".33362px" d="m-533.94 226.42l14.819 225.2"/>
              <path id="path4502" stroke-width=".19632px" d="m-534.15 226.34l-5.0992 226.62"/>
              <path id="path4504" stroke-width=".19632px" d="m-534.26 226.48l-22.9 224.2"/>
            </g>
          </g>
        </g>
      </g>
    </g>
  </g>
  <metadata>
    <rdf:RDF>
      <cc:Work>
        <dc:format>image/svg+xml</dc:format>
        <dc:type rdf:resource="http://purl.org/dc/dcmitype/StillImage"/>
        <cc:license rdf:resource="http://creativecommons.org/licenses/publicdomain/"/>
        <dc:publisher>
          <cc:Agent rdf:about="http://openclipart.org/">
            <dc:title>Openclipart</dc:title>
          </cc:Agent>
        </dc:publisher>
        <dc:title>Graduation</dc:title>
        <dc:date>2012-04-25T22:34:34</dc:date>
        <dc:description>Graduation Cap</dc:description>
        <dc:source>http://openclipart.org/detail/169684/graduation-by-gsagri04</dc:source>
        <dc:creator>
          <cc:Agent>
            <dc:title>gsagri04</dc:title>
          </cc:Agent>
        </dc:creator>
        <dc:subject>
          <rdf:Bag>
            <rdf:li>Graduation</rdf:li>
            <rdf:li>School</rdf:li>
            <rdf:li>cap</rdf:li>
            <rdf:li>clip art</rdf:li>
            <rdf:li>clipart</rdf:li>
            <rdf:li>collage</rdf:li>
            <rdf:li>digree</rdf:li>
            <rdf:li>png</rdf:li>
            <rdf:li>student</rdf:li>
            <rdf:li>svg</rdf:li>
          </rdf:Bag>
        </dc:subject>
      </cc:Work>
      <cc:License rdf:about="http://creativecommons.org/licenses/publicdomain/">
        <cc:permits rdf:resource="http://creativecommons.org/ns#Reproduction"/>
        <cc:permits rdf:resource="http://creativecommons.org/ns#Distribution"/>
        <cc:permits rdf:resource="http://creativecommons.org/ns#DerivativeWorks"/>
      </cc:License>
    </rdf:RDF>
  </metadata>
</svg>
