<?xml version="1.0" encoding="utf-8"?>
<!-- Generator: Adobe Illustrator 16.0.0, SVG Export Plug-In . SVG Version: 6.00 Build 0)  -->
<!DOCTYPE svg PUBLIC "-//W3C//DTD SVG 1.1//EN" "http://www.w3.org/Graphics/SVG/1.1/DTD/svg11.dtd">
<svg version="1.1" id="Layer_1" xmlns="http://www.w3.org/2000/svg" xmlns:xlink="http://www.w3.org/1999/xlink" x="0px" y="0px"
	 width="500px" height="500px" viewBox="0 0 500 500" enable-background="new 0 0 500 500" xml:space="preserve">
<path fill="#2BB99B" d="M480.211,256.541c0,126.367-103.016,228.814-230.085,228.814c-127.073,0-230.085-102.447-230.085-228.814
	c0-126.372,103.012-228.814,230.085-228.814C377.195,27.727,480.211,130.169,480.211,256.541z"/>
<g>
	<path fill="#FFFFFF" d="M304.605,256.434c-9.385-4.389-19.286-8.356-28.934-11.91c-33.106-12.535-83.415-16.298-87.586-56.626
		c-4.171-40.333,59.433-53.289,101.142-39.702c0,0-22.677,18.596,2.086,30.505c25.546,11.915,42.229-14.207,29.717-26.747
		c-32.065-32.596-118.607-17.55-147.803,14.837c-26.329,29.048-22.679,68.121,22.419,89.643c9.382,4.39,19.288,8.36,28.933,11.917
		c33.104,12.531,83.413,16.294,87.584,56.621c4.171,40.329-59.431,53.289-101.139,39.703c0,0,22.679-18.591-2.086-30.506
		c-25.544-11.913-42.228,14.212-29.715,26.743c32.322,32.391,118.605,17.554,147.802-14.828
		C353.355,317.036,349.701,277.959,304.605,256.434z"/>
	<g>
		<g>
			<rect x="256.123" y="115.599" fill="#FFFFFF" width="12.513" height="281.888"/>
		</g>
		<g>
			<rect x="231.357" y="115.599" fill="#FFFFFF" width="12.512" height="281.888"/>
		</g>
	</g>
</g>
</svg>
