<?xml version="1.0"?>
<svg xmlns:rdf="http://www.w3.org/1999/02/22-rdf-syntax-ns#" xmlns="http://www.w3.org/2000/svg" xmlns:cc="http://web.resource.org/cc/" xmlns:xlink="http://www.w3.org/1999/xlink" xmlns:dc="http://purl.org/dc/elements/1.1/" xmlns:svg="http://www.w3.org/2000/svg" id="svg1" height="80pt" width="80pt">
  <path id="path1082" fill-rule="evenodd" fill-opacity=".5" d="m39.375 18.125c-5.628 0-10.187 3.772-10.187 8.406 0 3.182 2.235 5.857 5.406 7.281-1.708 0.332-3.293 0.784-4.782 1.344-1.716-1.08-3.768-1.843-6.093-1.844-5.628 0-10.188 3.772-10.188 8.407 0 3.188 2.224 5.891 5.407 7.312-4.208 0.818-8.029 2.242-10.282 4.438-4.7441 6.477-2.9761 11.578-3.0622 12.5 0.4264 0.491 3.1364 2.379 5.1562 2.219-0.053-1.084 0.131-2.228 0.219-3.407 0.068-1.111 0.032-1.68 0.156-2.812 0.286-2.216 0.594-3.938 0.594-3.938-0.116 0.095-0.377 1.968-0.594 3.938-0.113 0.878-0.084 1.84-0.156 2.812-0.079 1.282-0.245 2.821-0.157 3.407-0.019 0.001-0.042-0.002-0.062 0 0.001 0.019-0.001 0.042 0 0.062 0.22 3.67 2.006 12.103 2.781 12.812 6.568 0.97 12.936 0.87 19.657 0.344 1.053-0.082 2.049-0.049 3.124-0.156 0 0 0.238-2.47 0.313-3.188 0.644-2.21 1.171-4.85 0.75-7.312 0.068-0.693 0.056-0.661 0.125-1.375-0.084-1.212-0.219-1.894-0.344-2.937 0.011 0 0.02 0.03 0.032 0.031 0.141 1.335 0.312 2.906 0.312 2.906 2.629-0.461 4.496-0.913 7.125-2.437 0.073-0.078 0.092-0.362 0.156-0.5 1.135-0.05 2.284-0.103 3.438-0.188 0.34 1.239 0.739 2.915 0.969 3.125 5.723 0.845 11.319 0.831 17.093 0.5 0.605 2.931 1.268 5.522 1.688 5.906 6.492 0.959 12.803 0.883 19.437 0.375 0.286-0.001 0.428-0.016 0.719-0.031 0.89-0.073 1.718-0.066 2.625-0.156 0 0 0.241-2.412 0.312-3.094 0.641-2.175 1.137-4.8 0.75-7.281 0.074-0.741 0.082-0.703 0.157-1.469-0.174-2.503-0.5-4.355-0.781-6.063-0.236-1.618-0.468-3.395-0.782-4.343-0.023-0.056 0.36 1.791 0.782 4.343 0.439 3.017 0.781 6.063 0.781 6.063 2.628-0.461 4.465-0.944 7.093-2.469 0.862-0.922 1.308-6.182-2.593-13.344-1.662-3.053-6.718-4.708-12.469-5.156 2.572-1.524 4.375-3.88 4.375-6.687v-0.063c0.068-0.335 0.185-0.777 0.219-1-0.209-0.141-0.357-0.116-0.532-0.187-0.758-4.019-4.814-7.157-9.906-7.157-4.221 0-7.826 2.112-9.375 5.126 0.48-0.974 0.781-2.042 0.781-3.157 0-0.021 0.001-0.041 0-0.062 0.067-0.33 0.185-0.78 0.219-1-0.213-0.145-0.353-0.116-0.531-0.188-0.765-4.013-4.788-7.125-9.875-7.125-5.628 0-10.187 3.741-10.187 8.375 0 1.511 0.588 2.869 1.437 4.094-1.664-0.443-3.475-0.724-5.406-0.875 2.213-1.31 3.7-3.269 4.093-5.594 0.147-0.47 0.173-0.746 0.25-1.125 0-0.01 0.001-0.021 0-0.031 0.071-0.344 0.184-0.804 0.219-1.031-0.213-0.145-0.353-0.116-0.531-0.188-0.76-4.017-4.784-7.156-9.875-7.156zm29.375 15.187c-0.48 0.974-0.781 2.042-0.781 3.157 0 0.212 0.137 0.385 0.156 0.593-0.942-0.156-1.905-0.265-2.906-0.343 1.501-0.895 2.8-1.984 3.531-3.407z"/>
  <g id="g984" transform="translate(0 -2.5)" fill-rule="evenodd">
    <path id="path884" stroke-linejoin="round" d="m18.815 66.311c0.157-1.63-3.046-10.639 5.584-22.094 13.016-12.332 53.567-12.473 60.659 0.191 7.091 12.664 6.319 21.993 4.753 23.623-4.782 2.696-8.154 3.51-12.936 4.325 0 0-1.177-13.555-2.814-18.359-0.07-0.164 2.026 7.321 2.814 18.363-1.091 10.917-2.182 20.957-2.182 20.957-14.445 1.402-27.638 1.676-41.457-0.307-1.41-1.254-4.666-16.16-5.066-22.65-0.4-7.493 1.793-18.092 1.793-18.092-0.47 0.376-2.182 14.498-1.636 17.992-3.685 0.358-8.728-3.071-9.512-3.949z" transform="matrix(.54975 0 0 .56550 27.396 15.905)" stroke="#000" stroke-width="2.2419" fill="#ff8a00"/>
    <path id="path885" stroke-linejoin="round" d="m70.329 23.447c0 8.195-8.308 14.847-18.546 14.847s-18.547-6.652-18.547-14.847c0-8.196 8.309-14.848 18.547-14.848 10.238 0.0002 18.546 6.652 18.546 14.848z" transform="matrix(.54975 0 0 .56550 27.396 15.905)" stroke="#000" stroke-width="2.2419" fill="#ff8a00"/>
    <path id="path886" d="m51.512 9.7195c-8.077-2.6923-27.102 11.308-12.025 23.872 9.153-1.796-8.436-16.334 12.025-23.872z" fill-opacity=".25" transform="matrix(.54975 0 0 .56550 27.396 15.905)" stroke-width="1pt" fill="#fff"/>
    <path id="path887" d="m42.179 37.181c-0.898-0.18-12.923 1.974-17.231 7.897-3.589 2.154-7 12.384-5.564 20.641 1.795 1.435 5.205 3.769 6.103 3.23 5.025-10.589-11.846-21.538 16.692-31.768z" fill-opacity=".25" transform="matrix(.54975 0 0 .56550 27.396 15.905)" stroke-width="1pt" fill="#fff"/>
    <path id="path888" d="m30.153 55.129c-3.589 10.949-0.179 30.512 3.769 36.974 3.949 1.256 9.513 1.795 10.77 1.436 1.076-9.154-14.898-7.898-14.539-38.41z" fill-opacity=".25" transform="matrix(.54975 0 0 .56550 27.396 15.905)" stroke-width="1pt" fill="#fff"/>
    <path id="path889" stroke-width="1pt" fill-opacity=".25" transform="matrix(.54975 0 0 .56550 27.396 15.905)" d="m52.589 37.54c15.256-4.129 11.307-20.462 18.128-15.975-0.539 3.411-2.693 15.436-18.128 15.975z"/>
    <path id="path890" stroke-width="1pt" fill-opacity=".25" transform="matrix(.54975 0 0 .56550 27.396 15.905)" d="m81.306 70.565s8.257-1.616 8.616-3.231c1.974-6.282-3.411-21.179-5.923-23.692-12.205-4.308 13.281 24.948-2.693 26.923z"/>
    <path id="path891" stroke-width="1pt" fill-opacity=".24" transform="matrix(.54975 0 0 .56550 27.396 15.905)" d="m64.973 93.539s7.898 0.538 8.795-0.898 5.026-14 2.513-20.102c-8.257-6.82 3.051 20.82-11.308 21z"/>
    <path id="path828" stroke-linejoin="round" d="m18.815 66.311c0.157-1.63-3.046-10.639 5.584-22.094 13.016-12.332 53.567-12.473 60.659 0.191 7.091 12.664 6.319 21.993 4.753 23.623-4.782 2.696-8.154 3.51-12.936 4.325 0 0-1.177-13.555-2.814-18.359-0.07-0.164 2.026 7.321 2.814 18.363-1.091 10.917-2.182 20.957-2.182 20.957-14.445 1.402-27.638 1.676-41.457-0.307-1.41-1.254-4.666-16.16-5.066-22.65-0.4-7.493 1.793-18.092 1.793-18.092-0.47 0.376-2.182 14.498-1.636 17.992-3.685 0.358-8.728-3.071-9.512-3.949z" transform="matrix(.54975 0 0 .56550 46.197 22.325)" stroke="#000" stroke-width="2.2419" fill="#8400ff"/>
    <path id="path827" stroke-linejoin="round" d="m70.329 23.447c0 8.195-8.308 14.847-18.546 14.847s-18.547-6.652-18.547-14.847c0-8.196 8.309-14.848 18.547-14.848 10.238 0.0002 18.546 6.652 18.546 14.848z" transform="matrix(.54975 0 0 .56550 46.197 22.325)" stroke="#000" stroke-width="2.2419" fill="#8400ff"/>
    <path id="path830" d="m51.512 9.7195c-8.077-2.6923-27.102 11.308-12.025 23.872 9.153-1.796-8.436-16.334 12.025-23.872z" fill-opacity=".25" transform="matrix(.54975 0 0 .56550 46.197 22.325)" stroke-width="1pt" fill="#fff"/>
    <path id="path831" d="m42.179 37.181c-0.898-0.18-12.923 1.974-17.231 7.897-3.589 2.154-7 12.384-5.564 20.641 1.795 1.435 5.205 3.769 6.103 3.23 5.025-10.589-11.846-21.538 16.692-31.768z" fill-opacity=".25" transform="matrix(.54975 0 0 .56550 46.197 22.325)" stroke-width="1pt" fill="#fff"/>
    <path id="path832" d="m30.153 55.129c-3.589 10.949-0.179 30.512 3.769 36.974 3.949 1.256 9.513 1.795 10.77 1.436 1.076-9.154-14.898-7.898-14.539-38.41z" fill-opacity=".25" transform="matrix(.54975 0 0 .56550 46.197 22.325)" stroke-width="1pt" fill="#fff"/>
    <path id="path833" stroke-width="1pt" fill-opacity=".25" transform="matrix(.54975 0 0 .56550 46.197 22.325)" d="m52.589 37.54c15.256-4.129 11.307-20.462 18.128-15.975-0.539 3.411-2.693 15.436-18.128 15.975z"/>
    <path id="path834" stroke-width="1pt" fill-opacity=".25" transform="matrix(.54975 0 0 .56550 46.197 22.325)" d="m81.306 70.565s8.257-1.616 8.616-3.231c1.974-6.282-3.411-21.179-5.923-23.692-12.205-4.308 13.281 24.948-2.693 26.923z"/>
    <path id="path835" stroke-width="1pt" fill-opacity=".24" transform="matrix(.54975 0 0 .56550 46.197 22.325)" d="m64.973 93.539s7.898 0.538 8.795-0.898 5.026-14 2.513-20.102c-8.257-6.82 3.051 20.82-11.308 21z"/>
    <path id="path875" stroke-linejoin="round" d="m18.815 66.311c0.157-1.63-3.046-10.639 5.584-22.094 13.016-12.332 53.567-12.473 60.659 0.191 7.091 12.664 6.319 21.993 4.753 23.623-4.782 2.696-8.154 3.51-12.936 4.325 0 0-1.177-13.555-2.814-18.359-0.07-0.164 2.026 7.321 2.814 18.363-1.091 10.917-2.182 20.957-2.182 20.957-14.445 1.402-27.638 1.676-41.457-0.307-1.41-1.254-4.666-16.16-5.066-22.65-0.4-7.493 1.793-18.092 1.793-18.092-0.47 0.376-2.182 14.498-1.636 17.992-3.685 0.358-8.728-3.071-9.512-3.949z" transform="matrix(.54975 0 0 .56550 7.4075 12.397)" stroke="#000" stroke-width="2.2419" fill="#008500"/>
    <path id="path876" stroke-linejoin="round" d="m70.329 23.447c0 8.195-8.308 14.847-18.546 14.847s-18.547-6.652-18.547-14.847c0-8.196 8.309-14.848 18.547-14.848 10.238 0.0002 18.546 6.652 18.546 14.848z" transform="matrix(.54975 0 0 .56550 7.4075 12.397)" stroke="#000" stroke-width="2.2419" fill="#008500"/>
    <path id="path877" d="m51.512 9.7195c-8.077-2.6923-27.102 11.308-12.025 23.872 9.153-1.796-8.436-16.334 12.025-23.872z" fill-opacity=".25" transform="matrix(.54975 0 0 .56550 7.4075 12.397)" stroke-width="1pt" fill="#fff"/>
    <path id="path878" d="m42.179 37.181c-0.898-0.18-12.923 1.974-17.231 7.897-3.589 2.154-7 12.384-5.564 20.641 1.795 1.435 5.205 3.769 6.103 3.23 5.025-10.589-11.846-21.538 16.692-31.768z" fill-opacity=".25" transform="matrix(.54975 0 0 .56550 7.4075 12.397)" stroke-width="1pt" fill="#fff"/>
    <path id="path879" d="m30.153 55.129c-3.589 10.949-0.179 30.512 3.769 36.974 3.949 1.256 9.513 1.795 10.77 1.436 1.076-9.154-14.898-7.898-14.539-38.41z" fill-opacity=".25" transform="matrix(.54975 0 0 .56550 7.4075 12.397)" stroke-width="1pt" fill="#fff"/>
    <path id="path880" stroke-width="1pt" fill-opacity=".25" transform="matrix(.54975 0 0 .56550 7.4075 12.397)" d="m52.589 37.54c15.256-4.129 11.307-20.462 18.128-15.975-0.539 3.411-2.693 15.436-18.128 15.975z"/>
    <path id="path881" stroke-width="1pt" fill-opacity=".25" transform="matrix(.54975 0 0 .56550 7.4075 12.397)" d="m81.306 70.565s8.257-1.616 8.616-3.231c1.974-6.282-3.411-21.179-5.923-23.692-12.205-4.308 13.281 24.948-2.693 26.923z"/>
    <path id="path882" stroke-width="1pt" fill-opacity=".24" transform="matrix(.54975 0 0 .56550 7.4075 12.397)" d="m64.973 93.539s7.898 0.538 8.795-0.898 5.026-14 2.513-20.102c-8.257-6.82 3.051 20.82-11.308 21z"/>
    <path id="path893" stroke-linejoin="round" d="m18.815 66.311c0.157-1.63-3.046-10.639 5.584-22.094 13.016-12.332 53.567-12.473 60.659 0.191 7.091 12.664 6.319 21.993 4.753 23.623-4.782 2.696-8.154 3.51-12.936 4.325 0 0-1.177-13.555-2.814-18.359-0.07-0.164 2.026 7.321 2.814 18.363-1.091 10.917-2.182 20.957-2.182 20.957-14.445 1.402-27.638 1.676-41.457-0.307-1.41-1.254-4.666-16.16-5.066-22.65-0.4-7.493 1.793-18.092 1.793-18.092-0.47 0.376-2.182 14.498-1.636 17.992-3.685 0.358-8.728-3.071-9.512-3.949z" transform="matrix(.54975 0 0 .56550 -8.2553 27.591)" stroke="#000" stroke-width="2.2419" fill="#00c"/>
    <path id="path894" stroke-linejoin="round" d="m70.329 23.447c0 8.195-8.308 14.847-18.546 14.847s-18.547-6.652-18.547-14.847c0-8.196 8.309-14.848 18.547-14.848 10.238 0.0002 18.546 6.652 18.546 14.848z" transform="matrix(.54975 0 0 .56550 -8.2553 27.591)" stroke="#000" stroke-width="2.2419" fill="#00c"/>
    <path id="path895" d="m51.512 9.7195c-8.077-2.6923-27.102 11.308-12.025 23.872 9.153-1.796-8.436-16.334 12.025-23.872z" fill-opacity=".25" transform="matrix(.54975 0 0 .56550 -8.2553 27.591)" stroke-width="1pt" fill="#fff"/>
    <path id="path896" d="m42.179 37.181c-0.898-0.18-12.923 1.974-17.231 7.897-3.589 2.154-7 12.384-5.564 20.641 1.795 1.435 5.205 3.769 6.103 3.23 5.025-10.589-11.846-21.538 16.692-31.768z" fill-opacity=".25" transform="matrix(.54975 0 0 .56550 -8.2553 27.591)" stroke-width="1pt" fill="#fff"/>
    <path id="path897" d="m30.153 55.129c-3.589 10.949-0.179 30.512 3.769 36.974 3.949 1.256 9.513 1.795 10.77 1.436 1.076-9.154-14.898-7.898-14.539-38.41z" fill-opacity=".25" transform="matrix(.54975 0 0 .56550 -8.2553 27.591)" stroke-width="1pt" fill="#fff"/>
    <path id="path898" stroke-width="1pt" fill-opacity=".25" transform="matrix(.54975 0 0 .56550 -8.2553 27.591)" d="m52.589 37.54c15.256-4.129 11.307-20.462 18.128-15.975-0.539 3.411-2.693 15.436-18.128 15.975z"/>
    <path id="path899" stroke-width="1pt" fill-opacity=".25" transform="matrix(.54975 0 0 .56550 -8.2553 27.591)" d="m81.306 70.565s8.257-1.616 8.616-3.231c1.974-6.282-3.411-21.179-5.923-23.692-12.205-4.308 13.281 24.948-2.693 26.923z"/>
    <path id="path900" stroke-width="1pt" fill-opacity=".24" transform="matrix(.54975 0 0 .56550 -8.2553 27.591)" d="m64.973 93.539s7.898 0.538 8.795-0.898 5.026-14 2.513-20.102c-8.257-6.82 3.051 20.82-11.308 21z"/>
  </g>
  <rdf:RDF xmlns="http://web.resource.org/cc/">
    <Work rdf:about="">
      <dc:title>Clipart by Nicu Buculei - head1</dc:title>
      <dc:rights>
        <Agent>
          <dc:title>Nicu Buculei</dc:title>
        </Agent>
      </dc:rights>
      <dc:type rdf:resource="http://purl.org/dc/dcmitype/StillImage"/>
      <license rdf:resource="http://web.resource.org/cc/PublicDomain"/>
    </Work>
    <License rdf:about="http://web.resource.org/cc/PublicDomain">
      <permits rdf:resource="http://web.resource.org/cc/Reproduction"/>
      <permits rdf:resource="http://web.resource.org/cc/Distribution"/>
      <permits rdf:resource="http://web.resource.org/cc/DerivativeWorks"/>
    </License>
  </rdf:RDF>
  <metadata>
    <rdf:RDF>
      <cc:Work>
        <dc:format>image/svg+xml</dc:format>
        <dc:type rdf:resource="http://purl.org/dc/dcmitype/StillImage"/>
        <cc:license rdf:resource="http://creativecommons.org/licenses/publicdomain/"/>
        <dc:publisher>
          <cc:Agent rdf:about="http://openclipart.org/">
            <dc:title>Openclipart</dc:title>
          </cc:Agent>
        </dc:publisher>
        <dc:title>Abstract people</dc:title>
        <dc:date>2008-02-27T13:00:44</dc:date>
        <dc:description>abstract figure of people</dc:description>
        <dc:source>http://openclipart.org/detail/15046/abstract-people-by-nicubunu</dc:source>
        <dc:creator>
          <cc:Agent>
            <dc:title>nicubunu</dc:title>
          </cc:Agent>
        </dc:creator>
        <dc:subject>
          <rdf:Bag>
            <rdf:li>abstract</rdf:li>
            <rdf:li>clip art</rdf:li>
            <rdf:li>clipart</rdf:li>
            <rdf:li>image</rdf:li>
            <rdf:li>media</rdf:li>
            <rdf:li>people</rdf:li>
            <rdf:li>png</rdf:li>
            <rdf:li>public domain</rdf:li>
            <rdf:li>svg</rdf:li>
            <rdf:li>symbol</rdf:li>
          </rdf:Bag>
        </dc:subject>
      </cc:Work>
      <cc:License rdf:about="http://creativecommons.org/licenses/publicdomain/">
        <cc:permits rdf:resource="http://creativecommons.org/ns#Reproduction"/>
        <cc:permits rdf:resource="http://creativecommons.org/ns#Distribution"/>
        <cc:permits rdf:resource="http://creativecommons.org/ns#DerivativeWorks"/>
      </cc:License>
    </rdf:RDF>
  </metadata>
</svg>
