<?xml version="1.0" encoding="UTF-8" standalone="no"?>
<!DOCTYPE svg PUBLIC "-//W3C//DTD SVG 1.1//EN" "http://www.w3.org/Graphics/SVG/1.1/DTD/svg11.dtd">
<svg width="100%" height="100%" viewBox="0 0 472 472" version="1.1" xmlns="http://www.w3.org/2000/svg" xmlns:xlink="http://www.w3.org/1999/xlink" xml:space="preserve" xmlns:serif="http://www.serif.com/" style="fill-rule:evenodd;clip-rule:evenodd;stroke-linecap:round;stroke-linejoin:round;stroke-miterlimit:1.5;">
    <g transform="matrix(1,0,0,1,-12.4239,-9.79696)">
        <g transform="matrix(7.35829,0,0,7.35829,-1964.88,-1253.75)">
            <g transform="matrix(3.52541e-05,0.026417,-0.026417,3.52541e-05,344.208,164.274)">
                <circle cx="1493.68" cy="1645.57" r="1157.5" style="fill:rgb(251,250,240);stroke:url(#_Linear1);stroke-width:113.18px;stroke-dasharray:113.18,113.18;"/>
            </g>
        </g>
        <g transform="matrix(7.35829,0,0,7.35829,-1964.88,-1253.75)">
            <g transform="matrix(0.0975395,0,0,0.0975395,270.944,165.164)">
                <g transform="matrix(2.70311,0,0,2.70311,-420.425,-262.35)">
                    <path d="M350.102,199.77C350.102,196.617 349.613,194.027 348.641,192.008C348.641,190.73 349.543,188.031 351.359,183.91C351.758,182.992 352.188,183.008 352.637,183.945C353.16,185.062 354.367,188.121 356.238,193.125C358.234,198.344 359.387,201.551 359.711,202.754C359.965,203.672 360.109,204.359 360.109,204.809C360.109,206.246 358.723,205.383 355.949,202.215C355.625,201.766 355.465,201.965 355.465,202.809C355.465,203.098 356.328,215.211 358.094,239.133C359.855,263.074 360.738,276.271 360.738,278.734C360.738,286.293 359.566,292.973 357.227,298.77C356.742,299.937 356.348,300.785 356.059,301.305C355.59,302.043 355.32,302.133 355.23,301.594C355.086,301.035 355.141,299.812 355.375,297.922C355.66,295.312 355.805,292.289 355.805,288.832C355.805,285.754 354.852,270.812 352.945,244.012C351.035,217.227 350.102,202.469 350.102,199.77Z" style="fill:rgb(0,162,181);fill-rule:nonzero;"/>
                </g>
                <g transform="matrix(0.24,0,0,0.24,0,0)">
                    <path d="M1646.25,2303.13L1646.25,2302.92L1735.66,2264.99C1722.9,2229.93 1716.6,2194.03 1716.6,2157.74C1716.6,2102.79 1724.7,2058.61 1740.93,2025.17C1757.35,1991.91 1778.82,1975.3 1805.61,1975.3C1829.32,1975.3 1851.63,1994.96 1872.48,2034.68C1891.13,2069.74 1900.68,2101.77 1900.68,2130.37C1900.68,2202.96 1879.39,2262.57 1836.8,2308.99C1866.89,2340.05 1903.57,2355.87 1945.48,2356.01L1945.48,2355.81C1980.54,2355.81 2014.59,2342.26 2047.68,2315.07C2057.18,2306.97 2062.06,2277.76 2062.06,2227.07C2062.06,2196.28 2047.45,1978.32 2018.46,1573.08C1989.47,1168.01 1975.09,946.001 1975.09,907.064C1975.09,871.823 1969.58,843.001 1958.68,820.126C1958.68,807.759 1968.79,777.315 1989.47,728.884C1991.5,722.983 1993.74,720.167 1995.93,720.167C1998.18,720.167 2000.82,723.422 2003.68,729.887C2008.74,742.479 2022.34,776.921 2044.42,833.506C2066.28,892.062 2079.09,927.563 2082.3,939.536C2085.55,951.677 2087.4,959.989 2087.4,964.258C2087.4,980.488 2071.78,970.948 2040.94,935.661C2037.34,930.604 2035.49,932.845 2035.49,942.351C2035.49,944.593 2049.09,1135.14 2076.23,1514.25C2103.42,1893.36 2116.97,2101.38 2116.97,2138.07C2116.97,2244.32 2097.92,2328.05 2059.82,2388.84C2027.49,2440 1989.47,2465.73 1945.85,2465.88L1945.85,2465.95C1905.11,2465.95 1862.98,2448.06 1820.39,2412.38C1797.7,2393.34 1779.83,2372.83 1767.07,2350.75L1646.25,2402.04L1646.25,2401.95C1590.27,2425.95 1547.18,2444.87 1519.55,2458.01C1464.59,2483.53 1426.67,2504.42 1406.22,2520.65C1368.51,2550.05 1313.78,2606.18 1241.8,2688.9C1198.99,2738.39 1155.83,2763.29 1112.63,2763.29C1076.38,2763.29 1044.74,2746.88 1017.56,2714.24C989.003,2680.19 974.789,2638.61 974.789,2589.38C974.789,2521.67 1002.55,2433.24 1058.29,2324.4C1064.19,2313.04 1068.63,2307.37 1071.89,2307.37C1073.52,2307.76 1074.13,2309.17 1074.13,2311.64C1074.13,2322.76 1062.17,2360.69 1037.84,2425.76C1013.73,2490.83 1001.76,2542.35 1001.76,2580.05C1001.76,2609.05 1008.44,2632.15 1022.04,2649.39C1036.21,2668.04 1056.27,2677.55 1081.83,2677.55C1127.07,2677.55 1172.63,2654.45 1218.88,2608.61C1248.1,2573.76 1277.48,2539.09 1306.65,2504.21C1344.8,2461.22 1394.86,2422.9 1456.9,2389.28C1492.74,2369.65 1558.37,2340.17 1646.25,2303.13ZM1872.71,2177.62C1872.71,2165.43 1863.16,2146.78 1844.51,2121.44C1824.04,2094.29 1806.18,2080.91 1791.17,2080.91C1779.83,2080.91 1768.69,2087.78 1757.75,2101.77C1746.79,2115.59 1741.34,2128.75 1741.34,2141.33C1741.34,2151.88 1747.18,2170.54 1759.37,2196.89C1769.71,2219.99 1777.62,2235.61 1783.48,2243.48C1798.92,2236.23 1816.52,2225.89 1836.41,2212.3C1860.52,2196.05 1872.71,2184.49 1872.71,2177.62Z" style="fill:rgb(0,162,181);fill-rule:nonzero;"/>
                </g>
                <g transform="matrix(2.70311,0,0,2.70311,-420.425,-262.35)">
                    <path d="M273.871,223.652C273.871,220.523 273.383,217.949 272.41,215.934C272.41,214.797 273.313,212.098 275.129,207.832C275.363,207.309 275.563,207.059 275.723,207.059C275.922,207.059 276.137,207.328 276.406,207.887C276.93,208.984 278.137,212.043 280.008,217.066C282.008,222.27 283.156,225.473 283.48,226.676C283.734,227.594 283.879,228.281 283.879,228.73C283.879,230.168 282.492,229.305 279.719,226.137C279.395,225.687 279.234,225.887 279.234,226.73C279.234,227.02 279.938,237.027 281.375,256.754C282.816,276.484 283.535,287.59 283.535,290.055C283.535,297.652 282.367,304.328 280.063,310.09C279.574,311.258 279.18,312.105 278.891,312.629C278.441,313.402 278.172,313.508 278.063,312.969C277.938,312.375 277.992,311.133 278.207,309.242C278.496,306.652 278.656,303.629 278.656,300.172C278.656,297.039 277.848,284.187 276.266,261.598C274.66,239.008 273.871,226.355 273.871,223.652Z" style="fill:rgb(0,162,181);fill-rule:nonzero;"/>
                </g>
                <g transform="matrix(2.70311,0,0,2.70311,-420.425,-262.35)">
                    <path d="M272.664,292.719C272.664,298.77 271.297,303.359 268.559,306.488C264.258,311.492 257.941,316.355 249.625,321.035C239.074,326.902 229.246,329.836 220.141,329.836C207.898,329.836 199.477,323.84 194.852,311.855C193.949,309.516 193.5,306.527 193.5,302.871C193.5,300.461 193.68,298.031 194.074,295.547C194.672,291.91 195.48,288.707 196.523,285.969C196.848,285.141 197.172,284.711 197.496,284.711C197.82,284.711 197.891,285.27 197.695,286.367C197.297,288.059 196.902,289.75 196.523,291.441C195.875,294.449 195.551,296.66 195.551,298.082C195.551,303.035 197.207,307.586 200.52,311.746C205.02,317.289 211.52,320.062 220.051,320.062C227.52,320.062 235.457,318.297 243.863,314.789C250.633,311.98 256.715,308.469 262.117,304.238C266.992,300.461 269.441,297.758 269.441,296.141C269.441,295.871 268.434,293.766 266.418,289.785C264.008,285.105 262.207,280.535 261.035,276.105C260.586,274.613 260.047,273.605 259.433,273.082C258.82,272.56 258.515,272.021 258.515,271.427C258.515,270.977 258.965,268.562 259.867,264.207C260.012,263.414 260.207,263.039 260.461,263.039C260.73,263.039 261.055,263.219 261.433,263.613C262.676,264.98 265.34,267.684 269.441,271.716C270.09,272.38 270.414,272.902 270.414,273.281C270.414,273.746 270.035,273.966 269.242,273.966C268.398,273.966 267.137,273.711 265.445,273.191C265.57,273.711 266.941,276.574 269.531,281.777C271.621,286.004 272.664,289.66 272.664,292.719Z" style="fill:rgb(0,162,181);fill-rule:nonzero;"/>
                </g>
                <g transform="matrix(2.40555,0,0,2.40555,-348.354,-176.564)">
                    <path d="M236.43,289.406C236.285,289.316 236.285,289.121 236.43,288.832L239.543,282.422C239.742,282.027 239.957,281.848 240.176,281.848C240.496,281.848 241.902,282.695 244.387,284.387C246.852,286.078 248.094,287.066 248.094,287.355C248.094,288.473 246.996,290.777 244.816,294.305C244.547,294.754 244.277,294.863 243.988,294.645C241.543,292.773 239.023,291.047 236.43,289.406Z" style="fill:rgb(255,176,0);fill-rule:nonzero;"/>
                </g>
                <g transform="matrix(2.28787,0,0,2.28787,-289.933,-152.748)">
                    <path d="M314.496,262.93L316.98,257.801C317.18,257.402 317.395,257.223 317.629,257.223C317.953,257.223 319.34,258.07 321.82,259.762C324.289,261.453 325.531,262.445 325.531,262.73C325.531,263.848 324.434,266.152 322.254,269.66C322.004,270.094 321.715,270.203 321.426,270.005C319.285,268.419 316.855,266.746 314.152,264.98C313.234,267.035 312.355,268.781 311.473,270.219C311.219,270.669 310.934,270.777 310.645,270.562C308.195,268.691 305.676,266.961 303.086,265.324C302.941,265.234 302.941,265.035 303.086,264.746L306.199,258.34C306.395,257.945 306.613,257.766 306.828,257.746C307.133,257.766 308.32,258.449 310.391,259.852C312.48,261.254 313.848,262.281 314.496,262.93Z" style="fill:rgb(255,176,0);fill-rule:nonzero;"/>
                </g>
                <g transform="matrix(2.02114,0,0,2.02114,-215.549,-86.0107)">
                    <path d="M308.879,245.723C309.168,244.77 309.238,243.832 309.078,242.879C308.879,241.832 308.41,241.312 307.656,241.312C307.297,241.312 306.809,241.492 306.199,241.832C305.586,242.176 305.262,242.5 305.262,242.824C305.262,243.578 306.469,244.535 308.879,245.723ZM307.027,249.914C304.004,248.352 302.488,246.711 302.488,244.984C302.488,242.895 303.445,240.988 305.371,239.258C307.277,237.551 308.879,236.902 310.141,237.371C311.219,237.746 311.762,238.918 311.762,240.824C311.762,242.555 311.398,244.496 310.68,246.641C312.211,247.523 313.184,248.277 313.559,248.891C313.559,249.699 312.875,251.086 311.508,253.031C311.129,252.418 310.195,251.68 308.734,250.797C307.043,253.137 304.902,255.262 302.293,257.187C299.32,259.367 296.621,261.023 294.137,262.121C293.617,262.391 290.754,263.469 285.551,265.395C284.742,265.684 284.203,265.844 283.934,265.844C283.805,265.844 283.754,265.809 283.754,265.738C283.754,265.539 284.203,265.16 285.102,264.566C288.953,262.281 292.805,259.996 296.676,257.672C301.301,254.883 304.738,252.293 307.027,249.914Z" style="fill:rgb(255,176,0);fill-rule:nonzero;"/>
                </g>
                <g transform="matrix(2.70311,0,0,2.70311,-420.425,-262.35)">
                    <path d="M299.125,283.574C299.125,285.395 298.492,287.141 297.254,288.797C295.922,290.594 294.371,291.496 292.57,291.496C290.719,291.496 289.801,290.594 289.801,288.797C289.801,287.5 290.52,285.609 291.996,283.109C293.453,280.625 294.715,279.383 295.738,279.383C296.656,279.383 297.449,279.777 298.117,280.57C298.781,281.363 299.125,282.371 299.125,283.574ZM297.523,285.629C297.523,283.937 296.352,283.09 294.047,283.09C293.723,283.09 293.164,283.613 292.41,284.672C291.637,285.734 291.258,286.473 291.258,286.906C291.512,287.48 292.375,287.789 293.852,287.789C296.297,287.789 297.523,287.066 297.523,285.629Z" style="fill:rgb(255,176,0);fill-rule:nonzero;"/>
                </g>
                <g transform="matrix(2.70311,0,0,2.70311,-420.425,-262.35)">
                    <path d="M291.836,193.035C293.672,193.035 294.57,193.918 294.57,195.719C294.57,196.652 294.336,197.645 293.852,198.687C293.527,199.371 292.68,200.523 291.348,202.109C289.457,204.285 288.199,205.816 287.551,206.699C286.469,208.137 285.859,208.859 285.695,208.859C285.66,208.859 285.641,208.82 285.641,208.75C285.641,208.586 285.805,208.102 286.129,207.293C286.848,205.492 288.02,203.672 289.637,201.82C290.594,200.777 291.547,199.73 292.52,198.687C292.156,197.789 291.582,197.336 290.773,197.336C290.18,197.336 289.457,197.535 288.613,197.969C280.352,202.16 272.375,204.27 264.707,204.27C260.476,204.27 256.644,203.352 253.223,201.531C253.727,203.133 253.547,205.043 252.703,207.293C252.379,208.172 252.145,208.625 252.02,208.66C251.91,208.66 251.875,208.121 251.875,207.059C251.875,205.023 251.551,203.312 250.938,201.875C250.848,201.676 249.805,200.109 247.824,197.195C248.148,195.16 248.652,194.152 249.336,194.152C249.391,194.152 249.895,194.512 250.848,195.23C251.98,196.148 253.133,196.906 254.305,197.535C257.797,199.355 261.594,200.273 265.734,200.273C270.09,200.273 274.285,199.641 278.316,198.398C280.691,197.66 283.535,196.492 286.813,194.891C289.387,193.648 291.059,193.035 291.836,193.035Z" style="fill:rgb(255,176,0);fill-rule:nonzero;"/>
                </g>
                <g transform="matrix(2.70311,0,0,2.70311,-420.425,-262.35)">
                    <path d="M271.547,170.285C272.484,170.805 272.934,171.418 272.934,172.137C272.934,172.641 272.719,173.109 272.25,173.559C270.953,174.875 270.145,175.434 269.82,175.27C269.855,174.82 269.406,174.082 268.508,173.074C267.875,172.715 266.203,172.625 263.465,172.785C260.566,172.949 258.226,173.363 256.445,174.047C255.852,174.281 255.563,174.531 255.563,174.836C255.563,175.359 256.519,176.168 258.445,177.27C259.902,178.113 261.793,178.961 264.098,179.789C266.418,180.617 267.82,181.172 268.344,181.48C271.223,183.137 272.539,185.043 272.305,187.187C272.18,188.48 271.352,189.777 269.82,191.09C268.453,192.262 267.496,192.785 266.977,192.656C258.695,190.66 252.863,188.699 249.516,186.734C246.707,185.117 245.32,182.812 245.32,179.805C245.32,179.266 245.375,178.742 245.504,178.258C246.328,179.75 248.219,181.355 251.227,183.082C252.484,183.836 255.707,185.098 260.89,186.898C265.465,188.48 268.324,189.418 269.426,189.668C269.82,188.141 268.363,186.43 265.086,184.504C262.801,183.695 259.687,182.363 255.707,180.543C253.133,179.051 251.855,177.719 251.855,176.531C251.855,175.594 252.719,174.566 254.449,173.453C258.535,170.824 262.816,169.508 267.281,169.508C269.191,169.508 270.613,169.762 271.547,170.285Z" style="fill:rgb(255,176,0);fill-rule:nonzero;"/>
                </g>
                <g transform="matrix(2.70311,0,0,2.70311,-420.425,-262.35)">
                    <path d="M224.242,304.781C224.242,303.844 222.551,302.422 219.168,300.531C218.125,302.512 217.602,304.312 217.602,305.895C217.602,306.922 218.07,307.426 219.023,307.426C219.871,307.426 220.844,307.121 221.941,306.543C223.055,305.949 223.813,305.375 224.242,304.781ZM222.785,286.852C223.273,285.969 223.793,285.539 224.336,285.539C224.695,285.539 224.875,285.719 224.875,286.059C224.875,286.203 224.84,286.328 224.785,286.457C223.145,290.039 221.867,293.258 220.934,296.086C224.336,298.586 225.938,301.109 225.703,303.609C225.484,306.309 225.109,308 224.586,308.687C223.094,310.703 221.238,311.727 219.023,311.727C216.898,311.727 215.855,310.414 215.855,307.805C215.855,305.625 216.703,302.062 218.43,297.113C219.996,292.684 221.438,289.266 222.785,286.852Z" style="fill:rgb(255,176,0);fill-rule:nonzero;"/>
                </g>
                <g transform="matrix(2.70311,0,0,2.70311,-420.425,-262.35)">
                    <path d="M216.883,224.879C218.594,224.879 220.32,226.535 222.047,229.844C223.613,232.887 224.695,236.273 225.324,240.016C225.379,240.375 225.414,240.574 225.414,240.645C225.484,240.734 225.523,240.734 225.559,240.645C225.594,240.574 225.684,240.375 225.809,240.016C226.262,236.793 227.141,232.547 228.438,227.254C229.68,224.301 231.031,222.824 232.488,222.824C233.242,222.824 233.98,223.328 234.738,224.336C235.387,225.219 235.711,225.922 235.711,226.48C235.711,226.91 235.602,227.453 235.367,228.137C235.078,229.055 234.738,229.504 234.344,229.504C234.18,229.504 233.82,229.16 233.281,228.461C232.723,227.758 232.145,227.414 231.57,227.414C230.363,227.414 228.996,231.629 227.465,240.051C226.98,242.734 226.441,244.625 225.848,245.723C225.434,246.477 225.07,246.855 224.785,246.855C224.516,246.855 224.387,246.516 224.387,245.828C224.387,244.715 223.688,242.066 222.301,237.91C220.859,233.609 219.906,231.465 219.422,231.465C219.059,231.465 218.824,231.574 218.734,231.809C218.629,232.023 218.34,232.148 217.855,232.148C217.297,232.148 216.574,231.734 215.676,230.926C214.777,230.117 214.344,229.449 214.344,228.965C214.344,228.746 214.703,228.008 215.461,226.75C216.215,225.488 216.684,224.879 216.883,224.879Z" style="fill:rgb(255,176,0);fill-rule:nonzero;"/>
                </g>
                <g transform="matrix(2.70311,0,0,2.70311,-420.425,-262.35)">
                    <path d="M249.301,234.543C249.301,236.199 248.617,238.09 247.246,240.215C245.844,242.426 244.043,244.316 241.828,245.883C240.949,246.496 240.426,246.82 240.266,246.82C240.227,246.82 240.227,246.801 240.227,246.766C240.227,246.641 240.59,246.152 241.344,245.344C244.98,241.367 246.816,238.719 246.816,237.371C246.816,236.109 246.223,235.48 245.051,235.48C244.402,235.48 243.809,235.66 243.289,236.02C242.91,236.273 242.656,236.414 242.566,236.453C242.496,236.379 242.426,236.344 242.316,236.309C242.352,236.184 242.426,235.84 242.516,235.281C243.109,232.547 244.457,231.176 246.617,231.176C248.398,231.176 249.301,232.293 249.301,234.543Z" style="fill:rgb(255,176,0);fill-rule:nonzero;"/>
                </g>
                <g transform="matrix(2.70311,0,0,2.70311,-420.425,-262.35)">
                    <path d="M228.887,275.277C235.223,273.027 242.117,270.578 249.535,267.935C250.055,267.755 250.363,267.684 250.453,267.755C250.578,267.844 250.559,268.113 250.363,268.582C249.77,270.005 249.301,270.867 248.941,271.172C242.695,273.352 235.457,276.216 227.23,279.777C227.574,278.41 228.133,276.898 228.887,275.277Z" style="fill:rgb(255,176,0);fill-rule:nonzero;"/>
                </g>
                <g transform="matrix(2.70311,0,0,2.70311,-420.425,-262.35)">
                    <path d="M219.742,164.594C228.781,161.301 238.391,157.809 248.543,154.082C249.047,153.902 249.371,153.832 249.461,153.902C249.59,153.992 249.57,154.266 249.371,154.73C248.777,156.152 248.309,157.02 247.949,157.324C239.418,160.383 229.465,164.273 218.09,169.004C218.43,167.656 218.988,166.199 219.742,164.594Z" style="fill:rgb(255,176,0);fill-rule:nonzero;"/>
                </g>
                <g transform="matrix(2.70311,0,0,2.70311,-420.425,-262.35)">
                    <path d="M192.617,211.484C192.617,210.551 190.926,209.129 187.543,207.238C186.496,209.219 185.977,211.02 185.977,212.602C185.977,213.629 186.445,214.133 187.398,214.133C188.242,214.133 189.215,213.824 190.313,213.25C191.43,212.656 192.188,212.078 192.617,211.484ZM191.16,193.559C191.645,192.676 192.168,192.242 192.707,192.242C193.066,192.242 193.246,192.422 193.246,192.766C193.246,192.91 193.211,193.035 193.156,193.16C191.52,196.742 190.242,199.965 189.305,202.793C192.707,205.293 194.309,207.812 194.074,210.316C193.859,213.016 193.48,214.707 192.961,215.391C191.465,217.406 189.613,218.434 187.398,218.434C185.273,218.434 184.23,217.121 184.23,214.508C184.23,212.332 185.074,208.77 186.805,203.816C188.371,199.391 189.809,195.969 191.16,193.559Z" style="fill:rgb(255,176,0);fill-rule:nonzero;"/>
                </g>
                <g transform="matrix(2.70311,0,0,2.70311,-420.425,-262.35)">
                    <path d="M297.055,320.098C298.766,320.098 300.492,321.754 302.219,325.066C303.785,328.109 304.867,331.492 305.496,335.234C305.551,335.594 305.586,335.793 305.586,335.867C305.656,335.957 305.695,335.957 305.73,335.867C305.766,335.793 305.855,335.594 305.98,335.234C306.434,332.016 307.313,327.766 308.609,322.473C309.852,319.523 311.203,318.047 312.66,318.047C313.414,318.047 314.152,318.551 314.91,319.559C315.559,320.441 315.883,321.141 315.883,321.699C315.883,322.133 315.773,322.672 315.539,323.355C315.254,324.273 314.91,324.723 314.516,324.723C314.352,324.723 313.992,324.383 313.453,323.68C312.895,322.977 312.316,322.637 311.742,322.637C310.535,322.637 309.168,326.848 307.637,335.273C307.152,337.953 306.613,339.844 306.02,340.941C305.605,341.699 305.242,342.074 304.957,342.074C304.688,342.074 304.559,341.734 304.559,341.051C304.559,339.934 303.859,337.289 302.473,333.129C301.031,328.828 300.078,326.687 299.594,326.687C299.23,326.687 298.996,326.793 298.906,327.027C298.801,327.242 298.512,327.371 298.027,327.371C297.469,327.371 296.746,326.957 295.848,326.145C294.949,325.336 294.516,324.668 294.516,324.184C294.516,323.969 294.875,323.23 295.633,321.969C296.387,320.711 296.855,320.098 297.055,320.098Z" style="fill:rgb(255,176,0);fill-rule:nonzero;"/>
                </g>
                <g transform="matrix(2.70311,0,0,2.70311,-420.425,-262.35)">
                    <path d="M277.039,334.605C278.352,334.605 279.523,335.379 280.566,336.926C281.609,338.492 282.348,340.527 282.762,343.031C282.816,343.281 282.836,343.445 282.836,343.48C282.887,343.551 282.926,343.551 282.941,343.48C282.961,343.445 283.031,343.281 283.121,343.031C283.34,341.535 283.844,339.285 284.672,336.316C285.551,334.191 286.523,333.129 287.586,333.129C288.125,333.129 288.664,333.488 289.188,334.211C289.676,334.84 289.906,335.363 289.906,335.758C289.906,336.062 289.816,336.461 289.656,336.965C289.441,337.613 289.207,337.953 288.918,337.953C288.793,337.953 288.539,337.703 288.145,337.199C287.746,336.695 287.336,336.441 286.922,336.441C285.984,336.441 285.102,338.656 284.309,343.066C283.969,344.992 283.57,346.34 283.156,347.152C282.852,347.691 282.602,347.961 282.383,347.961C282.188,347.961 282.098,347.711 282.098,347.223C282.098,346.449 281.664,344.937 280.766,342.707C279.883,340.473 279.234,339.359 278.875,339.359C278.605,339.359 278.441,339.43 278.371,339.59C278.297,339.754 278.102,339.844 277.738,339.844C277.344,339.844 276.82,339.539 276.176,338.961C275.543,338.367 275.219,337.898 275.219,337.559C275.219,337.395 275.488,336.855 276.012,335.957C276.551,335.055 276.895,334.605 277.039,334.605Z" style="fill:rgb(255,176,0);fill-rule:nonzero;"/>
                </g>
                <g transform="matrix(2.70311,0,0,2.70311,-420.425,-262.35)">
                    <path d="M368.242,248.891C368.387,248.223 368.965,246.332 369.973,243.273C370.582,241.402 370.891,239.187 370.891,236.668C370.891,236.055 370.871,235.391 370.855,234.687C370.711,231.25 369.18,228.082 366.266,225.164C366.031,224.934 365.992,224.68 366.176,224.391L367.219,222.539C367.344,222.34 367.488,222.34 367.688,222.539C369.484,224.266 370.676,225.867 371.27,227.344C371.754,228.586 372.098,230.602 372.293,233.355C372.328,233.969 372.367,234.562 372.367,235.156C372.367,237.281 371.844,239.926 370.836,243.059C369.809,246.207 369.305,248.422 369.305,249.699C369.305,251.555 369.828,252.488 370.871,252.488C371.484,252.488 372.168,251.75 372.941,250.258C373.016,250.133 373.086,250.023 373.156,249.953C373.23,249.898 373.266,249.914 373.266,249.988C373.301,250.059 373.301,250.168 373.266,250.328C372.637,253.785 371.609,255.516 370.172,255.516C368.711,255.516 367.973,254.129 367.973,251.355C367.973,250.582 368.063,249.773 368.242,248.891Z" style="fill:rgb(255,176,0);fill-rule:nonzero;"/>
                </g>
                <g transform="matrix(2.70311,0,0,2.70311,-420.425,-262.35)">
                    <path d="M370.582,266.98C370.582,268.187 370.078,269.535 369.109,271.066C368.102,272.648 366.785,274.021 365.203,275.133C364.57,275.582 364.195,275.816 364.066,275.816C364.051,275.816 364.051,275.802 364.051,275.781C364.051,275.672 364.32,275.352 364.844,274.755C367.469,271.896 368.785,269.984 368.785,269.031C368.785,268.113 368.352,267.664 367.508,267.664C367.055,267.664 366.625,267.789 366.246,268.044C365.977,268.224 365.797,268.328 365.723,268.349C365.688,268.312 365.617,268.277 365.543,268.258C365.578,268.148 365.617,267.914 365.688,267.52C366.121,265.539 367.094,264.566 368.641,264.566C369.938,264.566 370.582,265.379 370.582,266.98Z" style="fill:rgb(255,176,0);fill-rule:nonzero;"/>
                </g>
                <g transform="matrix(2.30285,0,0,2.30285,-273.212,-179.321)">
                    <path d="M367.793,209.848C367.793,211.055 367.289,212.402 366.316,213.934C365.309,215.52 363.996,216.887 362.41,218C361.781,218.453 361.402,218.687 361.277,218.687C361.262,218.687 361.262,218.668 361.262,218.648C361.262,218.543 361.531,218.219 362.051,217.625C364.68,214.762 365.992,212.855 365.992,211.898C365.992,210.98 365.563,210.531 364.715,210.531C364.266,210.531 363.832,210.656 363.457,210.91C363.188,211.09 363.008,211.199 362.934,211.215C362.898,211.18 362.824,211.145 362.754,211.125C362.789,211.02 362.824,210.785 362.898,210.387C363.328,208.406 364.301,207.437 365.852,207.437C367.145,207.437 367.793,208.246 367.793,209.848Z" style="fill:rgb(255,176,0);fill-rule:nonzero;"/>
                </g>
                <g transform="matrix(2.70311,0,0,2.70311,-420.425,-262.35)">
                    <path d="M327.043,325.516C327.043,326.723 326.539,328.07 325.566,329.602C324.559,331.187 323.242,332.555 321.66,333.668C321.031,334.121 320.652,334.355 320.527,334.355C320.508,334.355 320.508,334.336 320.508,334.316C320.508,334.211 320.777,333.887 321.301,333.293C323.93,330.43 325.242,328.523 325.242,327.566C325.242,326.648 324.809,326.199 323.965,326.199C323.516,326.199 323.082,326.324 322.703,326.578C322.434,326.758 322.254,326.867 322.184,326.883C322.145,326.848 322.074,326.812 322.004,326.793C322.039,326.687 322.074,326.453 322.145,326.055C322.578,324.074 323.551,323.105 325.098,323.105C326.395,323.105 327.043,323.914 327.043,325.516Z" style="fill:rgb(255,176,0);fill-rule:nonzero;"/>
                </g>
                <g transform="matrix(2.70311,0,0,2.70311,-420.425,-262.35)">
                    <path d="M238.051,332.789C238.051,333.992 237.547,335.344 236.574,336.875C235.566,338.457 234.254,339.824 232.668,340.941C232.039,341.391 231.66,341.625 231.535,341.625C231.516,341.625 231.516,341.609 231.516,341.59C231.516,341.48 231.785,341.156 232.309,340.562C234.938,337.703 236.25,335.793 236.25,334.84C236.25,333.922 235.816,333.473 234.973,333.473C234.523,333.473 234.09,333.598 233.711,333.852C233.441,334.031 233.262,334.137 233.191,334.156C233.152,334.121 233.082,334.082 233.012,334.066C233.047,333.957 233.082,333.723 233.152,333.328C233.586,331.348 234.559,330.375 236.105,330.375C237.402,330.375 238.051,331.187 238.051,332.789Z" style="fill:rgb(255,176,0);fill-rule:nonzero;"/>
                </g>
                <g transform="matrix(2.70311,0,0,2.70311,-420.425,-262.35)">
                    <path d="M174.223,262.211C174.223,263.414 173.719,264.766 172.746,266.297C171.738,267.88 170.426,269.246 168.84,270.363C168.211,270.812 167.832,271.047 167.707,271.047C167.688,271.047 167.688,271.031 167.688,271.013C167.688,270.902 167.957,270.578 168.48,269.984C171.109,267.125 172.422,265.215 172.422,264.262C172.422,263.344 171.988,262.895 171.145,262.895C170.695,262.895 170.262,263.02 169.883,263.273C169.613,263.453 169.434,263.559 169.363,263.578C169.324,263.543 169.254,263.504 169.184,263.488C169.219,263.379 169.254,263.145 169.324,262.75C169.758,260.77 170.73,259.797 172.277,259.797C173.574,259.797 174.223,260.609 174.223,262.211Z" style="fill:rgb(255,176,0);fill-rule:nonzero;"/>
                </g>
                <g transform="matrix(2.70311,0,0,2.70311,-420.425,-262.35)">
                    <path d="M166.32,249.285C166.969,249.285 167.598,248.996 168.176,248.441C168.859,247.773 169.199,246.965 169.199,245.973C169.199,244.895 168.59,244.355 167.363,244.355C166.824,244.355 166.355,244.516 165.961,244.859C165.961,244.211 166.41,243.238 167.293,241.906C168.102,240.664 168.895,239.672 169.688,238.953C169.867,238.738 169.938,238.559 169.867,238.395C169.813,238.25 169.688,238.234 169.469,238.359C168.445,238.988 167.348,240.16 166.176,241.906C164.844,243.852 164.18,245.523 164.18,246.926C164.18,248.492 164.879,249.285 166.32,249.285Z" style="fill:rgb(255,176,0);fill-rule:nonzero;"/>
                </g>
                <g transform="matrix(2.70311,0,0,2.70311,-420.425,-262.35)">
                    <path d="M173.105,213.773C173.105,214.977 172.602,216.328 171.629,217.859C170.621,219.441 169.309,220.809 167.723,221.926C167.094,222.375 166.715,222.609 166.59,222.609C166.57,222.609 166.57,222.59 166.57,222.574C166.57,222.465 166.844,222.141 167.363,221.547C169.992,218.687 171.305,216.777 171.305,215.824C171.305,214.906 170.875,214.457 170.027,214.457C169.578,214.457 169.145,214.582 168.77,214.832C168.496,215.016 168.316,215.121 168.246,215.141C168.211,215.105 168.137,215.066 168.066,215.051C168.102,214.941 168.137,214.707 168.211,214.312C168.641,212.332 169.613,211.359 171.16,211.359C172.457,211.359 173.105,212.168 173.105,213.773Z" style="fill:rgb(255,176,0);fill-rule:nonzero;"/>
                </g>
                <g transform="matrix(2.70311,0,0,2.70311,-420.425,-262.35)">
                    <path d="M180.719,194.656C181.367,194.656 181.996,194.367 182.574,193.809C183.258,193.145 183.602,192.332 183.602,191.344C183.602,190.266 182.988,189.723 181.766,189.723C181.223,189.723 180.758,189.887 180.359,190.227C180.359,189.578 180.809,188.609 181.691,187.277C182.504,186.035 183.293,185.043 184.086,184.324C184.266,184.109 184.34,183.926 184.266,183.766C184.211,183.621 184.086,183.605 183.871,183.73C182.844,184.359 181.746,185.531 180.574,187.277C179.242,189.219 178.578,190.895 178.578,192.297C178.578,193.863 179.281,194.656 180.719,194.656Z" style="fill:rgb(255,176,0);fill-rule:nonzero;"/>
                </g>
                <g transform="matrix(2.70311,0,0,2.70311,-420.425,-262.35)">
                    <path d="M198.898,171.148C198.898,172.355 198.395,173.703 197.426,175.234C196.414,176.816 195.102,178.187 193.52,179.301C192.887,179.75 192.512,179.984 192.383,179.984C192.367,179.984 192.367,179.969 192.367,179.949C192.367,179.84 192.637,179.52 193.156,178.922C195.785,176.062 197.102,174.152 197.102,173.199C197.102,172.281 196.668,171.832 195.82,171.832C195.371,171.832 194.941,171.957 194.563,172.211C194.293,172.391 194.113,172.496 194.039,172.516C194.004,172.48 193.934,172.445 193.859,172.426C193.895,172.316 193.934,172.082 194.004,171.687C194.438,169.707 195.406,168.734 196.957,168.734C198.254,168.734 198.898,169.547 198.898,171.148Z" style="fill:rgb(255,176,0);fill-rule:nonzero;"/>
                </g>
                <g transform="matrix(2.70311,0,0,2.70311,-420.425,-262.35)">
                    <path d="M271.277,140.781C271.277,141.988 270.773,143.336 269.801,144.867C268.793,146.453 267.48,147.82 265.895,148.937C265.266,149.387 264.887,149.621 264.762,149.621C264.742,149.621 264.742,149.602 264.742,149.582C264.742,149.477 265.016,149.152 265.535,148.559C268.164,145.695 269.477,143.789 269.477,142.832C269.477,141.914 269.047,141.465 268.199,141.465C267.75,141.465 267.316,141.59 266.941,141.844C266.672,142.023 266.488,142.133 266.418,142.148C266.383,142.113 266.309,142.078 266.238,142.059C266.273,141.953 266.309,141.719 266.383,141.32C266.813,139.34 267.785,138.371 269.336,138.371C270.629,138.371 271.277,139.18 271.277,140.781Z" style="fill:rgb(255,176,0);fill-rule:nonzero;"/>
                </g>
                <g transform="matrix(2.70311,0,0,2.70311,-420.425,-262.35)">
                    <path d="M206.191,184.359C206.84,184.359 207.469,184.07 208.043,183.516C208.727,182.848 209.07,182.039 209.07,181.047C209.07,179.969 208.457,179.426 207.234,179.426C206.695,179.426 206.227,179.59 205.828,179.934C205.828,179.285 206.281,178.312 207.16,176.98C207.973,175.738 208.766,174.746 209.555,174.027C209.734,173.812 209.809,173.633 209.734,173.469C209.684,173.324 209.555,173.309 209.34,173.434C208.313,174.062 207.215,175.234 206.047,176.98C204.715,178.922 204.047,180.598 204.047,182C204.047,183.566 204.75,184.359 206.191,184.359Z" style="fill:rgb(255,176,0);fill-rule:nonzero;"/>
                </g>
                <g transform="matrix(2.70311,0,0,2.70311,-420.425,-262.35)">
                    <path d="M214.613,163.371C215.262,163.371 215.891,163.082 216.469,162.527C217.152,161.859 217.492,161.051 217.492,160.059C217.492,158.98 216.883,158.441 215.656,158.441C215.117,158.441 214.648,158.602 214.254,158.945C214.254,158.297 214.703,157.324 215.586,155.992C216.395,154.75 217.188,153.758 217.98,153.039C218.16,152.824 218.23,152.645 218.16,152.48C218.105,152.336 217.98,152.32 217.766,152.445C216.738,153.074 215.641,154.246 214.469,155.992C213.137,157.937 212.473,159.609 212.473,161.016C212.473,162.578 213.176,163.371 214.613,163.371Z" style="fill:rgb(255,176,0);fill-rule:nonzero;"/>
                </g>
                <g transform="matrix(2.70311,0,0,2.70311,-420.425,-262.35)">
                    <path d="M237.887,146.219C237.887,147.422 237.383,148.773 236.41,150.305C235.402,151.887 234.09,153.254 232.508,154.371C231.875,154.82 231.496,155.055 231.371,155.055C231.355,155.055 231.355,155.039 231.355,155.02C231.355,154.91 231.625,154.586 232.145,153.992C234.773,151.133 236.09,149.223 236.09,148.27C236.09,147.352 235.656,146.902 234.809,146.902C234.359,146.902 233.93,147.027 233.551,147.281C233.281,147.461 233.102,147.566 233.027,147.586C232.992,147.551 232.922,147.516 232.848,147.496C232.883,147.387 232.922,147.152 232.992,146.758C233.426,144.777 234.395,143.805 235.945,143.805C237.238,143.805 237.887,144.617 237.887,146.219Z" style="fill:rgb(255,176,0);fill-rule:nonzero;"/>
                </g>
                <g transform="matrix(2.70311,0,0,2.70311,-420.425,-262.35)">
                    <path d="M251.586,150.734C252.234,150.734 252.863,150.449 253.441,149.891C254.125,149.223 254.465,148.414 254.465,147.422C254.465,146.344 253.855,145.805 252.629,145.805C252.09,145.805 251.621,145.965 251.227,146.309C251.227,145.66 251.676,144.687 252.559,143.355C253.367,142.113 254.16,141.125 254.953,140.402C255.133,140.187 255.203,140.008 255.133,139.844C255.078,139.703 254.953,139.684 254.734,139.809C253.711,140.441 252.613,141.609 251.441,143.355C250.109,145.301 249.445,146.973 249.445,148.379C249.445,149.945 250.145,150.734 251.586,150.734Z" style="fill:rgb(255,176,0);fill-rule:nonzero;"/>
                </g>
                <g transform="matrix(2.70311,0,0,2.70311,-420.425,-262.35)">
                    <path d="M180.145,227.703C180.145,228.91 179.641,230.258 178.668,231.789C177.66,233.375 176.348,234.742 174.762,235.859C174.133,236.309 173.754,236.543 173.629,236.543C173.609,236.543 173.609,236.523 173.609,236.504C173.609,236.398 173.879,236.074 174.402,235.48C177.031,232.617 178.344,230.711 178.344,229.754C178.344,228.836 177.91,228.387 177.066,228.387C176.617,228.387 176.184,228.516 175.805,228.766C175.535,228.945 175.355,229.055 175.285,229.07C175.246,229.035 175.176,229 175.105,228.98C175.141,228.875 175.176,228.641 175.246,228.242C175.68,226.266 176.652,225.293 178.199,225.293C179.496,225.293 180.145,226.102 180.145,227.703Z" style="fill:rgb(255,176,0);fill-rule:nonzero;"/>
                </g>
                <g transform="matrix(2.70311,0,0,2.70311,-420.425,-262.35)">
                    <path d="M206.137,306.219C206.785,306.219 207.414,305.934 207.988,305.375C208.676,304.707 209.016,303.898 209.016,302.906C209.016,301.828 208.402,301.289 207.18,301.289C206.641,301.289 206.172,301.449 205.777,301.793C205.777,301.145 206.227,300.172 207.109,298.84C207.918,297.598 208.711,296.609 209.504,295.887C209.684,295.672 209.754,295.492 209.684,295.328C209.629,295.187 209.504,295.168 209.285,295.293C208.262,295.922 207.16,297.094 205.992,298.84C204.66,300.785 203.992,302.457 203.992,303.863C203.992,305.426 204.695,306.219 206.137,306.219Z" style="fill:rgb(255,176,0);fill-rule:nonzero;"/>
                </g>
                <g transform="matrix(2.70311,0,0,2.70311,-420.425,-262.35)">
                    <path d="M349.648,307.77C349.648,308.973 349.145,310.324 348.176,311.855C347.164,313.437 345.852,314.805 344.27,315.922C343.637,316.371 343.262,316.605 343.133,316.605C343.117,316.605 343.117,316.586 343.117,316.57C343.117,316.461 343.387,316.137 343.906,315.543C346.535,312.684 347.852,310.773 347.852,309.82C347.852,308.902 347.418,308.453 346.57,308.453C346.121,308.453 345.691,308.578 345.313,308.828C345.043,309.008 344.863,309.117 344.789,309.137C344.754,309.102 344.684,309.062 344.609,309.047C344.645,308.937 344.684,308.703 344.754,308.309C345.188,306.328 346.156,305.355 347.707,305.355C349.004,305.355 349.648,306.164 349.648,307.77Z" style="fill:rgb(255,176,0);fill-rule:nonzero;"/>
                </g>
                <g transform="matrix(2.70311,0,0,2.70311,-420.425,-262.35)">
                    <path d="M363.023,240.016C363.457,240.016 363.871,239.816 364.266,239.441C364.715,239.008 364.949,238.469 364.949,237.801C364.949,237.082 364.535,236.723 363.727,236.723C363.367,236.723 363.059,236.848 362.789,237.062C362.789,236.633 363.078,235.984 363.672,235.082C364.211,234.254 364.734,233.609 365.273,233.121C365.398,232.977 365.438,232.852 365.383,232.742C365.363,232.652 365.273,232.637 365.129,232.727C364.445,233.141 363.707,233.934 362.934,235.082C362.035,236.379 361.602,237.496 361.602,238.434C361.602,239.477 362.07,240.016 363.023,240.016Z" style="fill:rgb(255,176,0);fill-rule:nonzero;"/>
                </g>
                <g transform="matrix(2.46774,0,0,2.46774,-338.311,-221.063)">
                    <path d="M348.875,177.016C348.875,177.824 348.535,178.727 347.887,179.75C347.219,180.812 346.34,181.715 345.277,182.469C344.863,182.758 344.609,182.918 344.539,182.918C344.52,182.918 344.52,182.902 344.52,182.883C344.52,182.828 344.699,182.594 345.043,182.219C346.805,180.309 347.688,179.031 347.688,178.383C347.688,177.789 347.398,177.484 346.844,177.484C346.52,177.484 346.246,177.555 345.996,177.734C345.797,177.863 345.691,177.934 345.637,177.934C345.602,177.914 345.563,177.879 345.512,177.879C345.527,177.809 345.563,177.645 345.617,177.375C345.887,176.062 346.555,175.414 347.578,175.414C348.445,175.414 348.875,175.953 348.875,177.016Z" style="fill:rgb(255,176,0);fill-rule:nonzero;"/>
                </g>
                <g transform="matrix(2.10406,0,0,2.10406,-224.866,-169.118)">
                    <path d="M326.449,157.234C326.449,158.043 326.105,158.945 325.457,159.969C324.793,161.031 323.91,161.934 322.848,162.687C322.434,162.977 322.184,163.137 322.109,163.137C322.094,163.137 322.094,163.121 322.094,163.102C322.094,163.047 322.273,162.812 322.613,162.437C324.379,160.527 325.262,159.25 325.262,158.602C325.262,158.008 324.973,157.703 324.414,157.703C324.09,157.703 323.82,157.773 323.566,157.953C323.371,158.078 323.262,158.152 323.207,158.152C323.172,158.133 323.137,158.098 323.082,158.098C323.102,158.027 323.137,157.863 323.191,157.594C323.461,156.281 324.125,155.633 325.152,155.633C326.016,155.633 326.449,156.172 326.449,157.234Z" style="fill:rgb(255,176,0);fill-rule:nonzero;"/>
                </g>
                <g transform="matrix(2.10609,0,0,2.10609,-236.189,-174.926)">
                    <path d="M308.594,148.035C308.594,148.844 308.25,149.746 307.602,150.773C306.938,151.832 306.055,152.734 304.992,153.488C304.578,153.777 304.324,153.941 304.254,153.941C304.234,153.941 304.234,153.922 304.234,153.902C304.234,153.852 304.414,153.617 304.758,153.238C306.523,151.328 307.402,150.051 307.402,149.402C307.402,148.809 307.117,148.504 306.559,148.504C306.234,148.504 305.965,148.574 305.711,148.754C305.516,148.883 305.406,148.953 305.352,148.953C305.316,148.937 305.281,148.898 305.227,148.898C305.242,148.828 305.281,148.664 305.336,148.395C305.605,147.082 306.27,146.434 307.297,146.434C308.16,146.434 308.594,146.973 308.594,148.035Z" style="fill:rgb(255,176,0);fill-rule:nonzero;"/>
                </g>
                <g transform="matrix(2.70311,0,0,2.70311,-420.425,-262.35)">
                    <path d="M280.152,145.516C280.477,145.516 280.801,145.371 281.09,145.082C281.43,144.758 281.594,144.344 281.594,143.859C281.594,143.32 281.285,143.051 280.676,143.051C280.402,143.051 280.172,143.141 279.973,143.301C279.973,142.977 280.207,142.492 280.637,141.809C281.051,141.195 281.449,140.691 281.844,140.332C281.934,140.223 281.969,140.133 281.934,140.062C281.898,139.988 281.844,139.973 281.734,140.043C281.215,140.352 280.676,140.945 280.078,141.809C279.414,142.781 279.09,143.625 279.09,144.328C279.09,145.121 279.434,145.516 280.152,145.516Z" style="fill:rgb(255,176,0);fill-rule:nonzero;"/>
                </g>
                <g transform="matrix(2.70311,0,0,2.70311,-420.425,-262.35)">
                    <path d="M177.66,280.93C177.66,281.738 177.316,282.641 176.672,283.664C176.004,284.727 175.121,285.629 174.059,286.383C173.645,286.672 173.395,286.832 173.32,286.832C173.305,286.832 173.305,286.816 173.305,286.797C173.305,286.742 173.484,286.508 173.824,286.133C175.59,284.223 176.473,282.945 176.473,282.297C176.473,281.703 176.184,281.398 175.625,281.398C175.301,281.398 175.031,281.469 174.781,281.648C174.582,281.777 174.473,281.848 174.422,281.848C174.383,281.828 174.348,281.793 174.293,281.793C174.313,281.723 174.348,281.559 174.402,281.289C174.672,279.977 175.34,279.328 176.363,279.328C177.227,279.328 177.66,279.867 177.66,280.93Z" style="fill:rgb(255,176,0);fill-rule:nonzero;"/>
                </g>
                <g transform="matrix(2.70311,0,0,2.70311,-420.425,-262.35)">
                    <path d="M270.344,342.832C270.344,343.641 270,344.543 269.352,345.566C268.688,346.629 267.805,347.531 266.742,348.285C266.328,348.574 266.074,348.734 266.004,348.734C265.984,348.734 265.984,348.719 265.984,348.699C265.984,348.645 266.164,348.41 266.508,348.035C268.273,346.125 269.152,344.848 269.152,344.199C269.152,343.605 268.867,343.301 268.309,343.301C267.984,343.301 267.715,343.371 267.461,343.551C267.266,343.676 267.156,343.75 267.102,343.75C267.066,343.73 267.031,343.695 266.977,343.695C266.992,343.625 267.031,343.461 267.086,343.191C267.355,341.879 268.02,341.23 269.047,341.23C269.91,341.23 270.344,341.77 270.344,342.832Z" style="fill:rgb(255,176,0);fill-rule:nonzero;"/>
                </g>
                <g transform="matrix(2.70311,0,0,2.70311,-420.425,-262.35)">
                    <path d="M308.594,312.898C308.594,313.707 308.25,314.609 307.602,315.633C306.938,316.695 306.055,317.594 304.992,318.352C304.578,318.641 304.324,318.801 304.254,318.801C304.234,318.801 304.234,318.785 304.234,318.766C304.234,318.711 304.414,318.477 304.758,318.102C306.523,316.191 307.402,314.914 307.402,314.266C307.402,313.672 307.117,313.367 306.559,313.367C306.234,313.367 305.965,313.437 305.711,313.617C305.516,313.742 305.406,313.816 305.352,313.816C305.316,313.797 305.281,313.762 305.227,313.762C305.242,313.691 305.281,313.527 305.336,313.258C305.605,311.945 306.27,311.297 307.297,311.297C308.16,311.297 308.594,311.836 308.594,312.898Z" style="fill:rgb(255,176,0);fill-rule:nonzero;"/>
                </g>
                <g transform="matrix(2.70311,0,0,2.70311,-420.425,-262.35)">
                    <path d="M334.188,324.758C334.621,324.758 335.035,324.562 335.43,324.184C335.879,323.75 336.113,323.211 336.113,322.547C336.113,321.824 335.699,321.465 334.891,321.465C334.531,321.465 334.223,321.59 333.953,321.809C333.953,321.375 334.242,320.727 334.836,319.828C335.375,319 335.898,318.352 336.438,317.867C336.563,317.723 336.602,317.594 336.547,317.488C336.527,317.398 336.438,317.379 336.293,317.469C335.609,317.883 334.871,318.676 334.098,319.828C333.199,321.125 332.766,322.238 332.766,323.176C332.766,324.219 333.234,324.758 334.188,324.758Z" style="fill:rgb(255,176,0);fill-rule:nonzero;"/>
                </g>
                <g transform="matrix(2.70311,0,0,2.70311,-420.425,-262.35)">
                    <path d="M285.371,329.117C285.805,329.117 286.219,328.918 286.613,328.539C287.063,328.109 287.297,327.566 287.297,326.902C287.297,326.184 286.883,325.82 286.074,325.82C285.715,325.82 285.406,325.949 285.137,326.164C285.137,325.73 285.426,325.082 286.02,324.184C286.559,323.355 287.082,322.707 287.621,322.223C287.746,322.078 287.785,321.953 287.73,321.844C287.711,321.754 287.621,321.734 287.477,321.824C286.793,322.238 286.055,323.031 285.281,324.184C284.383,325.48 283.949,326.594 283.949,327.531C283.949,328.574 284.418,329.117 285.371,329.117Z" style="fill:rgb(255,176,0);fill-rule:nonzero;"/>
                </g>
                <g transform="matrix(2.70311,0,0,2.70311,-420.425,-262.35)">
                    <path d="M236.07,309.352C236.504,309.352 236.914,309.152 237.313,308.777C237.762,308.344 237.996,307.805 237.996,307.137C237.996,306.418 237.582,306.059 236.773,306.059C236.41,306.059 236.105,306.184 235.836,306.398C235.836,305.969 236.125,305.32 236.719,304.418C237.258,303.59 237.781,302.945 238.32,302.457C238.445,302.312 238.48,302.187 238.43,302.078C238.41,301.988 238.32,301.973 238.176,302.062C237.492,302.477 236.754,303.27 235.98,304.418C235.078,305.715 234.648,306.832 234.648,307.77C234.648,308.812 235.117,309.352 236.07,309.352Z" style="fill:rgb(255,176,0);fill-rule:nonzero;"/>
                </g>
                <g transform="matrix(2.70311,0,0,2.70311,-420.425,-262.35)">
                    <path d="M220.051,216.617C220.48,216.617 220.895,216.418 221.293,216.039C221.742,215.609 221.977,215.066 221.977,214.402C221.977,213.684 221.563,213.32 220.754,213.32C220.391,213.32 220.086,213.449 219.816,213.664C219.816,213.23 220.105,212.582 220.699,211.684C221.238,210.855 221.762,210.207 222.301,209.723C222.426,209.578 222.461,209.453 222.406,209.344C222.391,209.254 222.301,209.234 222.156,209.324C221.473,209.738 220.734,210.531 219.961,211.684C219.059,212.98 218.629,214.094 218.629,215.031C218.629,216.074 219.098,216.617 220.051,216.617Z" style="fill:rgb(255,176,0);fill-rule:nonzero;"/>
                </g>
                <g transform="matrix(2.70311,0,0,2.70311,-420.425,-262.35)">
                    <path d="M234.648,191.129C235.078,191.129 235.492,190.93 235.891,190.551C236.34,190.121 236.574,189.578 236.574,188.914C236.574,188.195 236.16,187.832 235.352,187.832C234.988,187.832 234.684,187.961 234.414,188.176C234.414,187.742 234.703,187.094 235.297,186.195C235.836,185.367 236.359,184.719 236.898,184.234C237.023,184.09 237.059,183.965 237.008,183.855C236.988,183.766 236.898,183.746 236.754,183.836C236.07,184.25 235.332,185.043 234.559,186.195C233.656,187.492 233.227,188.609 233.227,189.543C233.227,190.586 233.695,191.129 234.648,191.129Z" style="fill:rgb(255,176,0);fill-rule:nonzero;"/>
                </g>
                <g transform="matrix(2.70311,0,0,2.70311,-420.425,-262.35)">
                    <path d="M292.016,217.445C292.016,218.254 291.672,219.152 291.023,220.18C290.359,221.242 289.477,222.141 288.414,222.898C288,223.187 287.746,223.348 287.676,223.348C287.656,223.348 287.656,223.328 287.656,223.312C287.656,223.258 287.84,223.023 288.18,222.645C289.945,220.738 290.824,219.461 290.824,218.812C290.824,218.219 290.539,217.91 289.98,217.91C289.656,217.91 289.387,217.984 289.133,218.164C288.938,218.289 288.828,218.363 288.773,218.363C288.738,218.344 288.703,218.309 288.648,218.309C288.664,218.234 288.703,218.074 288.758,217.805C289.027,216.488 289.691,215.84 290.719,215.84C291.582,215.84 292.016,216.383 292.016,217.445Z" style="fill:rgb(255,176,0);fill-rule:nonzero;"/>
                </g>
                <g transform="matrix(2.70311,0,0,2.70311,-420.425,-262.35)">
                    <path d="M286.398,185.117C286.828,185.117 287.242,184.918 287.641,184.539C288.09,184.109 288.324,183.566 288.324,182.902C288.324,182.184 287.91,181.82 287.102,181.82C286.738,181.82 286.434,181.949 286.164,182.164C286.164,181.73 286.453,181.082 287.047,180.184C287.586,179.355 288.109,178.707 288.648,178.223C288.773,178.078 288.809,177.953 288.758,177.844C288.738,177.754 288.648,177.734 288.504,177.824C287.82,178.238 287.082,179.031 286.309,180.184C285.406,181.48 284.977,182.594 284.977,183.531C284.977,184.574 285.445,185.117 286.398,185.117Z" style="fill:rgb(255,176,0);fill-rule:nonzero;"/>
                </g>
                <g transform="matrix(2.70311,0,0,2.70311,-420.425,-262.35)">
                    <path d="M312.965,166.07C312.965,162.941 312.48,160.367 311.508,158.352C311.508,157.215 312.406,154.516 314.227,150.25C314.461,149.727 314.656,149.477 314.82,149.477C315.02,149.477 315.234,149.746 315.504,150.305C316.027,151.402 317.23,154.461 319.105,159.484C321.102,164.687 322.254,167.891 322.578,169.094C322.828,170.016 322.973,170.699 322.973,171.148C322.973,172.586 321.59,171.723 318.816,168.555C318.492,168.105 318.328,168.305 318.328,169.148C318.328,169.437 319.031,179.445 320.473,199.172C321.91,218.902 322.633,230.008 322.633,232.473C322.633,240.07 321.461,246.746 319.156,252.508C318.672,253.676 318.277,254.523 317.988,255.047C317.539,255.82 317.27,255.926 317.16,255.387C317.035,254.793 317.09,253.551 317.305,251.66C317.594,249.07 317.754,246.047 317.754,242.59C317.754,239.457 316.945,226.605 315.359,204.016C313.758,181.426 312.965,168.773 312.965,166.07Z" style="fill:rgb(255,93,0);fill-rule:nonzero;"/>
                </g>
                <g transform="matrix(0.24,0,0,0.24,-5.93027,0)">
                    <path d="M383.838,1431.37L383.833,1431.37C501.215,1416.76 568.309,1400.96 584.944,1384.11C585.553,1372.36 575.213,1342.14 553.926,1293.31C529.992,1238.97 515.778,1198.22 511.341,1171.04C509.933,1162.95 505.045,1157.44 496.733,1154.41C490.043,1151.37 487.227,1146.09 488.86,1138.61L504.256,1052.86C505.878,1043.72 508.525,1039.27 512.174,1039.45C514.765,1039.66 518.639,1042.31 523.922,1047.37L605.623,1127.66C615.343,1137.2 620.006,1144.46 619.792,1149.13C619.386,1158.68 601.749,1158.29 567.081,1147.54C606.231,1227.39 624.669,1287.63 622.641,1327.75C618.724,1401.01 591.555,1457.28 541.025,1496.49C559.918,1511.29 582.911,1530.62 609.892,1554.41C621.02,1566.78 626.302,1578.13 625.682,1588.87C625.457,1596.57 621.02,1614.43 612.482,1642.59C604.384,1669.38 597.3,1682.53 591.229,1682.32C587.76,1682.14 582.703,1679.72 575.619,1674.84C538.09,1649.71 493.298,1635.9 441.206,1633.09C405.131,1631.24 370.858,1644.21 339.006,1672.42C306.974,1700.39 290.17,1731.59 288.323,1766.08C286.69,1798.29 298.817,1854.85 307.988,1938.37C313.365,1987.34 321.565,2029.38 330.292,2077.97C343.086,2149.18 366.972,2235.29 381.553,2274.32C414.988,2363.83 384.114,2335.75 380.904,2335.75C377.649,2335.57 354.296,2287.02 335.549,2239.49C335.099,2238.35 310.886,2165.78 310.641,2164.65C269.858,1976.3 254.095,1854.87 257.305,1792C261.179,1717.21 278.603,1654.95 309.441,1605.28C335.177,1563.75 362.321,1540.43 390.703,1535.76C360.913,1524.59 346.136,1516.32 346.305,1510.82C346.53,1509.41 346.924,1508 347.712,1506.55L382.999,1431.14L383.838,1431.37Z" style="fill:rgb(255,93,0);fill-rule:nonzero;"/>
                </g>
                <g transform="matrix(2.28784,0,0,2.28784,-334.73,-154.453)">
                    <path d="M206.605,258.809L209.09,253.676C209.285,253.281 209.504,253.102 209.734,253.102C210.059,253.102 211.445,253.949 213.93,255.641C216.395,257.332 217.637,258.32 217.637,258.609C217.637,259.727 216.539,262.031 214.363,265.539C214.109,265.973 213.82,266.078 213.535,265.883C211.391,264.297 208.961,262.625 206.262,260.859C205.344,262.91 204.461,264.656 203.578,266.098C203.328,266.547 203.039,266.656 202.754,266.441C200.305,264.566 197.785,262.84 195.191,261.203C195.047,261.113 195.047,260.914 195.191,260.625L198.305,254.219C198.504,253.82 198.719,253.641 198.938,253.625C199.242,253.641 200.43,254.324 202.5,255.73C204.59,257.133 205.957,258.16 206.605,258.809Z" style="fill:rgb(255,176,0);fill-rule:nonzero;"/>
                </g>
                <g transform="matrix(0.24,0,0,0.24,0,0)">
                    <path d="M1508.99,1700.19L1508.99,1702.2C1457.3,1702.2 1406.83,1681.3 1357.34,1639.55C1311.53,1596.57 1265.52,1553.81 1219.28,1510.82C1213.43,1505.76 1209.77,1503.12 1208.32,1503.12C1206.51,1503.12 1207.92,1508.58 1212.81,1519.53C1229.61,1558.47 1237.93,1586.23 1237.93,1602.69C1237.93,1664.71 1220.11,1711.53 1184.21,1743.34C1158.47,1766.49 1100.48,1797.28 1009.85,1835.43L1009.85,1830.16L1009.24,1830.18L1009.24,1835.2C952.883,1859.32 910.737,1878.18 882.974,1891.34C828.022,1916.9 790.099,1937.8 769.634,1954C731.937,1983.38 677.154,2039.57 605.229,2122.27C562.418,2171.73 519.259,2196.67 476.054,2196.67C439.753,2196.67 408.161,2180.26 380.972,2147.61C352.375,2113.57 338.218,2071.99 338.218,2022.73C338.218,1955.01 365.97,1866.61 421.721,1757.77C427.612,1746.41 432.061,1740.74 435.316,1740.74C436.938,1741.14 437.557,1742.55 437.557,1744.96C437.557,1756.15 425.585,1794.02 401.257,1859.13C377.154,1924.2 365.181,1975.68 365.181,2013.38C365.181,2042.38 371.872,2065.52 385.466,2082.73C399.635,2101.38 419.694,2110.93 445.25,2110.93C490.437,2110.93 536.063,2087.78 582.298,2041.98C611.469,2007.1 640.91,1972.49 670.07,1937.58C708.172,1894.6 758.281,1856.27 820.318,1822.62C856.618,1802.78 919.668,1773.96 1009.24,1736.26L1009.24,1743.26L1009.85,1743.24L1009.85,1736.26C1105.54,1695.73 1168.41,1664.27 1198.42,1642.19C1207.13,1635.72 1210.16,1626.97 1207.13,1615.84C1191.12,1557.23 1125.04,1479.19 1008.84,1381.69C897.751,1292.07 786.664,1202.67 675.577,1113.27C671.703,1110.01 669.676,1097.87 669.676,1076.98C669.676,1049.83 672.491,1021.85 678.393,992.855C684.678,960.609 692.382,940.144 701.482,931.832C764.138,875.258 897.976,800.235 1102.73,706.798C1310.12,611.896 1447.17,564.468 1513.43,564.468C1533.1,564.468 1546.69,568.342 1554,576.215C1561.52,584.133 1565.13,597.502 1565.13,616.559C1565.13,660.158 1539,714.49 1487.07,779.342C1467.63,801.474 1447.97,823.561 1428.3,845.862C1397.06,882.162 1375.99,911.727 1365.03,934.467C1357.78,949.875 1353.11,957.568 1351.27,957.568C1349.46,957.568 1350.48,947.228 1354.52,926.73C1356.72,915.377 1365.48,895.711 1380.48,867.948C1394.03,842.212 1404.19,825.577 1411.05,817.884C1469.88,751.185 1504.94,707.192 1516.68,686.288C1517.92,684.272 1518.32,682.064 1518.32,679.823C1518.32,667.242 1501.91,661.171 1468.86,661.171C1416.56,661.171 1292.48,706.798 1096.61,797.994C901.006,889.246 766.999,964.258 694.803,1023.04C690.14,1027.08 690.749,1030.56 697.045,1033.38C761.097,1072.71 824.147,1113.27 886.184,1155.02C1035.42,1256.17 1167.4,1355.95 1282.54,1454.24C1317.43,1484.69 1352.05,1515.27 1386.95,1546.1C1428.3,1576.9 1469.04,1592.35 1508.99,1592.12L1508.99,1594.69L1517,1594.69L1517,1592.12C1552.07,1592.12 1586.12,1578.53 1619.17,1551.38C1628.71,1543.24 1633.55,1514.07 1633.55,1463.39C1633.55,1432.55 1625.68,1308.93 1609.83,1092.19C1594.04,875.472 1586.35,747.75 1586.35,708.814C1586.35,673.527 1580.67,644.761 1569.71,621.841C1569.71,609.474 1579.83,579.076 1600.5,530.589C1602.76,524.743 1604.77,521.882 1607.01,521.882C1609.22,521.882 1611.86,525.137 1614.72,531.602C1620.57,544.183 1634.17,578.681 1655.46,635.03C1677.37,693.811 1690.74,729.673 1695.01,742.873C1697.21,754.001 1698.45,761.738 1698.45,765.962C1698.45,782.203 1683.04,772.652 1652.2,737.41C1648.55,732.308 1646.75,734.55 1646.75,744.101C1646.75,746.297 1653.61,842.607 1667.6,1033.38C1681.42,1223.97 1688.5,1337.69 1688.5,1374.39C1688.5,1480.64 1669.44,1564.36 1631.35,1625.17C1598.88,1676.46 1560.78,1702.2 1517,1702.2L1517,1700.19L1508.99,1700.19Z" style="fill:rgb(255,93,0);fill-rule:nonzero;"/>
                </g>
            </g>
        </g>
    </g>
    <defs>
        <linearGradient id="_Linear1" x1="0" y1="0" x2="1" y2="0" gradientUnits="userSpaceOnUse" gradientTransform="matrix(2315,0,0,2315,336.179,1645.57)"><stop offset="0" style="stop-color:rgb(255,119,0);stop-opacity:1"/><stop offset="0.5" style="stop-color:rgb(255,183,2);stop-opacity:1"/><stop offset="1" style="stop-color:rgb(0,167,124);stop-opacity:1"/></linearGradient>
    </defs>
</svg>
