<?xml version="1.0" encoding="UTF-8" standalone="no"?>
<!-- Created with Inkscape (http://www.inkscape.org/) -->

<svg
   xmlns:dc="http://purl.org/dc/elements/1.1/"
   xmlns:cc="http://creativecommons.org/ns#"
   xmlns:rdf="http://www.w3.org/1999/02/22-rdf-syntax-ns#"
   xmlns:svg="http://www.w3.org/2000/svg"
   xmlns="http://www.w3.org/2000/svg"
   xmlns:xlink="http://www.w3.org/1999/xlink"
   xmlns:sodipodi="http://sodipodi.sourceforge.net/DTD/sodipodi-0.dtd"
   xmlns:inkscape="http://www.inkscape.org/namespaces/inkscape"
   id="svg11008"
   sodipodi:docname="antiFlash-icons.svg"
   viewBox="0 0 128.09375 128.09375"
   sodipodi:version="0.32"
   version="1.0"
   inkscape:output_extension="org.inkscape.output.svg.inkscape"
   inkscape:version="0.48.5 r10040"
   width="100%"
   height="100%">
  <defs
     id="defs11010">
    <filter
       id="filter10772"
       inkscape:collect="always"
       color-interpolation-filters="sRGB">
      <feGaussianBlur
         id="feGaussianBlur10774"
         stdDeviation="1.1207242"
         inkscape:collect="always" />
    </filter>
    <filter
       id="filter4248"
       inkscape:collect="always"
       color-interpolation-filters="sRGB">
      <feGaussianBlur
         id="feGaussianBlur4250"
         stdDeviation="1.1481569"
         inkscape:collect="always" />
    </filter>
    <filter
       id="filter5689"
       inkscape:collect="always"
       color-interpolation-filters="sRGB">
      <feGaussianBlur
         id="feGaussianBlur5691"
         stdDeviation="1.1978871"
         inkscape:collect="always" />
    </filter>
    <linearGradient
       id="linearGradient5737"
       y2="332.23001"
       gradientUnits="userSpaceOnUse"
       x2="273.67999"
       gradientTransform="translate(-0.43056,-0.8547)"
       y1="375.42999"
       x1="298.63"
       inkscape:collect="always">
      <stop
         id="stop5096"
         style="stop-color:#0000a1"
         offset="0" />
      <stop
         id="stop5098"
         style="stop-color:#0000ff;stop-opacity:.35484"
         offset="1" />
    </linearGradient>
    <linearGradient
       id="linearGradient5735"
       y2="323"
       gradientUnits="userSpaceOnUse"
       x2="260.82001"
       gradientTransform="translate(-0.43056,-0.8547)"
       y1="378.14999"
       x1="292.66"
       inkscape:collect="always">
      <stop
         id="stop5104"
         style="stop-color:#daedff"
         offset="0" />
      <stop
         id="stop5106"
         style="stop-color:#fffbff"
         offset="1" />
    </linearGradient>
    <linearGradient
       id="linearGradient5730"
       y2="374.07001"
       gradientUnits="userSpaceOnUse"
       x2="360.45001"
       gradientTransform="matrix(0.75556,-0.43622,0.43622,0.75556,-151.23,233.51)"
       y1="323.72"
       x1="361.19"
       inkscape:collect="always">
      <stop
         id="stop39726"
         style="stop-color:#e4ebff"
         offset="0" />
      <stop
         id="stop39728"
         style="stop-color:#ffffff"
         offset="1" />
    </linearGradient>
    <filter
       id="filter5748"
       inkscape:collect="always"
       color-interpolation-filters="sRGB">
      <feGaussianBlur
         id="feGaussianBlur5750"
         stdDeviation="1.5371249"
         inkscape:collect="always" />
    </filter>
    <linearGradient
       id="linearGradient5772"
       y2="379.92001"
       gradientUnits="userSpaceOnUse"
       x2="-120.63"
       gradientTransform="matrix(0.85995,-0.23042,0.23042,0.85995,-119.9,11.349)"
       y1="316.17001"
       x1="-176.22"
       inkscape:collect="always">
      <stop
         id="stop9836"
         style="stop-color:#e88e27"
         offset="0" />
      <stop
         id="stop9838"
         style="stop-color:#e8c827;stop-opacity:.53659"
         offset="1" />
    </linearGradient>
    <linearGradient
       id="linearGradient5767"
       y2="307.54999"
       gradientUnits="userSpaceOnUse"
       x2="242.92999"
       gradientTransform="matrix(0.85995,-0.23042,0.23042,0.85995,-408.99,135.38)"
       y1="281.06"
       x1="230.45"
       inkscape:collect="always">
      <stop
         id="stop9851"
         style="stop-color:#ffffff"
         offset="0" />
      <stop
         id="stop9853"
         style="stop-color:#ffffff;stop-opacity:0"
         offset="1" />
    </linearGradient>
    <filter
       id="filter4931"
       inkscape:collect="always"
       color-interpolation-filters="sRGB">
      <feGaussianBlur
         id="feGaussianBlur4933"
         stdDeviation="0.58639522"
         inkscape:collect="always" />
    </filter>
    <linearGradient
       id="linearGradient5963"
       y2="259.20001"
       gradientUnits="userSpaceOnUse"
       x2="-251.78999"
       y1="284.64001"
       x1="-321.03"
       inkscape:collect="always">
      <stop
         id="stop10330"
         style="stop-color:#ffffff"
         offset="0" />
      <stop
         id="stop10332"
         style="stop-color:#ffffff;stop-opacity:0"
         offset="1" />
    </linearGradient>
    <filter
       id="filter4939"
       inkscape:collect="always"
       color-interpolation-filters="sRGB">
      <feGaussianBlur
         id="feGaussianBlur4941"
         stdDeviation="0.58639522"
         inkscape:collect="always" />
    </filter>
    <linearGradient
       id="linearGradient4310"
       y2="233.38"
       gradientUnits="userSpaceOnUse"
       x2="-199"
       gradientTransform="matrix(1.0145,0.58574,-0.59978,1.0389,70.414,259.75)"
       y1="227.37"
       x1="-181.72"
       inkscape:collect="always">
      <stop
         id="stop9942"
         style="stop-color:#ffcc00"
         offset="0" />
      <stop
         id="stop9944"
         style="stop-color:#ffcc00;stop-opacity:0"
         offset="1" />
    </linearGradient>
    <linearGradient
       id="linearGradient4307"
       y2="215.38"
       gradientUnits="userSpaceOnUse"
       x2="-177.8"
       gradientTransform="matrix(1.0145,0.58574,-0.59978,1.0389,70.414,259.75)"
       y1="215.28999"
       x1="-196.57001"
       inkscape:collect="always">
      <stop
         id="stop9899"
         style="stop-color:#b3b3b3"
         offset="0" />
      <stop
         id="stop9905"
         style="stop-color:#f9f9f9"
         offset=".5" />
      <stop
         id="stop9901"
         style="stop-color:#b3b3b3"
         offset="1" />
    </linearGradient>
    <filter
       id="filter4935"
       inkscape:collect="always"
       color-interpolation-filters="sRGB">
      <feGaussianBlur
         id="feGaussianBlur4937"
         stdDeviation="0.58639522"
         inkscape:collect="always" />
    </filter>
    <linearGradient
       id="linearGradient4374"
       y2="388.32001"
       gradientUnits="userSpaceOnUse"
       x2="-281.57999"
       gradientTransform="translate(349.76,-49.544)"
       y1="380.47"
       x1="-293.17999"
       inkscape:collect="always">
      <stop
         id="stop4378"
         style="stop-color:#784421"
         offset="0" />
      <stop
         id="stop4380"
         style="stop-color:#a05a2c"
         offset=".26173" />
      <stop
         id="stop4382"
         style="stop-color:#deaa87"
         offset=".56873" />
      <stop
         id="stop4384"
         style="stop-color:#a05a2c;stop-opacity:0"
         offset="1" />
    </linearGradient>
    <linearGradient
       id="linearGradient4276"
       y2="319.94"
       xlink:href="#linearGradient4270"
       gradientUnits="userSpaceOnUse"
       x2="-246.16"
       y1="322.19"
       x1="-242.28"
       inkscape:collect="always" />
    <linearGradient
       id="linearGradient4264"
       y2="325.95999"
       gradientUnits="userSpaceOnUse"
       x2="-411.5"
       gradientTransform="matrix(-0.93458,-0.53958,-0.55252,0.95699,-459.07,-225.89)"
       y1="325.95999"
       x1="-429.70001"
       inkscape:collect="always">
      <stop
         id="stop5780"
         style="stop-color:#4d4d4d"
         offset="0" />
      <stop
         id="stop5782"
         style="stop-color:#f7f7f7"
         offset=".56760" />
      <stop
         id="stop5784"
         style="stop-color:#686868"
         offset="1" />
    </linearGradient>
    <linearGradient
       id="linearGradient4270">
      <stop
         id="stop4272"
         style="stop-color:#bd7b1a"
         offset="0" />
      <stop
         id="stop4274"
         style="stop-color:#ebb052"
         offset="1" />
    </linearGradient>
    <linearGradient
       id="linearGradient4284"
       y2="316.06"
       xlink:href="#linearGradient4270"
       gradientUnits="userSpaceOnUse"
       x2="-252.58"
       y1="313.98001"
       x1="-256.17999"
       inkscape:collect="always" />
    <linearGradient
       id="linearGradient4392"
       y2="394.94"
       gradientUnits="userSpaceOnUse"
       x2="-289.78"
       y1="391.37"
       x1="-294.66"
       inkscape:collect="always">
      <stop
         id="stop4388"
         style="stop-color:#28170b"
         offset="0" />
      <stop
         id="stop4394"
         style="stop-color:#897b71;stop-opacity:.96078"
         offset=".49607" />
      <stop
         id="stop4390"
         style="stop-color:#121200"
         offset="1" />
    </linearGradient>
    <linearGradient
       id="linearGradient3308"
       y2="527.42999"
       xlink:href="#linearGradient14564"
       gradientUnits="userSpaceOnUse"
       x2="120.84"
       gradientTransform="matrix(0,-1.3613,1.2149,0,-447.3,506.75)"
       y1="527.42999"
       x1="111.37"
       inkscape:collect="always" />
    <linearGradient
       id="linearGradient3305"
       y2="520.42999"
       xlink:href="#linearGradient14564"
       gradientUnits="userSpaceOnUse"
       x2="117.27"
       gradientTransform="matrix(0,-1.3613,1.2149,0,-447.3,506.75)"
       y1="520.42999"
       x1="111.18"
       inkscape:collect="always" />
    <linearGradient
       id="linearGradient3302"
       y2="519.70001"
       xlink:href="#linearGradient14564"
       gradientUnits="userSpaceOnUse"
       x2="101.65"
       gradientTransform="matrix(0,-1.3613,1.2149,0,-447.3,506.75)"
       y1="519.70001"
       x1="90.710999"
       inkscape:collect="always" />
    <linearGradient
       id="linearGradient3299"
       y2="508.42999"
       xlink:href="#linearGradient14564"
       gradientUnits="userSpaceOnUse"
       x2="101.3"
       gradientTransform="matrix(0,-1.3613,1.2149,0,-447.3,506.75)"
       y1="508.42999"
       x1="93.491997"
       inkscape:collect="always" />
    <linearGradient
       id="linearGradient3296"
       y2="514.40002"
       xlink:href="#linearGradient14564"
       gradientUnits="userSpaceOnUse"
       x2="143.42999"
       gradientTransform="matrix(0,-1.3613,1.2149,0,-447.3,506.75)"
       y1="514.40002"
       x1="129.74001"
       inkscape:collect="always" />
    <linearGradient
       id="linearGradient3292"
       y2="506.67001"
       xlink:href="#linearGradient14564"
       gradientUnits="userSpaceOnUse"
       x2="82.508003"
       gradientTransform="matrix(0,-1.3613,1.2149,0,-447.3,506.75)"
       y1="507.82999"
       x1="74.241997"
       inkscape:collect="always" />
    <linearGradient
       id="linearGradient3289"
       y2="500.73001"
       xlink:href="#linearGradient14564"
       gradientUnits="userSpaceOnUse"
       x2="86.388"
       gradientTransform="matrix(0,-1.3613,1.2149,0,-447.3,506.75)"
       y1="496.62"
       x1="78.882004"
       inkscape:collect="always" />
    <linearGradient
       id="linearGradient3286"
       y2="491.56"
       xlink:href="#linearGradient14564"
       gradientUnits="userSpaceOnUse"
       x2="91.555"
       gradientTransform="matrix(0,-1.3613,1.2149,0,-447.3,506.75)"
       y1="491.56"
       x1="84.616997"
       inkscape:collect="always" />
    <linearGradient
       id="linearGradient3282"
       y2="464.26001"
       xlink:href="#linearGradient14564"
       gradientUnits="userSpaceOnUse"
       x2="144.28999"
       gradientTransform="matrix(0,-1.3613,1.2149,0,-447.3,506.75)"
       y1="457.73999"
       x1="136.64999"
       inkscape:collect="always" />
    <linearGradient
       id="linearGradient3279"
       y2="460.70001"
       xlink:href="#linearGradient14564"
       gradientUnits="userSpaceOnUse"
       x2="146.28999"
       gradientTransform="matrix(0,-1.3613,1.2149,0,-447.3,506.75)"
       y1="454.89001"
       x1="143.14"
       inkscape:collect="always" />
    <linearGradient
       id="linearGradient4113"
       y2="481.79001"
       xlink:href="#linearGradient14564"
       gradientUnits="userSpaceOnUse"
       x2="77.901001"
       gradientTransform="matrix(0,-1.3613,1.2149,0,-447.3,506.75)"
       y1="480.62"
       x1="70.960999"
       inkscape:collect="always" />
    <linearGradient
       id="linearGradient3276"
       y2="484.17999"
       xlink:href="#linearGradient14564"
       gradientUnits="userSpaceOnUse"
       x2="144.34"
       gradientTransform="matrix(0,-1.3613,1.2149,0,-447.3,506.75)"
       y1="478.70001"
       x1="145.39"
       inkscape:collect="always" />
    <linearGradient
       id="linearGradient4128"
       y2="329.35999"
       xlink:href="#linearGradient14564"
       gradientUnits="userSpaceOnUse"
       x2="470.17001"
       gradientTransform="matrix(0.97431,0,0,1.0918,-336.41,19.449)"
       y1="339.76999"
       x1="466.22"
       inkscape:collect="always" />
    <linearGradient
       id="linearGradient4136"
       y2="347.85999"
       xlink:href="#linearGradient14564"
       gradientUnits="userSpaceOnUse"
       x2="480.20999"
       gradientTransform="matrix(0.97431,0,0,1.0918,-336.41,19.449)"
       y1="350.35999"
       x1="475.45001"
       inkscape:collect="always" />
    <linearGradient
       id="linearGradient3270"
       y2="458.98001"
       xlink:href="#linearGradient14564"
       gradientUnits="userSpaceOnUse"
       x2="88.912003"
       gradientTransform="matrix(0,-1.3613,1.2149,0,-447.3,506.75)"
       y1="460.70001"
       x1="83.921997"
       inkscape:collect="always" />
    <linearGradient
       id="linearGradient3267"
       y2="453.39001"
       xlink:href="#linearGradient14564"
       gradientUnits="userSpaceOnUse"
       x2="88.739998"
       gradientTransform="matrix(0,-1.3613,1.2149,0,-447.3,506.75)"
       y1="450.26999"
       x1="81.665001"
       inkscape:collect="always" />
    <linearGradient
       id="linearGradient3263"
       y2="450.66"
       xlink:href="#linearGradient14564"
       gradientUnits="userSpaceOnUse"
       x2="125.26"
       gradientTransform="matrix(0,-1.3613,1.2149,0,-447.3,506.75)"
       y1="448.82001"
       x1="119.32"
       inkscape:collect="always" />
    <linearGradient
       id="linearGradient3260"
       y2="442.76999"
       xlink:href="#linearGradient14564"
       gradientUnits="userSpaceOnUse"
       x2="129.07001"
       gradientTransform="matrix(0,-1.3613,1.2149,0,-447.3,506.75)"
       y1="439.92999"
       x1="123.68"
       inkscape:collect="always" />
    <linearGradient
       id="linearGradient3256"
       y2="457.45001"
       xlink:href="#linearGradient14564"
       gradientUnits="userSpaceOnUse"
       x2="104.84"
       gradientTransform="matrix(0,-1.3613,1.2149,0,-447.3,506.75)"
       y1="453.78"
       x1="100.1"
       inkscape:collect="always" />
    <linearGradient
       id="linearGradient3253"
       y2="451.57001"
       xlink:href="#linearGradient14564"
       gradientUnits="userSpaceOnUse"
       x2="107.26"
       gradientTransform="matrix(0,-1.3613,1.2149,0,-447.3,506.75)"
       y1="452.35001"
       x1="102.12"
       inkscape:collect="always" />
    <linearGradient
       id="linearGradient3250"
       y2="442.53"
       xlink:href="#linearGradient14564"
       gradientUnits="userSpaceOnUse"
       x2="106.56"
       gradientTransform="matrix(0,-1.3613,1.2149,0,-447.3,506.75)"
       y1="440.29999"
       x1="100.98"
       inkscape:collect="always" />
    <linearGradient
       id="linearGradient3247"
       y2="438.07001"
       xlink:href="#linearGradient14564"
       gradientUnits="userSpaceOnUse"
       x2="108.79"
       gradientTransform="matrix(0,-1.3613,1.2149,0,-447.3,506.75)"
       y1="434.45001"
       x1="106.42"
       inkscape:collect="always" />
    <linearGradient
       id="linearGradient14564">
      <stop
         id="stop14566"
         style="stop-color:#5c2929"
         offset="0" />
      <stop
         id="stop14568"
         style="stop-color:#a5a7a9"
         offset="1" />
    </linearGradient>
    <linearGradient
       id="linearGradient4152"
       y2="457.76999"
       xlink:href="#linearGradient14564"
       gradientUnits="userSpaceOnUse"
       x2="148.47"
       gradientTransform="matrix(0,-1.3613,1.2149,0,-447.3,506.75)"
       y1="514.09003"
       x1="81.271004"
       inkscape:collect="always" />
    <linearGradient
       id="linearGradient4241"
       y2="361.53"
       gradientUnits="userSpaceOnUse"
       x2="136.5"
       gradientTransform="matrix(0.97431,0,0,1.0918,354.12,-84.185)"
       y1="295.79001"
       x1="156.91"
       inkscape:collect="always">
      <stop
         id="stop4158"
         style="stop-color:#ffffff;stop-opacity:.53226"
         offset="0" />
      <stop
         id="stop4160"
         style="stop-color:#ffffff;stop-opacity:.024194"
         offset="1" />
    </linearGradient>
    <filter
       id="filter4146"
       inkscape:collect="always"
       color-interpolation-filters="sRGB">
      <feGaussianBlur
         id="feGaussianBlur4148"
         stdDeviation="0.35124878"
         inkscape:collect="always" />
    </filter>
    <linearGradient
       id="linearGradient3331"
       y2="437.78"
       gradientUnits="userSpaceOnUse"
       x2="462.04001"
       gradientTransform="matrix(0,-1.125,0.86721,0.047792,-236.86,855.58)"
       y1="440.97"
       x1="481.47"
       inkscape:collect="always">
      <stop
         id="stop14598"
         style="stop-color:#00001c"
         offset="0" />
      <stop
         id="stop14600"
         style="stop-color:#ffffff;stop-opacity:.2"
         offset="1" />
    </linearGradient>
    <linearGradient
       id="linearGradient4302"
       y2="307.63"
       gradientUnits="userSpaceOnUse"
       x2="-244.42999"
       y1="286.56"
       x1="-232.08"
       inkscape:collect="always">
      <stop
         id="stop4298"
         style="stop-color:#ffffff"
         offset="0" />
      <stop
         id="stop4300"
         style="stop-color:#ffffff;stop-opacity:0"
         offset="1" />
    </linearGradient>
    <filter
       id="filter4343"
       inkscape:collect="always"
       color-interpolation-filters="sRGB">
      <feGaussianBlur
         id="feGaussianBlur4345"
         stdDeviation="0.35356224"
         inkscape:collect="always" />
    </filter>
    <linearGradient
       id="linearGradient10712"
       y2="351.04001"
       gradientUnits="userSpaceOnUse"
       x2="329.53"
       gradientTransform="translate(4.3929,1.6589)"
       y1="356.19"
       x1="311.59"
       inkscape:collect="always">
      <stop
         id="stop10716"
         style="stop-color:#280b0b"
         offset="0" />
      <stop
         id="stop10718"
         style="stop-color:#a02c2c"
         offset="1" />
    </linearGradient>
    <linearGradient
       id="linearGradient10744"
       y2="317.76999"
       gradientUnits="userSpaceOnUse"
       x2="389.57001"
       gradientTransform="translate(-2.4988,-3.7482)"
       y1="341.51001"
       x1="380.17999"
       inkscape:collect="always">
      <stop
         id="stop10740"
         style="stop-color:#fff6d5"
         offset="0" />
      <stop
         id="stop10742"
         style="stop-color:#e9c6af"
         offset="1" />
    </linearGradient>
    <linearGradient
       id="linearGradient10700"
       y2="312.01999"
       gradientUnits="userSpaceOnUse"
       x2="311.70001"
       gradientTransform="translate(-2.4988,-3.7482)"
       y1="313.82001"
       x1="302.62"
       inkscape:collect="always">
      <stop
         id="stop10696"
         style="stop-color:#550000"
         offset="0" />
      <stop
         id="stop10698"
         style="stop-color:#a02c2c"
         offset="1" />
    </linearGradient>
    <filter
       id="filter10726"
       inkscape:collect="always"
       color-interpolation-filters="sRGB">
      <feGaussianBlur
         id="feGaussianBlur10728"
         stdDeviation="0.4743544"
         inkscape:collect="always" />
    </filter>
  </defs>
  <sodipodi:namedview
     id="base"
     bordercolor="#666666"
     inkscape:pageshadow="2"
     guidetolerance="10"
     pagecolor="#ffffff"
     gridtolerance="10000"
     inkscape:window-height="886"
     inkscape:zoom="1.3835692"
     objecttolerance="10"
     showgrid="false"
     borderopacity="1.0"
     inkscape:current-layer="layer1"
     inkscape:cx="192.97164"
     inkscape:cy="64.067498"
     inkscape:window-y="958"
     inkscape:window-x="195"
     inkscape:window-width="1547"
     inkscape:pageopacity="0.0"
     inkscape:document-units="px"
     fit-margin-top="0"
     fit-margin-left="0"
     fit-margin-right="0"
     fit-margin-bottom="0"
     inkscape:showpageshadow="false"
     inkscape:window-maximized="0" />
  <g
     id="layer1"
     inkscape:label="Layer 1"
     inkscape:groupmode="layer"
     transform="translate(-0.00751052,-0.03125)">
    <rect
       id="rect5575"
       style="fill:none;stroke:#f9f9f9;stroke-width:0.1;stroke-dashoffset:0.175"
       inkscape:export-ydpi="90"
       inkscape:export-filename="/home/antiflash/www/diseno_ico.png"
       transform="translate(339.82,-287.5)"
       height="128"
       width="128"
       inkscape:export-xdpi="90"
       y="287.57001"
       x="-339.76001" />
    <path
       id="path5827"
       style="fill:#917c6f;fill-rule:evenodd;filter:url(#filter4931)"
       d="m -285.7,322.64 c -9.53,0.15 -20.04,4 -29.25,11.53 -1.54,1.26 -3,2.59 -4.37,3.97 l -0.09,0.09 c -0.14,0.14 -0.28,0.27 -0.41,0.41 -15.51,15.07 -20.42,36.73 -10.16,50.87 l -4.5,3.69 -0.87,1.56 9.62,13.22 78.32,-64.03 0.78,-1.5 0.09,-0.09 -9.62,-13.22 -5.82,4.75 c -0.12,-0.18 -0.18,-0.36 -0.31,-0.53 -5.32,-7.31 -13.87,-10.87 -23.41,-10.72 z m -5.75,18.75 c 5.19,0.01 9.88,2.04 12.85,6.09 l -14.19,11.6 c -0.54,-0.75 -1.54,-0.97 -2.56,-0.69 -0.3,-0.13 -0.64,-0.1 -1.06,0.25 -2.81,2.3 -3.09,4.35 -2.63,5.59 l -14.22,11.63 c -0.13,-0.17 -0.28,-0.33 -0.4,-0.5 -3.97,-5.46 -3.82,-13.19 -0.32,-20.13 1.68,-2.83 3.93,-5.49 6.69,-7.75 4.96,-4.05 10.64,-6.1 15.84,-6.09 z"
       inkscape:export-ydpi="90"
       inkscape:export-filename="/home/antiflash/www/diseno_ico.png"
       transform="translate(339.82,-287.5)"
       inkscape:export-xdpi="90"
       inkscape:connector-curvature="0" />
    <path
       id="path10348"
       style="fill:#666666;fill-rule:evenodd"
       d="M 25.726,32.801 C 7.31,43.433 0.786,66.799 11.864,85.978 L 7.3505,88.556 6.4673,89.953 16.087,106.62 94.408,61.396 95.194,60.037 84.788,44.735 78.985,48.085 C 78.865,47.866 78.773,47.638 78.647,47.42 68.015,29.005 44.142,22.168 25.726,32.801 z m 8.793,15.302 c 9.914,-5.724 22.793,-2.056 28.722,8.212 0.124,0.216 0.223,0.447 0.338,0.665 l -15.406,8.894 c -0.808,-1.398 -1.357,-3.717 -2.755,-2.908 -3.307,1.915 -3.143,4.449 -2.335,5.847 L 27.676,77.708 C 27.545,77.499 27.395,77.299 27.27,77.083 21.342,66.815 24.605,53.827 34.519,48.103 z"
       inkscape:export-ydpi="90"
       sodipodi:nodetypes="cccccccccsccsccsccsc"
       inkscape:export-filename="/home/antiflash/www/diseno_ico.png"
       inkscape:export-xdpi="90"
       inkscape:connector-curvature="0" />
    <path
       id="path10366"
       style="fill:none;stroke:#e6e6e6;stroke-width:0.25;stroke-linecap:round;stroke-linejoin:round"
       d="m 16.121,106.48 0.835,-1.33"
       inkscape:export-ydpi="90"
       sodipodi:nodetypes="cc"
       inkscape:export-filename="/home/antiflash/www/diseno_ico.png"
       inkscape:export-xdpi="90"
       inkscape:connector-curvature="0" />
    <path
       id="rect9950"
       style="fill:#aaccff;fill-rule:evenodd"
       d="M 26.868,31.932 C 8.452,42.565 2.103,66.153 12.735,84.569 c 0.126,0.217 0.277,0.411 0.407,0.625 L 7.3388,88.544 16.959,105.21 95.28,59.987 85.66,43.325 79.857,46.676 C 79.737,46.457 79.644,46.229 79.519,46.011 68.886,27.595 45.284,21.3 26.868,31.932 z m 8.523,14.762 c 9.914,-5.724 22.793,-2.056 28.721,8.212 0.125,0.216 0.223,0.446 0.339,0.664 l -15.407,8.895 c -0.807,-1.398 -2.616,-1.883 -4.014,-1.075 -1.399,0.807 -1.883,2.616 -1.076,4.014 L 28.548,76.299 C 28.417,76.09 28.266,75.89 28.142,75.674 22.213,65.406 25.476,52.418 35.391,46.694 z"
       inkscape:export-ydpi="90"
       inkscape:export-filename="/home/antiflash/www/diseno_ico.png"
       inkscape:export-xdpi="90"
       inkscape:connector-curvature="0" />
    <path
       id="path10039"
       style="fill:url(#linearGradient5963);fill-rule:evenodd"
       sodipodi:type="inkscape:offset"
       d="m -296.59375,245.53125 c -16.49452,0 -29.90625,13.38155 -29.90625,29.875 0,0.11454 0.026,0.33342 0.0312,0.59375 -0.008,0.45799 -0.38576,0.83616 -0.84375,0.84375 l -4.5,0 0,13.65625 70.4375,0 0,-13.65625 -4.5,0 c -0.45799,-0.008 -0.83616,-0.38576 -0.84375,-0.84375 0.005,-0.26032 0.0312,-0.47922 0.0312,-0.59375 0,-16.49343 -13.41174,-29.875 -29.90625,-29.875 z m 0,11.90625 c 9.61054,10e-6 17.40625,8.06277 17.40625,17.96875 0,0.25062 -0.0244,0.45208 -0.0312,0.59375 -1.7e-4,0.0102 5.4e-4,0.0211 0,0.0312 -0.0235,0.44415 -0.39599,0.80508 -0.84375,0.8125 l -14.1875,0 c -0.45799,-0.008 -0.83616,-0.38576 -0.84375,-0.84375 0,-0.8173 -0.68269,-1.5 -1.5,-1.5 -0.81734,10e-6 -1.5,0.68267 -1.5,1.5 -0.008,0.45799 -0.38576,0.83616 -0.84375,0.84375 l -14.1875,0 c -0.44776,-0.007 -0.82025,-0.36835 -0.84375,-0.8125 -5.4e-4,-0.0102 1.7e-4,-0.021 0,-0.0312 -0.007,-0.14167 -0.0312,-0.34313 -0.0312,-0.59375 0,-9.90597 7.79572,-17.96875 17.40625,-17.96875 z"
       inkscape:export-filename="/home/antiflash/www/diseno_ico.png"
       xlink:href="#path10036"
       inkscape:original="M -296.59375 245.0625 C -313.34643 245.0625 -326.96875 258.65405 -326.96875 275.40625 C -326.96875 275.57195 -326.94211 275.77111 -326.9375 276 C -326.94091 276.20568 -327.10682 276.37159 -327.3125 276.375 L -332.28125 276.375 L -332.28125 290.96875 L -260.90625 290.96875 L -260.90625 276.375 L -265.875 276.375 C -266.08068 276.37159 -266.24659 276.20568 -266.25 276 C -266.24539 275.77112 -266.21875 275.57194 -266.21875 275.40625 C -266.21875 258.65407 -279.84108 245.0625 -296.59375 245.0625 z M -296.59375 257.90625 C -287.25036 257.90626 -279.65625 265.75053 -279.65625 275.40625 C -279.65625 275.63567 -279.68102 275.82482 -279.6875 276 C -279.69091 276.20568 -279.85682 276.37159 -280.0625 276.375 L -294.25 276.375 C -294.45568 276.37159 -294.62159 276.20568 -294.625 276 C -294.625 274.92055 -295.51429 274.03125 -296.59375 274.03125 C -297.67322 274.03126 -298.5625 274.92053 -298.5625 276 C -298.56591 276.20568 -298.73182 276.37159 -298.9375 276.375 L -313.125 276.375 C -313.33068 276.37159 -313.49659 276.20568 -313.5 276 C -313.50648 275.82483 -313.53125 275.63567 -313.53125 275.40625 C -313.53125 265.75054 -305.93713 257.90625 -296.59375 257.90625 z "
       transform="matrix(1.0859,-0.62695,0.62695,1.0859,195.52,-419.71)"
       inkscape:href="#path10036"
       inkscape:radius="-0.47730184"
       inkscape:export-ydpi="90"
       inkscape:export-xdpi="90" />
    <path
       id="path10319"
       style="fill:none;stroke:#333333;stroke-width:0.94041997"
       d="m 14.096,84.528 2.879,-1.662 M 13.539,74.809 9.6545,75.85 M 12.245,65.974 H 8.2584 M 13.158,57.037 9.3045,56.004 M 16.558,48.68 13.11,46.689 m 8.882,-5.236 -2.811,-2.812 m 51.471,3.194 2.844,-2.843 m -9.866,-2.666 2.01,-3.482 m -10.19,-0.225 1.033,-3.854 m -9.97,2.654 v -4.016 m -8.975,5.074 -1.029,-3.84 m -7.398,7.196 -1.998,-3.461 m 49.081,16.304 2.88,-1.663"
       inkscape:export-ydpi="90"
       inkscape:export-filename="/home/antiflash/www/diseno_ico.png"
       inkscape:export-xdpi="90"
       inkscape:connector-curvature="0" />
    <path
       id="path10336"
       sodipodi:rx="0.38597089"
       sodipodi:ry="0.38597089"
       style="fill:#ffffff;fill-rule:evenodd;stroke:#333333;stroke-width:0.75"
       sodipodi:type="arc"
       d="m 53.942684,226.40776 c 0,0.21317 -0.172805,0.38597 -0.385971,0.38597 -0.213166,0 -0.385971,-0.1728 -0.385971,-0.38597 0,-0.21317 0.172805,-0.38597 0.385971,-0.38597 0.213166,0 0.385971,0.1728 0.385971,0.38597 z"
       inkscape:export-ydpi="90"
       inkscape:export-filename="/home/antiflash/www/diseno_ico.png"
       transform="matrix(1.0859,-0.62695,0.62695,1.0859,-153.65,-146.38)"
       sodipodi:cy="226.40776"
       sodipodi:cx="53.556713"
       inkscape:export-xdpi="90" />
    <path
       id="path5841"
       style="fill:#917c6f;fill-rule:evenodd;filter:url(#filter4939)"
       d="m -222.6,322.04 c -8.83,-0.5 -18.37,19.2 -24.06,30.38 -6.57,12.89 -9.52,20.31 -9.82,26.47 -0.04,0.86 0.16,1.73 0.5,2.56 -3.37,0.93 -6.2,3.21 -6.72,6.06 -0.85,4.68 3.55,10.18 4.5,12.88 0.96,2.7 2.44,7.69 -0.25,10.75 8.98,-0.5 14.85,-9.34 16.19,-12.91 0.85,-2.25 1.24,-6.44 -0.19,-10.15 0.32,-0.16 0.64,-0.34 0.91,-0.57 4.49,-3.74 8.41,-10.58 14.44,-23.78 5.77,-12.63 16.75,-35.34 7.22,-40.84 -0.9,-0.52 -1.81,-0.79 -2.72,-0.85 z"
       inkscape:export-ydpi="90"
       inkscape:export-filename="/home/antiflash/www/diseno_ico.png"
       transform="translate(339.82,-287.5)"
       inkscape:export-xdpi="90"
       inkscape:connector-curvature="0" />
    <path
       id="path9895"
       style="fill:#ff6600;fill-rule:evenodd"
       d="m -254.28,380.42 c -5.68,-2.13 -13.6,1.09 -14.87,5.89 -1.24,4.69 2.91,10.2 3.7,12.91 0.79,2.71 1.97,7.73 -1.06,10.81 9.41,-0.52 16.2,-9.42 17.87,-13 1.81,-3.89 2.73,-13.47 -5.64,-16.61 z"
       inkscape:export-ydpi="90"
       sodipodi:nodetypes="csscss"
       inkscape:export-filename="/home/antiflash/www/diseno_ico.png"
       transform="translate(339.82,-287.5)"
       inkscape:export-xdpi="90"
       inkscape:connector-curvature="0" />
    <path
       id="path9937"
       style="fill:url(#linearGradient4310);fill-rule:evenodd"
       d="m -252.37,383.25 c -0.71,-0.51 -1.53,-0.98 -2.58,-1.39 -2.59,-1.02 -5,-1.71 -7.74,-0.75 -2.74,0.95 -5.57,3.52 -5.94,5.03 -0.39,1.67 0.24,4.01 1.39,6.42 8.08,9.94 9.22,-0.3 18.06,4.57 0.61,-1.36 1.38,-4.98 1.02,-7.68 -0.35,-2.7 -1.67,-4.37 -4.21,-6.2 z"
       inkscape:export-ydpi="90"
       sodipodi:nodetypes="csssccsc"
       inkscape:export-filename="/home/antiflash/www/diseno_ico.png"
       transform="translate(339.82,-287.5)"
       inkscape:export-xdpi="90"
       inkscape:connector-curvature="0" />
    <path
       id="path9884"
       style="fill:url(#linearGradient4307);fill-rule:evenodd"
       d="m -262.03,377.65 c -0.78,6.19 9.97,12.4 14.94,8.63 4.96,-3.77 9.59,-10.66 16.89,-23.92 6.98,-12.69 20.16,-35.48 10.63,-40.99 -9.54,-5.5 -22.69,17.31 -30.19,29.7 -7.84,12.96 -11.49,20.4 -12.27,26.58 z"
       inkscape:export-ydpi="90"
       sodipodi:nodetypes="ccsssc"
       inkscape:export-filename="/home/antiflash/www/diseno_ico.png"
       transform="translate(339.82,-287.5)"
       inkscape:export-xdpi="90"
       inkscape:connector-curvature="0" />
    <path
       id="path9889"
       style="fill:#a05a2c;fill-rule:evenodd"
       d="m -219.57,321.37 c -9.53,-5.5 -22.7,17.3 -30.2,29.7 -2.21,3.64 -3.89,6.93 -5.23,9.93 1.95,2.47 4.93,4.25 7.99,6 3.65,2.07 7.5,3.97 11.48,4 1.76,-2.49 3.45,-5.25 5.32,-8.64 6.98,-12.69 20.18,-35.48 10.64,-40.99 z"
       inkscape:export-ydpi="90"
       sodipodi:nodetypes="cscscsc"
       inkscape:export-filename="/home/antiflash/www/diseno_ico.png"
       transform="translate(339.82,-287.5)"
       inkscape:export-xdpi="90"
       inkscape:connector-curvature="0" />
    <path
       id="path5853"
       style="fill:#917c6f;fill-rule:evenodd;filter:url(#filter4935)"
       d="m -245.82,295.83 c -1.9,0.11 -2.75,1.75 -3.19,2.65 l -4.15,8.56 -0.19,-0.09 -4.22,8.69 -26.09,53.75 -1.32,2.65 -5.22,26.25 v 0.04 l 3.35,2.9 8.25,-8.47 10.65,-10.9 1.29,-2.66 26.09,-53.75 4.22,-8.69 -0.44,-0.25 4.19,-8.56 c 0.64,-1.32 2.1,-4.18 -2.41,-6.78 l -7.5,-4.34 c -1.35,-0.79 -2.45,-1.06 -3.31,-1 z"
       inkscape:export-ydpi="90"
       inkscape:export-filename="/home/antiflash/www/diseno_ico.png"
       transform="translate(339.82,-287.5)"
       inkscape:export-xdpi="90"
       inkscape:connector-curvature="0" />
    <path
       id="rect5804"
       style="fill:#aa0000;fill-rule:evenodd"
       d="m -232.17,297.3 -7.51,-4.34 c -4.34,-2.51 -6.18,0.45 -6.97,1.82 l -6,10.39 c -0.79,1.37 -0.28,3.13 1.14,3.95 l 11.25,6.5 c 1.43,0.82 3.21,0.38 4,-0.99 l 6,-10.39 c 0.79,-1.36 2.6,-4.34 -1.91,-6.94 z"
       inkscape:export-ydpi="90"
       sodipodi:nodetypes="ccccccccc"
       inkscape:export-filename="/home/antiflash/www/diseno_ico.png"
       transform="translate(339.82,-287.5)"
       inkscape:export-xdpi="90"
       inkscape:connector-curvature="0" />
    <path
       id="path3867"
       style="fill:#855232"
       d="m -290.98,371.11 -7.84,27.14 3.26,2.95 21.6,-20.26 33.78,-58.53 -17.01,-9.82 -33.79,58.52 z"
       inkscape:export-ydpi="90"
       sodipodi:nodetypes="ccccccc"
       inkscape:export-filename="/home/antiflash/www/diseno_ico.png"
       transform="translate(339.82,-287.5)"
       inkscape:export-xdpi="90"
       inkscape:connector-curvature="0" />
    <path
       id="rect5807"
       style="fill:url(#linearGradient4374);fill-rule:evenodd"
       d="m 58.781,321.56 -7.843,27.16 3.25,2.94 21.593,-20.28 -0.125,-0.41 -3.375,3.09 c 1.887,-2.35 -1.18,-3.64 -4.375,-1.84 l 0.844,-2.19 c 0.628,-5.44 -2.882,-5.02 -5.438,-2.72 l -0.5,0.16 c -1.83,-6.28 -4.743,-1.87 -5.062,-0.56 l 1.969,-6.25 -0.938,0.9 z"
       inkscape:export-ydpi="90"
       sodipodi:nodetypes="ccccccccccccc"
       inkscape:export-filename="/home/antiflash/www/diseno_ico.png"
       transform="translate(-9.9375,-237.96)"
       inkscape:export-xdpi="90"
       inkscape:connector-curvature="0" />
    <path
       id="path3889"
       style="fill:url(#linearGradient4276)"
       d="m -240.75,322.74 -33.36,57.78 -3.38,3.09 c 1.89,-2.35 -1.16,-3.63 -4.36,-1.84 l 35.84,-62.07 5.26,3.04 z"
       inkscape:export-ydpi="90"
       sodipodi:nodetypes="cccccc"
       inkscape:export-filename="/home/antiflash/www/diseno_ico.png"
       transform="translate(339.82,-287.5)"
       inkscape:export-xdpi="90"
       inkscape:connector-curvature="0" />
    <path
       id="path5786"
       style="fill:url(#linearGradient4264)"
       d="m -251.98,303.57 17.01,9.83 -5.21,9.01 -17.01,-9.82 5.21,-9.02 z"
       inkscape:export-ydpi="90"
       inkscape:export-filename="/home/antiflash/www/diseno_ico.png"
       transform="translate(339.82,-287.5)"
       inkscape:export-xdpi="90"
       inkscape:connector-curvature="0" />
    <path
       id="path5796"
       style="fill:#eab737"
       d="M -246.32,319.52 -281,379.58 c 0.63,-5.44 -2.89,-5.02 -5.44,-2.72 l 34.86,-60.38 5.26,3.04 z"
       inkscape:export-ydpi="90"
       sodipodi:nodetypes="ccccc"
       inkscape:export-filename="/home/antiflash/www/diseno_ico.png"
       transform="translate(339.82,-287.5)"
       inkscape:export-xdpi="90"
       inkscape:connector-curvature="0" />
    <path
       id="path5800"
       style="fill:url(#linearGradient4284)"
       d="m -251.89,316.3 -35.05,60.7 c -1.83,-6.28 -4.75,-1.85 -5.07,-0.54 l 1.98,-6.26 32.87,-56.94 5.27,3.04 z"
       inkscape:export-ydpi="90"
       sodipodi:nodetypes="cccccc"
       inkscape:export-filename="/home/antiflash/www/diseno_ico.png"
       transform="translate(339.82,-287.5)"
       inkscape:export-xdpi="90"
       inkscape:connector-curvature="0" />
    <path
       id="path5813"
       style="fill:url(#linearGradient4392);fill-rule:evenodd"
       d="m -286.14,392.36 -9.43,8.84 -3.24,-2.94 3.68,-12.73 8.99,6.83 z"
       inkscape:export-ydpi="90"
       sodipodi:nodetypes="ccccc"
       inkscape:export-filename="/home/antiflash/www/diseno_ico.png"
       transform="translate(339.82,-287.5)"
       inkscape:export-xdpi="90"
       inkscape:connector-curvature="0" />
    <path
       id="path4286"
       style="fill:url(#linearGradient4302);fill-rule:evenodd"
       d="m -232.74,297.42 -6.85,-4.1 c -2.41,-1.44 -3.98,-0.97 -4.99,-0.08 10.51,5.85 12.75,4.52 6.91,16.08 1.3,0.77 2.92,0.36 3.64,-0.93 l 3.03,-4.4 c 0.72,-1.29 2.37,-4.11 -1.74,-6.57 z"
       inkscape:export-ydpi="90"
       sodipodi:nodetypes="ccccccc"
       inkscape:export-filename="/home/antiflash/www/diseno_ico.png"
       transform="translate(339.82,-287.5)"
       inkscape:export-xdpi="90"
       inkscape:connector-curvature="0" />
    <path
       id="path4313"
       style="opacity:0.5;fill:#e9c6af;fill-rule:evenodd;filter:url(#filter4343)"
       d="m -239.14,370.37 c 7.64,-12.66 13.71,-24.93 19.28,-39.94 0.85,-2.31 -8.71,-5.37 -7.25,-6.94 0.81,-0.88 4.52,-2.52 6.55,-1.51 3.4,2.39 3.66,5.3 2.36,9.03 -6.66,17.95 -12,26.81 -19.55,39.7 -0.48,-0.07 -0.96,-0.18 -1.39,-0.34 z"
       inkscape:export-ydpi="90"
       sodipodi:nodetypes="csscccc"
       inkscape:export-filename="/home/antiflash/www/diseno_ico.png"
       transform="translate(339.82,-287.5)"
       inkscape:export-xdpi="90"
       inkscape:connector-curvature="0" />
  </g>
  <metadata
     id="metadata3424">
    <rdf:RDF>
      <cc:Work>
        <dc:format>image/svg+xml</dc:format>
        <dc:type
           rdf:resource="http://purl.org/dc/dcmitype/StillImage" />
        <cc:license
           rdf:resource="http://creativecommons.org/licenses/publicdomain/" />
        <dc:publisher>
          <cc:Agent
             rdf:about="http://openclipart.org/">
            <dc:title>Openclipart</dc:title>
          </cc:Agent>
        </dc:publisher>
        <dc:title></dc:title>
        <dc:date>2009-07-25T06:34:40</dc:date>
        <dc:description>a set of icons to symbolize the sectors of my website. Each icon is unique</dc:description>
        <dc:source>https://openclipart.org/detail/27361/icons-by-antiflash</dc:source>
        <dc:creator>
          <cc:Agent>
            <dc:title>antiFlash</dc:title>
          </cc:Agent>
        </dc:creator>
        <dc:subject>
          <rdf:Bag>
            <rdf:li>cartoon</rdf:li>
            <rdf:li>cleanup</rdf:li>
            <rdf:li>design</rdf:li>
            <rdf:li>gears</rdf:li>
            <rdf:li>icons</rdf:li>
            <rdf:li>mail</rdf:li>
            <rdf:li>pencil</rdf:li>
            <rdf:li>portfolio</rdf:li>
            <rdf:li>ruler</rdf:li>
            <rdf:li>sales</rdf:li>
            <rdf:li>sign</rdf:li>
            <rdf:li>web</rdf:li>
          </rdf:Bag>
        </dc:subject>
      </cc:Work>
      <cc:License
         rdf:about="http://creativecommons.org/licenses/publicdomain/">
        <cc:permits
           rdf:resource="http://creativecommons.org/ns#Reproduction" />
        <cc:permits
           rdf:resource="http://creativecommons.org/ns#Distribution" />
        <cc:permits
           rdf:resource="http://creativecommons.org/ns#DerivativeWorks" />
      </cc:License>
    </rdf:RDF>
  </metadata>
</svg>
